SplineFontDB: 3.0
FontName: Unna-Italic
FullName: Unna-Italic
FamilyName: Unna
Weight: Regular
Copyright: Copyright (c) 2011-2014, Omnibus-Type (www.omnibus-type.com omnibus.type@gmail.com) with Reserved Font Name 'Unna'

StartChar: .notdef
Encoding: 65536 -1 0
Width: 1136
Flags: MW
HStem: 0 102<276 973 276 1137> 1331 102<276 973 276 276>
LayerCount: 2
UndoRedoHistory
Layer: 1
Undoes
EndUndoes
Redoes
EndRedoes
EndUndoRedoHistory
Fore
SplineSet
113 0 m 1,0,-1
 113 1434 l 1,1,-1
 1137 1434 l 1,2,-1
 1137 0 l 1,3,-1
 113 0 l 1,0,-1
625 809 m 1,4,-1
 973 1331 l 1,5,-1
 276 1331 l 1,6,-1
 625 809 l 1,4,-1
686 717 m 1,7,-1
 1034 195 l 1,8,-1
 1034 1239 l 1,9,-1
 686 717 l 1,7,-1
276 102 m 1,10,-1
 973 102 l 1,11,-1
 625 625 l 1,12,-1
 276 102 l 1,10,-1
215 1239 m 1,13,-1
 215 195 l 1,14,-1
 563 717 l 1,15,-1
 215 1239 l 1,13,-1
EndSplineSet
EndChar

StartChar: A
Encoding: 65 65 1
Width: 1187
Flags: MW
HStem: 0 55<-33 -8 -33 244 1098 1108> 426 57<315 723 315 739 285 723> 1202 41G<668 727 727 727>
VStem: -104 1282<0 59>
LayerCount: 2
UndoRedoHistory
Layer: 1
Undoes
EndUndoes
Redoes
EndRedoes
EndUndoRedoHistory
Fore
SplineSet
1178 59 m 1,0,-1
 1169 0 l 1,1,-1
 639 0 l 1,2,-1
 647 59 l 1,3,-1
 756 55 l 2,4,5
 811 53.1034482759 811 53.1034482759 811 119 c 0,6,7
 811 157 811 157 803 184 c 2,8,-1
 739 426 l 1,9,-1
 285 426 l 1,10,-1
 162 197 l 1,11,12
 119 120 119 120 119 86.5 c 128,-1,13
 119 53 119 53 147 53 c 1,14,-1
 252 59 l 1,15,-1
 244 0 l 1,16,-1
 -104 0 l 1,17,-1
 -96 59 l 1,18,-1
 -33 55 l 1,19,20
 1 55 1 55 33.5 94 c 128,-1,21
 66 133 66 133 109 213 c 2,22,-1
 668 1243 l 1,23,-1
 727 1243 l 1,24,-1
 995 209 l 1,25,26
 1018 125 1018 125 1039 90 c 128,-1,27
 1060 55 1060 55 1098 55 c 2,28,-1
 1108 55 l 1,29,-1
 1178 59 l 1,0,-1
723 483 m 1,30,-1
 590 991 l 1,31,-1
 315 483 l 1,32,-1
 723 483 l 1,30,-1
EndSplineSet
Substitution2: "Single Substitution lookup 21 subtable" ordfeminine
Substitution2: "'aalt' Access All Alternates lookup 0 subtable" ordfeminine
Position2: "'cpsp' Capital Spacing lookup 0 per glyph data 2" dx=10 dy=0 dh=20 dv=0
EndChar

StartChar: Aacute
Encoding: 193 193 2
Width: 1187
Flags: MW
HStem: 0 55<-33 -8 -33 244 1098 1108> 426 57<315 723 315 739 285 723> 1202 41G<668 727 727 727>
VStem: -104 1282<0 59>
LayerCount: 2
UndoRedoHistory
Layer: 1
Undoes
EndUndoes
Redoes
EndRedoes
EndUndoRedoHistory
Fore
SplineSet
858 1649 m 1,0,1
 883 1676 883 1676 895.5 1684 c 128,-1,2
 908 1692 908 1692 936 1692 c 128,-1,3
 964 1692 964 1692 1002 1671.5 c 128,-1,4
 1040 1651 1040 1651 1040 1640 c 128,-1,5
 1040 1629 1040 1629 1020 1614 c 1,6,-1
 670 1382 l 1,7,8
 646 1364 646 1364 622 1364 c 128,-1,9
 598 1364 598 1364 598 1378 c 0,10,11
 598 1386 598 1386 639 1427 c 2,12,-1
 858 1649 l 1,0,1
1169 0 m 1,13,-1
 639 0 l 1,14,-1
 647 59 l 1,15,-1
 756 55 l 2,16,17
 811 53.1034482759 811 53.1034482759 811 119 c 0,18,19
 811 157 811 157 803 184 c 2,20,-1
 739 426 l 1,21,-1
 285 426 l 1,22,-1
 162 197 l 1,23,24
 119 120 119 120 119 86.5 c 128,-1,25
 119 53 119 53 147 53 c 1,26,-1
 252 59 l 1,27,-1
 244 0 l 1,28,-1
 -104 0 l 1,29,-1
 -96 59 l 1,30,-1
 -33 55 l 1,31,32
 1 55 1 55 33.5 94 c 128,-1,33
 66 133 66 133 109 213 c 2,34,-1
 668 1243 l 1,35,-1
 727 1243 l 1,36,-1
 995 209 l 1,37,38
 1018 125 1018 125 1039 90 c 128,-1,39
 1060 55 1060 55 1098 55 c 2,40,-1
 1108 55 l 1,41,-1
 1178 59 l 1,42,-1
 1169 0 l 1,13,-1
590 991 m 1,43,-1
 315 483 l 1,44,-1
 723 483 l 1,45,-1
 590 991 l 1,43,-1
EndSplineSet
Position2: "'cpsp' Capital Spacing lookup 0 per glyph data 2" dx=10 dy=0 dh=20 dv=0
EndChar

StartChar: Abreve
Encoding: 258 258 3
Width: 1187
Flags: MW
HStem: 0 55<-33 -8 -33 244 1098 1108> 426 57<315 723 315 739 285 723> 1202 41G<668 727 727 727> 1364 102<692 797 692 809>
VStem: 510 90<1618 1618>
LayerCount: 2
UndoRedoHistory
Layer: 1
Undoes
EndUndoes
Redoes
EndRedoes
EndUndoRedoHistory
Fore
SplineSet
600 1618 m 1,0,1
 611.692307692 1466 611.692307692 1466 745 1466 c 0,2,3
 816 1466 816 1466 864.5 1510 c 128,-1,4
 913 1554 913 1554 936 1618 c 1,5,-1
 1024 1618 l 1,6,7
 995 1501 995 1501 919.5 1432.5 c 128,-1,8
 844 1364 844 1364 731.5 1364 c 128,-1,9
 619 1364 619 1364 563 1432.5 c 128,-1,10
 507 1501 507 1501 510 1618 c 1,11,-1
 600 1618 l 1,0,1
1169 0 m 1,12,-1
 639 0 l 1,13,-1
 647 59 l 1,14,-1
 756 55 l 2,15,16
 811 53.1034482759 811 53.1034482759 811 119 c 0,17,18
 811 157 811 157 803 184 c 2,19,-1
 739 426 l 1,20,-1
 285 426 l 1,21,-1
 162 197 l 1,22,23
 119 120 119 120 119 86.5 c 128,-1,24
 119 53 119 53 147 53 c 1,25,-1
 252 59 l 1,26,-1
 244 0 l 1,27,-1
 -104 0 l 1,28,-1
 -96 59 l 1,29,-1
 -33 55 l 1,30,31
 1 55 1 55 33.5 94 c 128,-1,32
 66 133 66 133 109 213 c 2,33,-1
 668 1243 l 1,34,-1
 727 1243 l 1,35,-1
 995 209 l 1,36,37
 1018 125 1018 125 1039 90 c 128,-1,38
 1060 55 1060 55 1098 55 c 2,39,-1
 1108 55 l 1,40,-1
 1178 59 l 1,41,-1
 1169 0 l 1,12,-1
590 991 m 1,42,-1
 315 483 l 1,43,-1
 723 483 l 1,44,-1
 590 991 l 1,42,-1
EndSplineSet
EndChar

StartChar: Acircumflex
Encoding: 194 194 4
Width: 1187
Flags: MW
HStem: 0 55<-33 -8 -33 244 1098 1108> 426 57<315 723 315 739 285 723> 1202 41G<668 727 727 727>
VStem: -104 1282<0 59>
LayerCount: 2
UndoRedoHistory
Layer: 1
Undoes
EndUndoes
Redoes
EndRedoes
EndUndoRedoHistory
Fore
SplineSet
510 1389 m 1,0,1
 465 1364 465 1364 446.5 1364 c 128,-1,2
 428 1364 428 1364 428 1374.5 c 128,-1,3
 428 1385 428 1385 450.5 1403.5 c 128,-1,4
 473 1422 473 1422 519 1459.5 c 128,-1,5
 565 1497 565 1497 604 1534 c 2,6,-1
 707 1632 l 2,7,8
 761 1683 761 1683 775.5 1683 c 128,-1,9
 790 1683 790 1683 829 1632 c 2,10,-1
 903 1534 l 1,11,12
 939.909090909 1483.09090909 939.909090909 1483.09090909 987.954545455 1435.04545455 c 128,-1,13
 1036 1387 1036 1387 1036 1380 c 0,14,15
 1036 1364 1036 1364 1012.5 1364 c 128,-1,16
 989 1364 989 1364 954 1389 c 1,17,-1
 756 1538 l 1,18,-1
 510 1389 l 1,0,1
1169 0 m 1,19,-1
 639 0 l 1,20,-1
 647 59 l 1,21,-1
 756 55 l 2,22,23
 811 53.1034482759 811 53.1034482759 811 119 c 0,24,25
 811 157 811 157 803 184 c 2,26,-1
 739 426 l 1,27,-1
 285 426 l 1,28,-1
 162 197 l 1,29,30
 119 120 119 120 119 86.5 c 128,-1,31
 119 53 119 53 147 53 c 1,32,-1
 252 59 l 1,33,-1
 244 0 l 1,34,-1
 -104 0 l 1,35,-1
 -96 59 l 1,36,-1
 -33 55 l 1,37,38
 1 55 1 55 33.5 94 c 128,-1,39
 66 133 66 133 109 213 c 2,40,-1
 668 1243 l 1,41,-1
 727 1243 l 1,42,-1
 995 209 l 1,43,44
 1018 125 1018 125 1039 90 c 128,-1,45
 1060 55 1060 55 1098 55 c 2,46,-1
 1108 55 l 1,47,-1
 1178 59 l 1,48,-1
 1169 0 l 1,19,-1
590 991 m 1,49,-1
 315 483 l 1,50,-1
 723 483 l 1,51,-1
 590 991 l 1,49,-1
EndSplineSet
Position2: "'cpsp' Capital Spacing lookup 0 per glyph data 2" dx=10 dy=0 dh=20 dv=0
EndChar

StartChar: Adieresis
Encoding: 196 196 5
Width: 1187
Flags: MW
HStem: 0 55<-33 -8 -33 244 1098 1108> 426 57<315 723 315 739 285 723> 1202 41G<668 727 727 727> 1386 195<551 594 907 950>
VStem: 459 223<1462 1504> 815 223<1462 1504>
LayerCount: 2
UndoRedoHistory
Layer: 1
Undoes
EndUndoes
Redoes
EndRedoes
EndUndoRedoHistory
Fore
SplineSet
495.5 1550.5 m 128,-1,1
 532 1581 532 1581 581 1581 c 128,-1,2
 630 1581 630 1581 656 1558 c 128,-1,3
 682 1535 682 1535 682 1490 c 128,-1,4
 682 1445 682 1445 647.5 1415.5 c 128,-1,5
 613 1386 613 1386 563 1386 c 128,-1,6
 513 1386 513 1386 486 1408.5 c 128,-1,7
 459 1431 459 1431 459 1475.5 c 128,-1,0
 459 1520 459 1520 495.5 1550.5 c 128,-1,1
851.5 1550.5 m 128,-1,9
 888 1581 888 1581 937 1581 c 128,-1,10
 986 1581 986 1581 1012 1558 c 128,-1,11
 1038 1535 1038 1535 1038 1490 c 128,-1,12
 1038 1445 1038 1445 1003.5 1415.5 c 128,-1,13
 969 1386 969 1386 919 1386 c 128,-1,14
 869 1386 869 1386 842 1408.5 c 128,-1,15
 815 1431 815 1431 815 1475.5 c 128,-1,8
 815 1520 815 1520 851.5 1550.5 c 128,-1,9
1169 0 m 1,16,-1
 639 0 l 1,17,-1
 647 59 l 1,18,-1
 756 55 l 2,19,20
 811 53.1034482759 811 53.1034482759 811 119 c 0,21,22
 811 157 811 157 803 184 c 2,23,-1
 739 426 l 1,24,-1
 285 426 l 1,25,-1
 162 197 l 1,26,27
 119 120 119 120 119 86.5 c 128,-1,28
 119 53 119 53 147 53 c 1,29,-1
 252 59 l 1,30,-1
 244 0 l 1,31,-1
 -104 0 l 1,32,-1
 -96 59 l 1,33,-1
 -33 55 l 1,34,35
 1 55 1 55 33.5 94 c 128,-1,36
 66 133 66 133 109 213 c 2,37,-1
 668 1243 l 1,38,-1
 727 1243 l 1,39,-1
 995 209 l 1,40,41
 1018 125 1018 125 1039 90 c 128,-1,42
 1060 55 1060 55 1098 55 c 2,43,-1
 1108 55 l 1,44,-1
 1178 59 l 1,45,-1
 1169 0 l 1,16,-1
590 991 m 1,46,-1
 315 483 l 1,47,-1
 723 483 l 1,48,-1
 590 991 l 1,46,-1
EndSplineSet
Position2: "'cpsp' Capital Spacing lookup 0 per glyph data 2" dx=10 dy=0 dh=20 dv=0
EndChar

StartChar: Agrave
Encoding: 192 192 6
Width: 1187
Flags: MW
HStem: 0 55<-33 -8 -33 244 1098 1108> 426 57<315 723 315 739 285 723> 1202 41G<668 727 727 727>
VStem: -104 1282<0 59>
LayerCount: 2
UndoRedoHistory
Layer: 1
Undoes
EndUndoes
Redoes
EndRedoes
EndUndoRedoHistory
Fore
SplineSet
506 1614 m 1,0,1
 494 1626 494 1626 494 1638 c 128,-1,2
 494 1650 494 1650 537 1671 c 128,-1,3
 580 1692 580 1692 600.5 1692 c 2,4,-1
 625 1692 l 2,5,6
 629 1692 629 1692 633 1690.5 c 128,-1,7
 637 1689 637 1689 639.5 1688.5 c 128,-1,8
 642 1688 642 1688 645.5 1685 c 128,-1,9
 649 1682 649 1682 650.5 1680.5 c 128,-1,10
 652 1679 652 1679 656 1674.5 c 128,-1,11
 660 1670 660 1670 661.5 1668 c 128,-1,12
 663 1666 663 1666 668.5 1659 c 128,-1,13
 674 1652 674 1652 676 1649 c 2,14,-1
 844 1415 l 1,15,16
 862 1386 862 1386 862 1380 c 0,17,18
 862 1364 862 1364 835.5 1364 c 128,-1,19
 809 1364 809 1364 791 1382 c 1,20,-1
 506 1614 l 1,0,1
1169 0 m 1,21,-1
 639 0 l 1,22,-1
 647 59 l 1,23,-1
 756 55 l 2,24,25
 811 53.1034482759 811 53.1034482759 811 119 c 0,26,27
 811 157 811 157 803 184 c 2,28,-1
 739 426 l 1,29,-1
 285 426 l 1,30,-1
 162 197 l 1,31,32
 119 120 119 120 119 86.5 c 128,-1,33
 119 53 119 53 147 53 c 1,34,-1
 252 59 l 1,35,-1
 244 0 l 1,36,-1
 -104 0 l 1,37,-1
 -96 59 l 1,38,-1
 -33 55 l 1,39,40
 1 55 1 55 33.5 94 c 128,-1,41
 66 133 66 133 109 213 c 2,42,-1
 668 1243 l 1,43,-1
 727 1243 l 1,44,-1
 995 209 l 1,45,46
 1018 125 1018 125 1039 90 c 128,-1,47
 1060 55 1060 55 1098 55 c 2,48,-1
 1108 55 l 1,49,-1
 1178 59 l 1,50,-1
 1169 0 l 1,21,-1
590 991 m 1,51,-1
 315 483 l 1,52,-1
 723 483 l 1,53,-1
 590 991 l 1,51,-1
EndSplineSet
Position2: "'cpsp' Capital Spacing lookup 0 per glyph data 2" dx=10 dy=0 dh=20 dv=0
EndChar

StartChar: Amacron
Encoding: 256 256 7
Width: 1187
Flags: MW
HStem: 0 55<-33 -8 -33 244 1098 1108> 426 57<315 723 315 739 285 723> 1202 41G<668 727 727 727> 1384 82<494 977 481 989>
VStem: -104 1282<0 59>
LayerCount: 2
UndoRedoHistory
Layer: 1
Undoes
EndUndoes
Redoes
EndRedoes
EndUndoRedoHistory
Fore
SplineSet
977 1384 m 1,0,-1
 481 1384 l 1,1,-1
 494 1466 l 1,2,-1
 989 1466 l 1,3,-1
 977 1384 l 1,0,-1
1169 0 m 1,4,-1
 639 0 l 1,5,-1
 647 59 l 1,6,-1
 756 55 l 2,7,8
 811 53.1034482759 811 53.1034482759 811 119 c 0,9,10
 811 157 811 157 803 184 c 2,11,-1
 739 426 l 1,12,-1
 285 426 l 1,13,-1
 162 197 l 1,14,15
 119 120 119 120 119 86.5 c 128,-1,16
 119 53 119 53 147 53 c 1,17,-1
 252 59 l 1,18,-1
 244 0 l 1,19,-1
 -104 0 l 1,20,-1
 -96 59 l 1,21,-1
 -33 55 l 1,22,23
 1 55 1 55 33.5 94 c 128,-1,24
 66 133 66 133 109 213 c 2,25,-1
 668 1243 l 1,26,-1
 727 1243 l 1,27,-1
 995 209 l 1,28,29
 1018 125 1018 125 1039 90 c 128,-1,30
 1060 55 1060 55 1098 55 c 2,31,-1
 1108 55 l 1,32,-1
 1178 59 l 1,33,-1
 1169 0 l 1,4,-1
590 991 m 1,34,-1
 315 483 l 1,35,-1
 723 483 l 1,36,-1
 590 991 l 1,34,-1
EndSplineSet
EndChar

StartChar: Aogonek
Encoding: 260 260 8
Width: 1187
Flags: MW
HStem: -326 88<1007 1144> 0 55<-33 -8 -33 244 1104 1104 1104 1108> 426 57<315 723 315 739 285 723> 1202 41G<668 727 727 727>
VStem: 911 119<-171 -163>
LayerCount: 2
UndoRedoHistory
Layer: 1
Undoes
EndUndoes
Redoes
EndRedoes
EndUndoRedoHistory
Fore
SplineSet
911 -199 m 0,0,1
 911 -79.8870967742 911 -79.8870967742 1038 0 c 1,2,-1
 639 0 l 1,3,-1
 647 59 l 1,4,-1
 756 55 l 2,5,6
 811 53.1034482759 811 53.1034482759 811 119 c 0,7,8
 811 157 811 157 803 184 c 2,9,-1
 739 426 l 1,10,-1
 285 426 l 1,11,-1
 162 197 l 1,12,13
 119 120 119 120 119 86.5 c 128,-1,14
 119 53 119 53 147 53 c 1,15,-1
 252 59 l 1,16,-1
 244 0 l 1,17,-1
 -104 0 l 1,18,-1
 -96 59 l 1,19,-1
 -33 55 l 1,20,21
 1 55 1 55 33.5 94 c 128,-1,22
 66 133 66 133 109 213 c 2,23,-1
 668 1243 l 1,24,-1
 727 1243 l 1,25,-1
 995 209 l 1,26,27
 1018 125 1018 125 1039 90 c 128,-1,28
 1060 55 1060 55 1098 55 c 2,29,-1
 1108 55 l 1,30,-1
 1178 59 l 1,31,-1
 1169 0 l 1,32,-1
 1104 0 l 1,33,34
 1030 -61 1030 -61 1030 -145 c 0,35,36
 1030 -186 1030 -186 1052.5 -212 c 128,-1,37
 1075 -238 1075 -238 1129.5 -238 c 128,-1,38
 1184 -238 1184 -238 1264 -174 c 1,39,-1
 1288 -203 l 1,40,41
 1171 -326 1171 -326 1040 -326 c 0,42,43
 986 -326 986 -326 948.5 -292.5 c 128,-1,44
 911 -259 911 -259 911 -199 c 0,0,1
723 483 m 1,45,-1
 590 991 l 1,46,-1
 315 483 l 1,47,-1
 723 483 l 1,45,-1
EndSplineSet
EndChar

StartChar: Aring
Encoding: 197 197 9
Width: 1187
Flags: MW
HStem: 0 55<-33 -8 -33 244 1098 1108> 426 57<315 723 315 739 285 723> 1202 41G<668 727 727 727> 1364 74<719 765 719 784> 1624 74<740 787>
VStem: 588 92<1496 1547 1496 1565> 827 94<1517 1567>
LayerCount: 2
UndoRedoHistory
Layer: 1
Undoes
EndUndoes
Redoes
EndRedoes
EndUndoRedoHistory
Fore
SplineSet
625 1403.5 m 128,-1,1
 588 1443 588 1443 588 1516 c 128,-1,2
 588 1589 588 1589 644 1643.5 c 128,-1,3
 700 1698 700 1698 772.5 1698 c 128,-1,4
 845 1698 845 1698 883.5 1659 c 128,-1,5
 922 1620 922 1620 922 1544.5 c 128,-1,6
 922 1469 922 1469 867.5 1416.5 c 128,-1,7
 813 1364 813 1364 737.5 1364 c 128,-1,0
 662 1364 662 1364 625 1403.5 c 128,-1,1
827 1544 m 0,8,9
 827 1624 827 1624 766 1624 c 0,10,11
 729 1624 729 1624 704.5 1593 c 128,-1,12
 680 1562 680 1562 680 1520 c 0,13,14
 680 1438 680 1438 739 1438 c 0,15,16
 776 1438 776 1438 801.5 1470 c 128,-1,17
 827 1502 827 1502 827 1544 c 0,8,9
1169 0 m 1,18,-1
 639 0 l 1,19,-1
 647 59 l 1,20,-1
 756 55 l 2,21,22
 811 53.1034482759 811 53.1034482759 811 119 c 0,23,24
 811 157 811 157 803 184 c 2,25,-1
 739 426 l 1,26,-1
 285 426 l 1,27,-1
 162 197 l 1,28,29
 119 120 119 120 119 86.5 c 128,-1,30
 119 53 119 53 147 53 c 1,31,-1
 252 59 l 1,32,-1
 244 0 l 1,33,-1
 -104 0 l 1,34,-1
 -96 59 l 1,35,-1
 -33 55 l 1,36,37
 1 55 1 55 33.5 94 c 128,-1,38
 66 133 66 133 109 213 c 2,39,-1
 668 1243 l 1,40,-1
 727 1243 l 1,41,-1
 995 209 l 1,42,43
 1018 125 1018 125 1039 90 c 128,-1,44
 1060 55 1060 55 1098 55 c 2,45,-1
 1108 55 l 1,46,-1
 1178 59 l 1,47,-1
 1169 0 l 1,18,-1
590 991 m 1,48,-1
 315 483 l 1,49,-1
 723 483 l 1,50,-1
 590 991 l 1,48,-1
EndSplineSet
Position2: "'cpsp' Capital Spacing lookup 0 per glyph data 2" dx=10 dy=0 dh=20 dv=0
EndChar

StartChar: Atilde
Encoding: 195 195 10
Width: 1187
Flags: MW
HStem: 0 55<-33 -8 -33 244 1098 1108> 426 57<315 723 315 739 285 723> 1202 41G<668 727 727 727> 1382 100<884 925> 1470 100<562 604>
VStem: 442 41<1384 1384> 1004 41<1569 1569>
LayerCount: 2
UndoRedoHistory
Layer: 1
Undoes
EndUndoes
Redoes
EndRedoes
EndUndoRedoHistory
Fore
SplineSet
442 1384 m 1,0,1
 453 1460 453 1460 498.5 1515.5 c 128,-1,2
 544 1571 544 1571 594.5 1571 c 128,-1,3
 645 1571 645 1571 765 1527 c 128,-1,4
 885 1483 885 1483 919 1483 c 128,-1,5
 953 1483 953 1483 976.5 1507.5 c 128,-1,6
 1000 1532 1000 1532 1004 1569 c 1,7,-1
 1044 1569 l 1,8,9
 1033 1492 1033 1492 988 1437 c 128,-1,10
 943 1382 943 1382 892 1382 c 128,-1,11
 841 1382 841 1382 722 1426 c 128,-1,12
 603 1470 603 1470 568.5 1470 c 128,-1,13
 534 1470 534 1470 511.5 1445.5 c 128,-1,14
 489 1421 489 1421 483 1384 c 1,15,-1
 442 1384 l 1,0,1
1169 0 m 1,16,-1
 639 0 l 1,17,-1
 647 59 l 1,18,-1
 756 55 l 2,19,20
 811 53.1034482759 811 53.1034482759 811 119 c 0,21,22
 811 157 811 157 803 184 c 2,23,-1
 739 426 l 1,24,-1
 285 426 l 1,25,-1
 162 197 l 1,26,27
 119 120 119 120 119 86.5 c 128,-1,28
 119 53 119 53 147 53 c 1,29,-1
 252 59 l 1,30,-1
 244 0 l 1,31,-1
 -104 0 l 1,32,-1
 -96 59 l 1,33,-1
 -33 55 l 1,34,35
 1 55 1 55 33.5 94 c 128,-1,36
 66 133 66 133 109 213 c 2,37,-1
 668 1243 l 1,38,-1
 727 1243 l 1,39,-1
 995 209 l 1,40,41
 1018 125 1018 125 1039 90 c 128,-1,42
 1060 55 1060 55 1098 55 c 2,43,-1
 1108 55 l 1,44,-1
 1178 59 l 1,45,-1
 1169 0 l 1,16,-1
590 991 m 1,46,-1
 315 483 l 1,47,-1
 723 483 l 1,48,-1
 590 991 l 1,46,-1
EndSplineSet
Position2: "'cpsp' Capital Spacing lookup 0 per glyph data 2" dx=10 dy=0 dh=20 dv=0
EndChar

StartChar: AE
Encoding: 198 198 11
Width: 1675
Flags: MW
HStem: 0 55<-25 -10 137 145 791 795 795 807 1071 1202 1202 1293> 426 57<385 821 385 825 344 821> 608 55<1016 1169 1016 1178> 831 41G<1352 1411 1411 1411> 907 315<1559 1591 1591 1606 670 1616 1559 1559> 1165 57<997 1317 997 997>
VStem: 810 197 831 195 1288 55<399 497> 1352 59<872 872> 1563 53
LayerCount: 2
UndoRedoHistory
Layer: 1
Undoes
EndUndoes
Redoes
EndRedoes
EndUndoRedoHistory
Fore
SplineSet
1616 907 m 1,0,-1
 1559 907 l 1,1,2
 1563 930 1563 930 1563 971 c 0,3,4
 1563 1071 1563 1071 1502.5 1118 c 128,-1,5
 1442 1165 1442 1165 1317 1165 c 2,6,-1
 997 1165 l 1,7,-1
 1016 664 l 1,8,-1
 1178 664 l 2,9,10
 1240 664 1240 664 1289.5 721.5 c 128,-1,11
 1339 779 1339 779 1352 872 c 1,12,-1
 1411 872 l 1,13,-1
 1343 399 l 1,14,-1
 1284 399 l 1,15,16
 1288 431 1288 431 1288 449 c 0,17,18
 1288 521 1288 521 1255 564.5 c 128,-1,19
 1222 608 1222 608 1169 608 c 2,20,-1
 1016 608 l 1,21,-1
 1036 94 l 1,22,23
 1043 55 1043 55 1071 55 c 2,24,-1
 1202 55 l 2,25,26
 1478 55 1478 55 1518 350 c 1,27,-1
 1577 350 l 1,28,-1
 1528 -6 l 1,29,30
 1454 0 1454 0 1352 0 c 2,31,-1
 668 0 l 1,32,-1
 676 61 l 1,33,-1
 791 55 l 1,34,-1
 795 55 l 2,35,36
 812 55 812 55 823.5 67 c 128,-1,37
 835 79 835 79 838 96 c 1,38,-1
 825 426 l 1,39,-1
 344 426 l 1,40,-1
 158 164 l 2,41,42
 123 113 123 113 123 84 c 0,43,44
 123 55 123 55 145 55 c 1,45,-1
 256 61 l 1,46,-1
 248 0 l 1,47,-1
 -104 0 l 1,48,-1
 -96 61 l 1,49,-1
 -25 55 l 1,50,51
 12 55 12 55 100 176 c 2,52,-1
 784 1112 l 2,53,54
 791 1122 791 1122 791 1131.5 c 0,55,56
 791 1141 791 1141 782.5 1151 c 128,-1,57
 774 1161 774 1161 764 1161 c 2,58,-1
 659 1157 l 1,59,-1
 670 1223 l 1,60,-1
 1591 1223 l 2,61,62
 1629 1223 1629 1223 1661 1227 c 1,63,-1
 1616 907 l 1,0,-1
385 483 m 1,64,-1
 821 483 l 1,65,-1
 799 1047 l 1,66,-1
 385 483 l 1,64,-1
EndSplineSet
Position2: "'cpsp' Capital Spacing lookup 0 per glyph data 2" dx=10 dy=0 dh=20 dv=0
EndChar

StartChar: B
Encoding: 66 66 12
Width: 1136
Flags: MW
HStem: 0 57<393 532 532 557> 612 57<446 602 455 602 602 647> 1165 57<305 313 540 545 545 659>
VStem: 850 197<285 450 250 465> 870 197<888 1027>
LayerCount: 2
UndoRedoHistory
Layer: 1
Undoes
EndUndoes
Redoes
EndRedoes
EndUndoRedoHistory
Fore
SplineSet
758 1223 m 2,0,1
 1067 1223 1067 1223 1067 975 c 0,2,3
 1067 848 1067 848 979 761.5 c 128,-1,4
 891 675 891 675 750 649 c 1,5,6
 879 649 879 649 963 570 c 128,-1,7
 1047 491 1047 491 1047 369 c 0,8,9
 1047 189 1047 189 924 94.5 c 128,-1,10
 801 0 801 0 557 0 c 2,11,-1
 37 0 l 1,12,-1
 45 59 l 1,13,-1
 147 55 l 1,14,15
 178 55 178 55 184 100 c 2,16,-1
 328 1124 l 1,17,-1
 328 1130 l 2,18,19
 328 1165 328 1165 305 1165 c 2,20,-1
 201 1161 l 1,21,-1
 209 1223 l 1,22,-1
 758 1223 l 2,0,1
545 1165 m 2,23,24
 526 1165 526 1165 520 1141 c 1,25,-1
 455 670 l 1,26,-1
 602 670 l 2,27,28
 735 670 735 670 802.5 747.5 c 128,-1,29
 870 825 870 825 870 965 c 0,30,31
 870 1060 870 1060 815.5 1112.5 c 128,-1,32
 761 1165 761 1165 659 1165 c 2,33,-1
 545 1165 l 2,23,24
373 84 m 1,34,-1
 371 76 l 1,35,36
 371 57 371 57 393 57 c 2,37,-1
 532 57 l 2,38,39
 672 57 672 57 761 146 c 128,-1,40
 850 235 850 235 850 391 c 0,41,42
 850 612 850 612 647 612 c 2,43,-1
 446 612 l 1,44,-1
 373 84 l 1,34,-1
EndSplineSet
Position2: "'cpsp' Capital Spacing lookup 0 per glyph data 2" dx=10 dy=0 dh=20 dv=0
EndChar

StartChar: C
Encoding: 67 67 13
Width: 1198
Flags: MW
HStem: -20 55<524 712> 72 270<1038 1042 1042 1057> 887 268<1115 1159 1106 1196> 1192 51<639 866>
VStem: 100 207<356 688 356 728>
LayerCount: 2
UndoRedoHistory
Layer: 1
Undoes
EndUndoes
Redoes
EndRedoes
EndUndoRedoHistory
Fore
SplineSet
1102 342 m 1,0,1
 1057 155.793103448 1057 155.793103448 1057 96 c 2,2,-1
 1057 72 l 1,3,-1
 1042 72 l 2,4,5
 988 72 988 72 922 49 c 128,-1,6
 856 26 856 26 776 3 c 128,-1,7
 696 -20 696 -20 608 -20 c 0,8,9
 368 -20 368 -20 234 119 c 128,-1,10
 100 258 100 258 100 502 c 0,11,12
 100 842 100 842 288.5 1042.5 c 128,-1,13
 477 1243 477 1243 795 1243 c 0,14,15
 922.076923077 1243 922.076923077 1243 974.538461538 1221 c 128,-1,16
 1027 1199 1027 1199 1054 1186 c 0,17,18
 1118.38461538 1155 1118.38461538 1155 1196 1155 c 1,19,20
 1157 1008 1157 1008 1157 948.5 c 128,-1,21
 1157 889 1157 889 1159 887 c 1,22,-1
 1106 887 l 1,23,24
 1097 1014 1097 1014 1003 1103 c 128,-1,25
 909 1192 909 1192 775 1192 c 128,-1,26
 641 1192 641 1192 533 1099 c 128,-1,27
 425 1006 425 1006 366 846.5 c 128,-1,28
 307 687 307 687 307 486.5 c 128,-1,29
 307 286 307 286 392 160.5 c 128,-1,30
 477 35 477 35 619 35 c 128,-1,31
 761 35 761 35 876.5 122.5 c 128,-1,32
 992 210 992 210 1038 342 c 1,33,-1
 1102 342 l 1,0,1
EndSplineSet
Position2: "'cpsp' Capital Spacing lookup 0 per glyph data 2" dx=10 dy=0 dh=20 dv=0
EndChar

StartChar: Cacute
Encoding: 262 262 14
Width: 1198
Flags: MW
HStem: -20 55<524 712> 72 270<1038 1042 1042 1057> 887 268<1115 1159 1106 1196> 1192 51<639 866>
VStem: 100 207<356 688 356 728>
LayerCount: 2
UndoRedoHistory
Layer: 1
Undoes
EndUndoes
Redoes
EndRedoes
EndUndoRedoHistory
Fore
SplineSet
874 1649 m 1,0,1
 899 1676 899 1676 911.5 1684 c 128,-1,2
 924 1692 924 1692 952 1692 c 128,-1,3
 980 1692 980 1692 1018.5 1671.5 c 128,-1,4
 1057 1651 1057 1651 1057 1640.5 c 128,-1,5
 1057 1630 1057 1630 1036 1614 c 1,6,-1
 686 1382 l 1,7,8
 662 1364 662 1364 638 1364 c 128,-1,9
 614 1364 614 1364 614 1378 c 0,10,11
 614 1386 614 1386 655 1427 c 2,12,-1
 874 1649 l 1,0,1
1102 342 m 1,13,14
 1057 155.793103448 1057 155.793103448 1057 96 c 2,15,-1
 1057 72 l 1,16,-1
 1042 72 l 2,17,18
 988 72 988 72 922 49 c 128,-1,19
 856 26 856 26 776 3 c 128,-1,20
 696 -20 696 -20 608 -20 c 0,21,22
 368 -20 368 -20 234 119 c 128,-1,23
 100 258 100 258 100 502 c 0,24,25
 100 842 100 842 288.5 1042.5 c 128,-1,26
 477 1243 477 1243 795 1243 c 0,27,28
 922.076923077 1243 922.076923077 1243 974.538461538 1221 c 128,-1,29
 1027 1199 1027 1199 1054 1186 c 0,30,31
 1118.38461538 1155 1118.38461538 1155 1196 1155 c 1,32,33
 1157 1008 1157 1008 1157 948.5 c 128,-1,34
 1157 889 1157 889 1159 887 c 1,35,-1
 1106 887 l 1,36,37
 1097 1014 1097 1014 1003 1103 c 128,-1,38
 909 1192 909 1192 775 1192 c 128,-1,39
 641 1192 641 1192 533 1099 c 128,-1,40
 425 1006 425 1006 366 846.5 c 128,-1,41
 307 687 307 687 307 486.5 c 128,-1,42
 307 286 307 286 392 160.5 c 128,-1,43
 477 35 477 35 619 35 c 128,-1,44
 761 35 761 35 876.5 122.5 c 128,-1,45
 992 210 992 210 1038 342 c 1,46,-1
 1102 342 l 1,13,14
EndSplineSet
EndChar

StartChar: Ccaron
Encoding: 268 268 15
Width: 1198
Flags: MW
HStem: -20 55<524 712> 72 270<1038 1042 1042 1057> 887 268<1115 1159 1106 1196> 1192 51<639 866>
VStem: 100 207<356 688 356 728>
LayerCount: 2
UndoRedoHistory
Layer: 1
Undoes
EndUndoes
Redoes
EndRedoes
EndUndoRedoHistory
Fore
SplineSet
485 1671 m 0,0,1
 485 1688 485 1688 508.5 1688 c 128,-1,2
 532 1688 532 1688 567 1663 c 1,3,-1
 766 1513 l 1,4,-1
 1012 1663 l 1,5,6
 1057 1688 1057 1688 1075.5 1688 c 128,-1,7
 1094 1688 1094 1688 1094 1673 c 0,8,9
 1094 1666 1094 1666 1071.5 1648 c 0,10,11
 966.413793103 1563.93103448 966.413793103 1563.93103448 918 1518 c 2,12,-1
 815 1419 l 2,13,14
 761 1368 761 1368 746 1368 c 128,-1,15
 731 1368 731 1368 692 1419 c 2,16,-1
 618 1518 l 2,17,18
 576 1574 576 1574 530.5 1619.5 c 128,-1,19
 485 1665 485 1665 485 1671 c 0,0,1
1102 342 m 1,20,21
 1057 155.793103448 1057 155.793103448 1057 96 c 2,22,-1
 1057 72 l 1,23,-1
 1042 72 l 2,24,25
 988 72 988 72 922 49 c 128,-1,26
 856 26 856 26 776 3 c 128,-1,27
 696 -20 696 -20 608 -20 c 0,28,29
 368 -20 368 -20 234 119 c 128,-1,30
 100 258 100 258 100 502 c 0,31,32
 100 842 100 842 288.5 1042.5 c 128,-1,33
 477 1243 477 1243 795 1243 c 0,34,35
 922.076923077 1243 922.076923077 1243 974.538461538 1221 c 128,-1,36
 1027 1199 1027 1199 1054 1186 c 0,37,38
 1118.38461538 1155 1118.38461538 1155 1196 1155 c 1,39,40
 1157 1008 1157 1008 1157 948.5 c 128,-1,41
 1157 889 1157 889 1159 887 c 1,42,-1
 1106 887 l 1,43,44
 1097 1014 1097 1014 1003 1103 c 128,-1,45
 909 1192 909 1192 775 1192 c 128,-1,46
 641 1192 641 1192 533 1099 c 128,-1,47
 425 1006 425 1006 366 846.5 c 128,-1,48
 307 687 307 687 307 486.5 c 128,-1,49
 307 286 307 286 392 160.5 c 128,-1,50
 477 35 477 35 619 35 c 128,-1,51
 761 35 761 35 876.5 122.5 c 128,-1,52
 992 210 992 210 1038 342 c 1,53,-1
 1102 342 l 1,20,21
EndSplineSet
EndChar

StartChar: Ccedilla
Encoding: 199 199 16
Width: 1198
Flags: MW
HStem: -438 55<435 439 394 521> -55 41G<512 512> -20 55<582 608 582 582> 72 270<1038 1042 1042 1057> 887 268<1115 1159 1106 1196> 1192 51<639 866>
VStem: 100 207<356 688 356 728> 414 100<-140 -131> 526 139<-294 -251>
LayerCount: 2
UndoRedoHistory
Layer: 1
Undoes
EndUndoes
Redoes
EndRedoes
EndUndoRedoHistory
Fore
SplineSet
1102 342 m 1,0,1
 1057 155.793103448 1057 155.793103448 1057 96 c 2,2,-1
 1057 72 l 1,3,-1
 1042 72 l 2,4,5
 988 72 988 72 922 49 c 128,-1,6
 856 26 856 26 776 3 c 128,-1,7
 696 -20 696 -20 608 -20 c 2,8,-1
 582 -20 l 1,9,-1
 532 -88 l 2,10,11
 514 -112 514 -112 514 -128 c 128,-1,12
 514 -144 514 -144 538 -153 c 128,-1,13
 562 -162 562 -162 590 -167.5 c 128,-1,14
 618 -173 618 -173 642 -191.5 c 128,-1,15
 666 -210 666 -210 666 -240 c 0,16,17
 666 -325 666 -325 609 -381.5 c 128,-1,18
 552 -438 552 -438 456.5 -438 c 128,-1,19
 361 -438 361 -438 317 -406 c 1,20,-1
 342 -350 l 1,21,22
 362 -383 362 -383 408.5 -383 c 128,-1,23
 455 -383 455 -383 490.5 -348 c 128,-1,24
 526 -313 526 -313 526 -271.5 c 128,-1,25
 526 -230 526 -230 475 -193 c 2,26,-1
 434 -164 l 2,27,28
 414 -151 414 -151 414 -136 c 128,-1,29
 414 -121 414 -121 432 -106 c 1,30,-1
 512 -14 l 1,31,32
 316 14 316 14 208 149 c 128,-1,33
 100 284 100 284 100 502 c 0,34,35
 100 842 100 842 288.5 1042.5 c 128,-1,36
 477 1243 477 1243 795 1243 c 0,37,38
 922.076923077 1243 922.076923077 1243 974.538461538 1221 c 128,-1,39
 1027 1199 1027 1199 1054 1186 c 0,40,41
 1118.38461538 1155 1118.38461538 1155 1196 1155 c 1,42,43
 1157 1008 1157 1008 1157 948.5 c 128,-1,44
 1157 889 1157 889 1159 887 c 1,45,-1
 1106 887 l 1,46,47
 1097 1014 1097 1014 1003 1103 c 128,-1,48
 909 1192 909 1192 775 1192 c 128,-1,49
 641 1192 641 1192 533 1099 c 128,-1,50
 425 1006 425 1006 366 846.5 c 128,-1,51
 307 687 307 687 307 486.5 c 128,-1,52
 307 286 307 286 392 160.5 c 128,-1,53
 477 35 477 35 619 35 c 128,-1,54
 761 35 761 35 876.5 122.5 c 128,-1,55
 992 210 992 210 1038 342 c 1,56,-1
 1102 342 l 1,0,1
EndSplineSet
Position2: "'cpsp' Capital Spacing lookup 0 per glyph data 2" dx=10 dy=0 dh=20 dv=0
EndChar

StartChar: D
Encoding: 68 68 17
Width: 1255
Flags: MW
HStem: 0 57<369 459 459 508> 1165 57<281 290 518 524 524 614>
VStem: 997 207<697 906>
LayerCount: 2
UndoRedoHistory
Layer: 1
Undoes
EndUndoes
Redoes
EndRedoes
EndUndoRedoHistory
Fore
SplineSet
655 1223 m 2,0,1
 933 1223 933 1223 1068.5 1109 c 128,-1,2
 1204 995 1204 995 1204 741 c 0,3,4
 1204 383 1204 383 1031.5 191.5 c 128,-1,5
 859 0 859 0 508 0 c 2,6,-1
 37 0 l 1,7,-1
 45 59 l 1,8,-1
 133 55 l 1,9,10
 159 55 159 55 166 100 c 2,11,-1
 309 1122 l 1,12,-1
 309 1133 l 2,13,14
 309 1165 309 1165 281 1165 c 1,15,-1
 201 1161 l 1,16,-1
 209 1223 l 1,17,-1
 655 1223 l 2,0,1
352 84 m 1,18,-1
 350 76 l 1,19,20
 350 57 350 57 369 57 c 2,21,-1
 459 57 l 2,22,23
 692.333333333 57 692.333333333 57 802 151 c 0,24,25
 902.938271605 237.518518519 902.938271605 237.518518519 949.969135802 411.259259259 c 128,-1,26
 997 585 997 585 997 781 c 128,-1,27
 997 977 997 977 906.5 1071 c 128,-1,28
 816 1165 816 1165 614 1165 c 2,29,-1
 524 1165 l 2,30,31
 503 1165 503 1165 500 1139 c 2,32,-1
 352 84 l 1,18,-1
EndSplineSet
Position2: "'cpsp' Capital Spacing lookup 0 per glyph data 2" dx=10 dy=0 dh=20 dv=0
EndChar

StartChar: Eth
Encoding: 208 208 18
Width: 1255
Flags: MW
HStem: 0 57<369 459 459 508> 600 74<115 236 104 246 434 801> 1165 57<281 290 518 524 524 614>
VStem: 997 207<697 906>
LayerCount: 2
UndoRedoHistory
Layer: 1
Undoes
EndUndoes
Redoes
EndRedoes
EndUndoRedoHistory
Fore
SplineSet
655 1223 m 2,0,1
 933 1223 933 1223 1068.5 1109 c 128,-1,2
 1204 995 1204 995 1204 741 c 0,3,4
 1204 383 1204 383 1031.5 191.5 c 128,-1,5
 859 0 859 0 508 0 c 2,6,-1
 37 0 l 1,7,-1
 45 59 l 1,8,-1
 133 55 l 1,9,10
 159 55 159 55 166 100 c 2,11,-1
 236 600 l 1,12,-1
 104 600 l 1,13,-1
 115 674 l 1,14,-1
 246 674 l 1,15,-1
 309 1122 l 1,16,-1
 309 1133 l 2,17,18
 309 1165 309 1165 281 1165 c 1,19,-1
 201 1161 l 1,20,-1
 209 1223 l 1,21,-1
 655 1223 l 2,0,1
352 84 m 1,22,-1
 350 76 l 1,23,24
 350 57 350 57 369 57 c 2,25,-1
 459 57 l 2,26,27
 692.333333333 57 692.333333333 57 802 151 c 0,28,29
 902.938271605 237.518518519 902.938271605 237.518518519 949.969135802 411.259259259 c 128,-1,30
 997 585 997 585 997 781 c 128,-1,31
 997 977 997 977 906.5 1071 c 128,-1,32
 816 1165 816 1165 614 1165 c 2,33,-1
 524 1165 l 2,34,35
 503 1165 503 1165 500 1139 c 2,36,-1
 434 674 l 1,37,-1
 811 674 l 1,38,-1
 801 600 l 1,39,-1
 424 600 l 1,40,-1
 352 84 l 1,22,-1
EndSplineSet
Position2: "'cpsp' Capital Spacing lookup 0 per glyph data 2" dx=10 dy=0 dh=20 dv=0
EndChar

StartChar: Dcaron
Encoding: 270 270 19
Width: 1255
Flags: MW
HStem: 0 57<369 459 459 508> 1165 57<281 290 518 524 524 614>
VStem: 997 207<697 906>
LayerCount: 2
UndoRedoHistory
Layer: 1
Undoes
EndUndoes
Redoes
EndRedoes
EndUndoRedoHistory
Fore
SplineSet
1022 1663 m 1,0,1
 1067 1688 1067 1688 1085.5 1688 c 128,-1,2
 1104 1688 1104 1688 1104 1673 c 0,3,4
 1104 1666 1104 1666 1081.5 1648 c 0,5,6
 976.413793103 1563.93103448 976.413793103 1563.93103448 928 1518 c 2,7,-1
 825 1419 l 2,8,9
 771 1368 771 1368 756 1368 c 128,-1,10
 741 1368 741 1368 702 1419 c 1,11,-1
 629 1518 l 2,12,13
 587 1574 587 1574 541.5 1619.5 c 128,-1,14
 496 1665 496 1665 496 1671 c 0,15,16
 496 1688 496 1688 519.5 1688 c 128,-1,17
 543 1688 543 1688 578 1663 c 1,18,-1
 776 1513 l 1,19,-1
 1022 1663 l 1,0,1
655 1223 m 2,20,21
 933 1223 933 1223 1068.5 1109 c 128,-1,22
 1204 995 1204 995 1204 741 c 0,23,24
 1204 383 1204 383 1031.5 191.5 c 128,-1,25
 859 0 859 0 508 0 c 2,26,-1
 37 0 l 1,27,-1
 45 59 l 1,28,-1
 133 55 l 1,29,30
 159 55 159 55 166 100 c 2,31,-1
 309 1122 l 1,32,-1
 309 1133 l 2,33,34
 309 1165 309 1165 281 1165 c 1,35,-1
 201 1161 l 1,36,-1
 209 1223 l 1,37,-1
 655 1223 l 2,20,21
352 84 m 1,38,-1
 350 76 l 1,39,40
 350 57 350 57 369 57 c 2,41,-1
 459 57 l 2,42,43
 692.333333333 57 692.333333333 57 802 151 c 0,44,45
 902.938271605 237.518518519 902.938271605 237.518518519 949.969135802 411.259259259 c 128,-1,46
 997 585 997 585 997 781 c 128,-1,47
 997 977 997 977 906.5 1071 c 128,-1,48
 816 1165 816 1165 614 1165 c 2,49,-1
 524 1165 l 2,50,51
 503 1165 503 1165 500 1139 c 2,52,-1
 352 84 l 1,38,-1
EndSplineSet
EndChar

StartChar: Dcroat
Encoding: 272 272 20
Width: 1255
Flags: MW
HStem: 0 57<369 459 459 508> 600 74<115 236 104 246 434 801> 1165 57<281 290 518 524 524 614>
VStem: 997 207<697 906>
LayerCount: 2
UndoRedoHistory
Layer: 1
Undoes
EndUndoes
Redoes
EndRedoes
EndUndoRedoHistory
Fore
SplineSet
655 1223 m 2,0,1
 933 1223 933 1223 1068.5 1109 c 128,-1,2
 1204 995 1204 995 1204 741 c 0,3,4
 1204 383 1204 383 1031.5 191.5 c 128,-1,5
 859 0 859 0 508 0 c 2,6,-1
 37 0 l 1,7,-1
 45 59 l 1,8,-1
 133 55 l 1,9,10
 159 55 159 55 166 100 c 2,11,-1
 236 600 l 1,12,-1
 104 600 l 1,13,-1
 115 674 l 1,14,-1
 246 674 l 1,15,-1
 309 1122 l 1,16,-1
 309 1133 l 2,17,18
 309 1165 309 1165 281 1165 c 1,19,-1
 201 1161 l 1,20,-1
 209 1223 l 1,21,-1
 655 1223 l 2,0,1
352 84 m 1,22,-1
 350 76 l 1,23,24
 350 57 350 57 369 57 c 2,25,-1
 459 57 l 2,26,27
 692.333333333 57 692.333333333 57 802 151 c 0,28,29
 902.938271605 237.518518519 902.938271605 237.518518519 949.969135802 411.259259259 c 128,-1,30
 997 585 997 585 997 781 c 128,-1,31
 997 977 997 977 906.5 1071 c 128,-1,32
 816 1165 816 1165 614 1165 c 2,33,-1
 524 1165 l 2,34,35
 503 1165 503 1165 500 1139 c 2,36,-1
 434 674 l 1,37,-1
 811 674 l 1,38,-1
 801 600 l 1,39,-1
 424 600 l 1,40,-1
 352 84 l 1,22,-1
EndSplineSet
EndChar

StartChar: E
Encoding: 69 69 21
Width: 1116
Flags: MW
HStem: 0 57<369 647 647 735> 608 57<434 610 426 618> 831 41G<793 854 854 854> 907 315<977 1036 977 977> 1165 57<279 289 518 524 524 737>
VStem: 793 61<872 872> 983 53
LayerCount: 2
UndoRedoHistory
Layer: 1
Undoes
EndUndoes
Redoes
EndRedoes
EndUndoRedoHistory
Fore
SplineSet
1036 907 m 1,0,-1
 977 907 l 1,1,2
 983 944 983 944 983 973 c 0,3,4
 983 1074 983 1074 923.5 1119.5 c 128,-1,5
 864 1165 864 1165 737 1165 c 2,6,-1
 524 1165 l 2,7,8
 503 1165 503 1165 500 1137 c 2,9,-1
 434 666 l 1,10,-1
 618 666 l 2,11,12
 683 666 683 666 731.5 721 c 128,-1,13
 780 776 780 776 793 872 c 1,14,-1
 854 872 l 1,15,-1
 786 399 l 1,16,-1
 725 399 l 1,17,18
 729 431 729 431 729 446 c 0,19,20
 729 517 729 517 695 562.5 c 128,-1,21
 661 608 661 608 610 608 c 2,22,-1
 426 608 l 1,23,-1
 352 84 l 1,24,-1
 352 78 l 2,25,26
 352 57 352 57 369 57 c 2,27,-1
 647 57 l 2,28,29
 779 57 779 57 860 137 c 128,-1,30
 941 217 941 217 961 367 c 1,31,-1
 1020 367 l 1,32,-1
 969 -6 l 1,33,34
 922 0 922 0 793 0 c 2,35,-1
 37 0 l 1,36,-1
 45 61 l 1,37,-1
 127 55 l 1,38,39
 160 55 160 55 166 100 c 2,40,-1
 309 1122 l 1,41,-1
 309 1133 l 2,42,43
 309 1165 309 1165 279 1165 c 1,44,-1
 201 1161 l 1,45,-1
 209 1223 l 1,46,-1
 1044 1223 l 2,47,48
 1071 1223 1071 1223 1081 1227 c 1,49,-1
 1036 907 l 1,0,-1
EndSplineSet
Position2: "'cpsp' Capital Spacing lookup 0 per glyph data 2" dx=10 dy=0 dh=20 dv=0
EndChar

StartChar: Eacute
Encoding: 201 201 22
Width: 1116
Flags: MW
HStem: 0 57<369 647 647 735> 608 57<434 610 426 618> 831 41G<793 854 854 854> 907 315<977 977 977 1036> 1165 57<279 289 518 524 524 737>
VStem: 793 61<872 872> 983 53
LayerCount: 2
UndoRedoHistory
Layer: 1
Undoes
EndUndoes
Redoes
EndRedoes
EndUndoRedoHistory
Fore
SplineSet
823 1649 m 1,0,1
 848 1676 848 1676 860.5 1684 c 128,-1,2
 873 1692 873 1692 901 1692 c 0,3,4
 929 1692 929 1692 967.5 1671.5 c 128,-1,5
 1006 1651 1006 1651 1006 1640.5 c 0,6,7
 1006 1630 1006 1630 985 1614 c 1,8,-1
 635 1382 l 1,9,10
 611 1364 611 1364 587 1364 c 0,11,12
 563 1364 563 1364 563 1378 c 0,13,14
 563 1386 563 1386 604 1427 c 2,15,-1
 823 1649 l 1,0,1
977 907 m 1,16,17
 983 944 983 944 983 973 c 0,18,19
 983 1074 983 1074 923.5 1119.5 c 128,-1,20
 864 1165 864 1165 737 1165 c 2,21,-1
 524 1165 l 2,22,23
 503 1165 503 1165 500 1137 c 2,24,-1
 434 666 l 1,25,-1
 618 666 l 2,26,27
 683 666 683 666 731.5 721 c 128,-1,28
 780 776 780 776 793 872 c 1,29,-1
 854 872 l 1,30,-1
 786 399 l 1,31,-1
 725 399 l 1,32,33
 729 431 729 431 729 446 c 0,34,35
 729 517 729 517 695 562.5 c 128,-1,36
 661 608 661 608 610 608 c 2,37,-1
 426 608 l 1,38,-1
 352 84 l 1,39,-1
 352 78 l 2,40,41
 352 57 352 57 369 57 c 2,42,-1
 647 57 l 2,43,44
 779 57 779 57 860 137 c 128,-1,45
 941 217 941 217 961 367 c 1,46,-1
 1020 367 l 1,47,-1
 969 -6 l 1,48,49
 922 0 922 0 793 0 c 2,50,-1
 37 0 l 1,51,-1
 45 61 l 1,52,-1
 127 55 l 1,53,54
 160 55 160 55 166 100 c 2,55,-1
 309 1122 l 1,56,-1
 309 1133 l 2,57,58
 309 1165 309 1165 279 1165 c 1,59,-1
 201 1161 l 1,60,-1
 209 1223 l 1,61,-1
 1044 1223 l 2,62,63
 1071 1223 1071 1223 1081 1227 c 1,64,-1
 1036 907 l 1,65,-1
 977 907 l 1,16,17
EndSplineSet
Position2: "'cpsp' Capital Spacing lookup 0 per glyph data 2" dx=10 dy=0 dh=20 dv=0
EndChar

StartChar: Ecaron
Encoding: 282 282 23
Width: 1116
Flags: MW
HStem: 0 57<369 647 647 735> 608 57<434 610 426 618> 831 41G<793 854 854 854> 907 315<977 977 977 1036> 1165 57<279 289 518 524 524 737>
VStem: 793 61<872 872> 983 53
LayerCount: 2
UndoRedoHistory
Layer: 1
Undoes
EndUndoes
Redoes
EndRedoes
EndUndoRedoHistory
Fore
SplineSet
434 1671 m 0,0,1
 434 1688 434 1688 457.5 1688 c 128,-1,2
 481 1688 481 1688 516 1663 c 1,3,-1
 715 1513 l 1,4,-1
 961 1663 l 1,5,6
 1006 1688 1006 1688 1024 1688 c 128,-1,7
 1042 1688 1042 1688 1042 1673 c 0,8,9
 1042 1666 1042 1666 1019.5 1648 c 0,10,11
 914.413793103 1563.93103448 914.413793103 1563.93103448 866 1518 c 2,12,-1
 764 1419 l 1,13,14
 710 1368 710 1368 695 1368 c 128,-1,15
 680 1368 680 1368 641 1419 c 2,16,-1
 567 1518 l 2,17,18
 525 1574 525 1574 479.5 1619.5 c 128,-1,19
 434 1665 434 1665 434 1671 c 0,0,1
977 907 m 1,20,21
 983 944 983 944 983 973 c 0,22,23
 983 1074 983 1074 923.5 1119.5 c 128,-1,24
 864 1165 864 1165 737 1165 c 2,25,-1
 524 1165 l 2,26,27
 503 1165 503 1165 500 1137 c 2,28,-1
 434 666 l 1,29,-1
 618 666 l 2,30,31
 683 666 683 666 731.5 721 c 128,-1,32
 780 776 780 776 793 872 c 1,33,-1
 854 872 l 1,34,-1
 786 399 l 1,35,-1
 725 399 l 1,36,37
 729 431 729 431 729 446 c 0,38,39
 729 517 729 517 695 562.5 c 128,-1,40
 661 608 661 608 610 608 c 2,41,-1
 426 608 l 1,42,-1
 352 84 l 1,43,-1
 352 78 l 2,44,45
 352 57 352 57 369 57 c 2,46,-1
 647 57 l 2,47,48
 779 57 779 57 860 137 c 128,-1,49
 941 217 941 217 961 367 c 1,50,-1
 1020 367 l 1,51,-1
 969 -6 l 1,52,53
 922 0 922 0 793 0 c 2,54,-1
 37 0 l 1,55,-1
 45 61 l 1,56,-1
 127 55 l 1,57,58
 160 55 160 55 166 100 c 2,59,-1
 309 1122 l 1,60,-1
 309 1133 l 2,61,62
 309 1165 309 1165 279 1165 c 1,63,-1
 201 1161 l 1,64,-1
 209 1223 l 1,65,-1
 1044 1223 l 2,66,67
 1071 1223 1071 1223 1081 1227 c 1,68,-1
 1036 907 l 1,69,-1
 977 907 l 1,20,21
EndSplineSet
EndChar

StartChar: Ecircumflex
Encoding: 202 202 24
Width: 1116
Flags: MW
HStem: 0 57<369 647 647 735> 608 57<434 610 426 618> 831 41G<793 854 854 854> 907 315<977 977 977 1036> 1165 57<279 289 518 524 524 737>
VStem: 793 61<872 872> 983 53
LayerCount: 2
UndoRedoHistory
Layer: 1
Undoes
EndUndoes
Redoes
EndRedoes
EndUndoRedoHistory
Fore
SplineSet
475 1389 m 1,0,1
 430 1364 430 1364 411.5 1364 c 128,-1,2
 393 1364 393 1364 393 1374.5 c 128,-1,3
 393 1385 393 1385 415.5 1403.5 c 128,-1,4
 438 1422 438 1422 484 1459.5 c 128,-1,5
 530 1497 530 1497 569 1534 c 2,6,-1
 672 1632 l 2,7,8
 726 1683 726 1683 741 1683 c 128,-1,9
 756 1683 756 1683 795 1632 c 2,10,-1
 868 1534 l 2,11,12
 904.909090909 1483.09090909 904.909090909 1483.09090909 952.954545455 1435.04545455 c 128,-1,13
 1001 1387 1001 1387 1001 1380 c 0,14,15
 1001 1364 1001 1364 978 1364 c 128,-1,16
 955 1364 955 1364 920 1389 c 2,17,-1
 721 1538 l 1,18,-1
 475 1389 l 1,0,1
977 907 m 1,19,20
 983 944 983 944 983 973 c 0,21,22
 983 1074 983 1074 923.5 1119.5 c 128,-1,23
 864 1165 864 1165 737 1165 c 2,24,-1
 524 1165 l 2,25,26
 503 1165 503 1165 500 1137 c 2,27,-1
 434 666 l 1,28,-1
 618 666 l 2,29,30
 683 666 683 666 731.5 721 c 128,-1,31
 780 776 780 776 793 872 c 1,32,-1
 854 872 l 1,33,-1
 786 399 l 1,34,-1
 725 399 l 1,35,36
 729 431 729 431 729 446 c 0,37,38
 729 517 729 517 695 562.5 c 128,-1,39
 661 608 661 608 610 608 c 2,40,-1
 426 608 l 1,41,-1
 352 84 l 1,42,-1
 352 78 l 2,43,44
 352 57 352 57 369 57 c 2,45,-1
 647 57 l 2,46,47
 779 57 779 57 860 137 c 128,-1,48
 941 217 941 217 961 367 c 1,49,-1
 1020 367 l 1,50,-1
 969 -6 l 1,51,52
 922 0 922 0 793 0 c 2,53,-1
 37 0 l 1,54,-1
 45 61 l 1,55,-1
 127 55 l 1,56,57
 160 55 160 55 166 100 c 2,58,-1
 309 1122 l 1,59,-1
 309 1133 l 2,60,61
 309 1165 309 1165 279 1165 c 1,62,-1
 201 1161 l 1,63,-1
 209 1223 l 1,64,-1
 1044 1223 l 2,65,66
 1071 1223 1071 1223 1081 1227 c 1,67,-1
 1036 907 l 1,68,-1
 977 907 l 1,19,20
EndSplineSet
Position2: "'cpsp' Capital Spacing lookup 0 per glyph data 2" dx=10 dy=0 dh=20 dv=0
EndChar

StartChar: Edieresis
Encoding: 203 203 25
Width: 1116
Flags: MW
HStem: 0 57<369 647 647 735> 608 57<434 610 426 618> 831 41G<793 854 854 854> 907 315<977 977 977 1036> 1165 57<279 289 518 524 524 737> 1386 195<516 559 872 915>
VStem: 424 223<1462 1504> 780 223<1462 1504> 793 61<872 872> 983 53
LayerCount: 2
UndoRedoHistory
Layer: 1
Undoes
EndUndoes
Redoes
EndRedoes
EndUndoRedoHistory
Fore
SplineSet
460.5 1550.5 m 128,-1,1
 497 1581 497 1581 546 1581 c 128,-1,2
 595 1581 595 1581 621 1558 c 128,-1,3
 647 1535 647 1535 647 1490 c 128,-1,4
 647 1445 647 1445 612.5 1415.5 c 128,-1,5
 578 1386 578 1386 528 1386 c 128,-1,6
 478 1386 478 1386 451 1408.5 c 128,-1,7
 424 1431 424 1431 424 1475.5 c 128,-1,0
 424 1520 424 1520 460.5 1550.5 c 128,-1,1
816.5 1550.5 m 128,-1,9
 853 1581 853 1581 902 1581 c 128,-1,10
 951 1581 951 1581 977.5 1558 c 128,-1,11
 1004 1535 1004 1535 1004 1490 c 128,-1,12
 1004 1445 1004 1445 969.5 1415.5 c 128,-1,13
 935 1386 935 1386 885 1386 c 128,-1,14
 835 1386 835 1386 807.5 1408.5 c 128,-1,15
 780 1431 780 1431 780 1475.5 c 128,-1,8
 780 1520 780 1520 816.5 1550.5 c 128,-1,9
977 907 m 1,16,17
 983 944 983 944 983 973 c 0,18,19
 983 1074 983 1074 923.5 1119.5 c 128,-1,20
 864 1165 864 1165 737 1165 c 2,21,-1
 524 1165 l 2,22,23
 503 1165 503 1165 500 1137 c 2,24,-1
 434 666 l 1,25,-1
 618 666 l 2,26,27
 683 666 683 666 731.5 721 c 128,-1,28
 780 776 780 776 793 872 c 1,29,-1
 854 872 l 1,30,-1
 786 399 l 1,31,-1
 725 399 l 1,32,33
 729 431 729 431 729 446 c 0,34,35
 729 517 729 517 695 562.5 c 128,-1,36
 661 608 661 608 610 608 c 2,37,-1
 426 608 l 1,38,-1
 352 84 l 1,39,-1
 352 78 l 2,40,41
 352 57 352 57 369 57 c 2,42,-1
 647 57 l 2,43,44
 779 57 779 57 860 137 c 128,-1,45
 941 217 941 217 961 367 c 1,46,-1
 1020 367 l 1,47,-1
 969 -6 l 1,48,49
 922 0 922 0 793 0 c 2,50,-1
 37 0 l 1,51,-1
 45 61 l 1,52,-1
 127 55 l 1,53,54
 160 55 160 55 166 100 c 2,55,-1
 309 1122 l 1,56,-1
 309 1133 l 2,57,58
 309 1165 309 1165 279 1165 c 1,59,-1
 201 1161 l 1,60,-1
 209 1223 l 1,61,-1
 1044 1223 l 2,62,63
 1071 1223 1071 1223 1081 1227 c 1,64,-1
 1036 907 l 1,65,-1
 977 907 l 1,16,17
EndSplineSet
Position2: "'cpsp' Capital Spacing lookup 0 per glyph data 2" dx=10 dy=0 dh=20 dv=0
EndChar

StartChar: Edotaccent
Encoding: 278 278 26
Width: 1116
Flags: MW
HStem: 0 57<369 647 647 735> 608 57<434 610 426 618> 831 41G<793 854 854 854> 907 315<977 977 977 1036> 1165 57<279 289 518 524 524 737> 1389 195<692 735>
VStem: 600 223<1464 1506> 793 61<872 872> 983 53
LayerCount: 2
UndoRedoHistory
Layer: 1
Undoes
EndUndoes
Redoes
EndRedoes
EndUndoRedoHistory
Fore
SplineSet
636.5 1553 m 128,-1,1
 673 1583 673 1583 722 1583 c 128,-1,2
 771 1583 771 1583 797 1560 c 128,-1,3
 823 1537 823 1537 823 1492 c 128,-1,4
 823 1447 823 1447 789 1418 c 128,-1,5
 755 1389 755 1389 704.5 1389 c 128,-1,6
 654 1389 654 1389 627 1411.5 c 128,-1,7
 600 1434 600 1434 600 1478.5 c 128,-1,0
 600 1523 600 1523 636.5 1553 c 128,-1,1
977 907 m 1,8,9
 983 944 983 944 983 973 c 0,10,11
 983 1074 983 1074 923.5 1119.5 c 128,-1,12
 864 1165 864 1165 737 1165 c 2,13,-1
 524 1165 l 2,14,15
 503 1165 503 1165 500 1137 c 2,16,-1
 434 666 l 1,17,-1
 618 666 l 2,18,19
 683 666 683 666 731.5 721 c 128,-1,20
 780 776 780 776 793 872 c 1,21,-1
 854 872 l 1,22,-1
 786 399 l 1,23,-1
 725 399 l 1,24,25
 729 431 729 431 729 446 c 0,26,27
 729 517 729 517 695 562.5 c 128,-1,28
 661 608 661 608 610 608 c 2,29,-1
 426 608 l 1,30,-1
 352 84 l 1,31,-1
 352 78 l 2,32,33
 352 57 352 57 369 57 c 2,34,-1
 647 57 l 2,35,36
 779 57 779 57 860 137 c 128,-1,37
 941 217 941 217 961 367 c 1,38,-1
 1020 367 l 1,39,-1
 969 -6 l 1,40,41
 922 0 922 0 793 0 c 2,42,-1
 37 0 l 1,43,-1
 45 61 l 1,44,-1
 127 55 l 1,45,46
 160 55 160 55 166 100 c 2,47,-1
 309 1122 l 1,48,-1
 309 1133 l 2,49,50
 309 1165 309 1165 279 1165 c 1,51,-1
 201 1161 l 1,52,-1
 209 1223 l 1,53,-1
 1044 1223 l 2,54,55
 1071 1223 1071 1223 1081 1227 c 1,56,-1
 1036 907 l 1,57,-1
 977 907 l 1,8,9
EndSplineSet
EndChar

StartChar: Egrave
Encoding: 200 200 27
Width: 1116
Flags: MW
HStem: 0 57<369 647 647 735> 608 57<434 610 426 618> 831 41G<793 854 854 854> 907 315<977 977 977 1036> 1165 57<279 289 518 524 524 737>
VStem: 793 61<872 872> 983 53
LayerCount: 2
UndoRedoHistory
Layer: 1
Undoes
EndUndoes
Redoes
EndRedoes
EndUndoRedoHistory
Fore
SplineSet
471 1614 m 1,0,1
 459 1626 459 1626 459 1638 c 128,-1,2
 459 1650 459 1650 502 1671 c 128,-1,3
 545 1692 545 1692 567 1692 c 128,-1,4
 589 1692 589 1692 593.5 1691.5 c 128,-1,5
 598 1691 598 1691 603 1689 c 0,6,7
 614.071428571 1684.57142857 614.071428571 1684.57142857 619.535714286 1677.28571429 c 128,-1,8
 625 1670 625 1670 631.5 1661.5 c 128,-1,9
 638 1653 638 1653 641 1649 c 2,10,-1
 809 1415 l 1,11,12
 827 1386 827 1386 827 1380 c 0,13,14
 827 1364 827 1364 800.5 1364 c 128,-1,15
 774 1364 774 1364 756 1382 c 1,16,-1
 471 1614 l 1,0,1
977 907 m 1,17,18
 983 944 983 944 983 973 c 0,19,20
 983 1074 983 1074 923.5 1119.5 c 128,-1,21
 864 1165 864 1165 737 1165 c 2,22,-1
 524 1165 l 2,23,24
 503 1165 503 1165 500 1137 c 2,25,-1
 434 666 l 1,26,-1
 618 666 l 2,27,28
 683 666 683 666 731.5 721 c 128,-1,29
 780 776 780 776 793 872 c 1,30,-1
 854 872 l 1,31,-1
 786 399 l 1,32,-1
 725 399 l 1,33,34
 729 431 729 431 729 446 c 0,35,36
 729 517 729 517 695 562.5 c 128,-1,37
 661 608 661 608 610 608 c 2,38,-1
 426 608 l 1,39,-1
 352 84 l 1,40,-1
 352 78 l 2,41,42
 352 57 352 57 369 57 c 2,43,-1
 647 57 l 2,44,45
 779 57 779 57 860 137 c 128,-1,46
 941 217 941 217 961 367 c 1,47,-1
 1020 367 l 1,48,-1
 969 -6 l 1,49,50
 922 0 922 0 793 0 c 2,51,-1
 37 0 l 1,52,-1
 45 61 l 1,53,-1
 127 55 l 1,54,55
 160 55 160 55 166 100 c 2,56,-1
 309 1122 l 1,57,-1
 309 1133 l 2,58,59
 309 1165 309 1165 279 1165 c 1,60,-1
 201 1161 l 1,61,-1
 209 1223 l 1,62,-1
 1044 1223 l 2,63,64
 1071 1223 1071 1223 1081 1227 c 1,65,-1
 1036 907 l 1,66,-1
 977 907 l 1,17,18
EndSplineSet
Position2: "'cpsp' Capital Spacing lookup 0 per glyph data 2" dx=10 dy=0 dh=20 dv=0
EndChar

StartChar: Emacron
Encoding: 274 274 28
Width: 1116
Flags: MW
HStem: 0 57<369 647 647 735> 608 57<434 610 426 618> 831 41G<793 854 854 854> 907 315<977 977 977 1036> 1165 57<279 289 518 524 524 737> 1384 82<459 942 446 954>
VStem: 793 61<872 872> 983 53
LayerCount: 2
UndoRedoHistory
Layer: 1
Undoes
EndUndoes
Redoes
EndRedoes
EndUndoRedoHistory
Fore
SplineSet
942 1384 m 1,0,-1
 446 1384 l 1,1,-1
 459 1466 l 1,2,-1
 954 1466 l 1,3,-1
 942 1384 l 1,0,-1
977 907 m 1,4,5
 983 944 983 944 983 973 c 0,6,7
 983 1074 983 1074 923.5 1119.5 c 128,-1,8
 864 1165 864 1165 737 1165 c 2,9,-1
 524 1165 l 2,10,11
 503 1165 503 1165 500 1137 c 2,12,-1
 434 666 l 1,13,-1
 618 666 l 2,14,15
 683 666 683 666 731.5 721 c 128,-1,16
 780 776 780 776 793 872 c 1,17,-1
 854 872 l 1,18,-1
 786 399 l 1,19,-1
 725 399 l 1,20,21
 729 431 729 431 729 446 c 0,22,23
 729 517 729 517 695 562.5 c 128,-1,24
 661 608 661 608 610 608 c 2,25,-1
 426 608 l 1,26,-1
 352 84 l 1,27,-1
 352 78 l 2,28,29
 352 57 352 57 369 57 c 2,30,-1
 647 57 l 2,31,32
 779 57 779 57 860 137 c 128,-1,33
 941 217 941 217 961 367 c 1,34,-1
 1020 367 l 1,35,-1
 969 -6 l 1,36,37
 922 0 922 0 793 0 c 2,38,-1
 37 0 l 1,39,-1
 45 61 l 1,40,-1
 127 55 l 1,41,42
 160 55 160 55 166 100 c 2,43,-1
 309 1122 l 1,44,-1
 309 1133 l 2,45,46
 309 1165 309 1165 279 1165 c 1,47,-1
 201 1161 l 1,48,-1
 209 1223 l 1,49,-1
 1044 1223 l 2,50,51
 1071 1223 1071 1223 1081 1227 c 1,52,-1
 1036 907 l 1,53,-1
 977 907 l 1,4,5
EndSplineSet
EndChar

StartChar: Eogonek
Encoding: 280 280 29
Width: 1116
Flags: MW
HStem: -326 88<734 871> 0 57<369 647 647 735> 608 57<434 610 426 618> 831 41G<793 854 854 854> 907 315<977 977 977 1036> 1165 57<279 289 518 524 524 737>
VStem: 639 119<-171 -163> 793 61<872 872> 983 53
LayerCount: 2
UndoRedoHistory
Layer: 1
Undoes
EndUndoes
Redoes
EndRedoes
EndUndoRedoHistory
Fore
SplineSet
639 -199 m 0,0,1
 639 -79.8870967742 639 -79.8870967742 766 0 c 1,2,-1
 37 0 l 1,3,-1
 45 61 l 1,4,-1
 127 55 l 1,5,6
 160 55 160 55 166 100 c 2,7,-1
 309 1122 l 1,8,-1
 309 1133 l 2,9,10
 309 1165 309 1165 279 1165 c 1,11,-1
 201 1161 l 1,12,-1
 209 1223 l 1,13,-1
 1044 1223 l 2,14,15
 1071 1223 1071 1223 1081 1227 c 1,16,-1
 1036 907 l 1,17,-1
 977 907 l 1,18,19
 983 944 983 944 983 973 c 0,20,21
 983 1074 983 1074 923.5 1119.5 c 128,-1,22
 864 1165 864 1165 737 1165 c 2,23,-1
 524 1165 l 2,24,25
 503 1165 503 1165 500 1137 c 2,26,-1
 434 666 l 1,27,-1
 618 666 l 2,28,29
 683 666 683 666 731.5 721 c 128,-1,30
 780 776 780 776 793 872 c 1,31,-1
 854 872 l 1,32,-1
 786 399 l 1,33,-1
 725 399 l 1,34,35
 729 431 729 431 729 446 c 0,36,37
 729 517 729 517 695 562.5 c 128,-1,38
 661 608 661 608 610 608 c 2,39,-1
 426 608 l 1,40,-1
 352 84 l 1,41,-1
 352 78 l 2,42,43
 352 57 352 57 369 57 c 2,44,-1
 647 57 l 2,45,46
 779 57 779 57 860 137 c 128,-1,47
 941 217 941 217 961 367 c 1,48,-1
 1020 367 l 1,49,-1
 969 -6 l 1,50,51
 928 0 928 0 831 0 c 1,52,53
 758 -60 758 -60 758 -145 c 0,54,55
 758 -186 758 -186 780.5 -212 c 128,-1,56
 803 -238 803 -238 857 -238 c 128,-1,57
 911 -238 911 -238 991 -174 c 1,58,-1
 1016 -203 l 1,59,60
 899 -326 899 -326 768 -326 c 0,61,62
 714 -326 714 -326 676.5 -292.5 c 128,-1,63
 639 -259 639 -259 639 -199 c 0,0,1
EndSplineSet
EndChar

StartChar: F
Encoding: 70 70 30
Width: 1050
Flags: MW
HStem: 0 55<127 137 375 383> 588 57<430 567 424 575> 907 315<997 1057 997 997> 1165 57<285 293 518 524 524 756>
VStem: 696 55<383 480> 760 59<854 854> 1004 53
LayerCount: 2
UndoRedoHistory
Layer: 1
Undoes
EndUndoes
Redoes
EndRedoes
EndUndoRedoHistory
Fore
SplineSet
1057 907 m 1,0,-1
 997 907 l 1,1,2
 1004 951 1004 951 1004 973 c 0,3,4
 1004 1072 1004 1072 944 1118.5 c 128,-1,5
 884 1165 884 1165 756 1165 c 2,6,-1
 524 1165 l 2,7,8
 503 1165 503 1165 500 1139 c 2,9,-1
 430 645 l 1,10,-1
 575 645 l 2,11,12
 645 645 645 645 696 701 c 128,-1,13
 747 757 747 757 760 854 c 1,14,-1
 819 854 l 1,15,-1
 752 383 l 1,16,-1
 692 383 l 1,17,18
 696 415 696 415 696 432 c 0,19,20
 696 504 696 504 661.5 546 c 128,-1,21
 627 588 627 588 567 588 c 2,22,-1
 424 588 l 1,23,-1
 354 98 l 1,24,-1
 354 90 l 2,25,26
 354 75 354 75 362.5 65 c 128,-1,27
 371 55 371 55 383 55 c 2,28,-1
 489 61 l 1,29,-1
 481 0 l 1,30,-1
 37 0 l 1,31,-1
 45 61 l 1,32,-1
 127 55 l 1,33,34
 160 55 160 55 166 100 c 2,35,-1
 309 1122 l 1,36,-1
 309 1135 l 2,37,38
 309 1165 309 1165 285 1165 c 1,39,-1
 201 1161 l 1,40,-1
 209 1223 l 1,41,-1
 1069 1223 l 2,42,43
 1092 1223 1092 1223 1102 1227 c 1,44,-1
 1057 907 l 1,0,-1
EndSplineSet
Position2: "'cpsp' Capital Spacing lookup 0 per glyph data 2" dx=10 dy=0 dh=20 dv=0
EndChar

StartChar: G
Encoding: 71 71 31
Width: 1282
Flags: MW
HStem: -20 55<525 684 525 741> 502 55<907 918 1155 1165> 887 268<1149 1161 1075 1198> 1192 51<650 869>
VStem: 100 205<321 700 312 732> 1085 76<887 1038>
LayerCount: 2
UndoRedoHistory
Layer: 1
Undoes
EndUndoes
Redoes
EndRedoes
EndUndoRedoHistory
Fore
SplineSet
1071 72 m 1,0,1
 1059 74 1059 74 1038.5 74 c 128,-1,2
 1018 74 1018 74 978 59.5 c 128,-1,3
 938 45 938 45 896 27 c 0,4,5
 786.333333333 -20 786.333333333 -20 610 -20 c 0,6,7
 365 -20 365 -20 232.5 109.5 c 128,-1,8
 100 239 100 239 100 489 c 0,9,10
 100 851 100 851 283.5 1047 c 128,-1,11
 467 1243 467 1243 797 1243 c 0,12,13
 970 1243 970 1243 1058 1199 c 128,-1,14
 1146 1155 1146 1155 1198 1155 c 1,15,16
 1186 1113 1186 1113 1173 1025 c 128,-1,17
 1160 937 1160 937 1161 887 c 1,18,-1
 1075 887 l 1,19,20
 1085 912 1085 912 1085 956 c 0,21,22
 1085 1074 1085 1074 1002.5 1133 c 128,-1,23
 920 1192 920 1192 800.5 1192 c 128,-1,24
 681 1192 681 1192 595.5 1144.5 c 128,-1,25
 510 1097 510 1097 445 1007.5 c 0,26,27
 305 814.730769231 305 814.730769231 305 459 c 0,28,29
 305 244 305 244 388 139.5 c 128,-1,30
 471 35 471 35 627 35 c 0,31,32
 716 35 716 35 773 55 c 128,-1,33
 830 75 830 75 889 129 c 1,34,-1
 936 457 l 1,35,-1
 936 471 l 2,36,37
 936 502 936 502 907 502 c 2,38,-1
 788 498 l 1,39,-1
 797 557 l 1,40,-1
 1260 557 l 1,41,-1
 1251 498 l 1,42,-1
 1165 502 l 2,43,44
 1150 502 1150 502 1139 489 c 128,-1,45
 1128 476 1128 476 1126 459 c 2,46,-1
 1071 72 l 1,0,1
EndSplineSet
Position2: "'cpsp' Capital Spacing lookup 0 per glyph data 2" dx=10 dy=0 dh=20 dv=0
EndChar

StartChar: Gbreve
Encoding: 286 286 32
Width: 1282
Flags: MW
HStem: -20 55<525 684 525 741> 502 55<907 918 1155 1165> 887 268<1149 1161 1075 1198> 1192 51<650 869> 1364 102<700 805 700 817>
VStem: 100 205<321 700 312 732> 518 90<1618 1618> 1085 76<887 1038>
LayerCount: 2
UndoRedoHistory
Layer: 1
Undoes
EndUndoes
Redoes
EndRedoes
EndUndoRedoHistory
Fore
SplineSet
608 1618 m 1,0,1
 619.692307692 1466 619.692307692 1466 754 1466 c 0,2,3
 824 1466 824 1466 872.5 1510 c 128,-1,4
 921 1554 921 1554 944 1618 c 1,5,-1
 1032 1618 l 1,6,7
 1003 1501 1003 1501 927.5 1432.5 c 128,-1,8
 852 1364 852 1364 739.5 1364 c 128,-1,9
 627 1364 627 1364 571 1432.5 c 128,-1,10
 515 1501 515 1501 518 1618 c 1,11,-1
 608 1618 l 1,0,1
1071 72 m 1,12,13
 1059 74 1059 74 1038.5 74 c 128,-1,14
 1018 74 1018 74 978 59.5 c 128,-1,15
 938 45 938 45 896 27 c 0,16,17
 786.333333333 -20 786.333333333 -20 610 -20 c 0,18,19
 365 -20 365 -20 232.5 109.5 c 128,-1,20
 100 239 100 239 100 489 c 0,21,22
 100 851 100 851 283.5 1047 c 128,-1,23
 467 1243 467 1243 797 1243 c 0,24,25
 970 1243 970 1243 1058 1199 c 128,-1,26
 1146 1155 1146 1155 1198 1155 c 1,27,28
 1186 1113 1186 1113 1173 1025 c 128,-1,29
 1160 937 1160 937 1161 887 c 1,30,-1
 1075 887 l 1,31,32
 1085 912 1085 912 1085 956 c 0,33,34
 1085 1074 1085 1074 1002.5 1133 c 128,-1,35
 920 1192 920 1192 800.5 1192 c 128,-1,36
 681 1192 681 1192 595.5 1144.5 c 128,-1,37
 510 1097 510 1097 445 1007.5 c 0,38,39
 305 814.730769231 305 814.730769231 305 459 c 0,40,41
 305 244 305 244 388 139.5 c 128,-1,42
 471 35 471 35 627 35 c 0,43,44
 716 35 716 35 773 55 c 128,-1,45
 830 75 830 75 889 129 c 1,46,-1
 936 457 l 1,47,-1
 936 471 l 2,48,49
 936 502 936 502 907 502 c 2,50,-1
 788 498 l 1,51,-1
 797 557 l 1,52,-1
 1260 557 l 1,53,-1
 1251 498 l 1,54,-1
 1165 502 l 2,55,56
 1150 502 1150 502 1139 489 c 128,-1,57
 1128 476 1128 476 1126 459 c 2,58,-1
 1071 72 l 1,12,13
EndSplineSet
EndChar

StartChar: Gcommaaccent
Encoding: 290 290 33
Width: 1282
Flags: MW
HStem: -227 158<504 611> -20 55<525 684 525 741> 502 55<907 918 1155 1165> 887 268<1149 1161 1075 1198> 1192 51<650 869>
VStem: 100 205<321 700 312 732> 569 115 1085 76<887 1038>
LayerCount: 2
UndoRedoHistory
Layer: 1
Undoes
EndUndoes
Redoes
EndRedoes
EndUndoRedoHistory
Fore
SplineSet
1071 72 m 1,0,1
 1059 74 1059 74 1038.5 74 c 128,-1,2
 1018 74 1018 74 978 59.5 c 128,-1,3
 938 45 938 45 896 27 c 0,4,5
 786.333333333 -20 786.333333333 -20 610 -20 c 0,6,7
 365 -20 365 -20 232.5 109.5 c 128,-1,8
 100 239 100 239 100 489 c 0,9,10
 100 851 100 851 283.5 1047 c 128,-1,11
 467 1243 467 1243 797 1243 c 0,12,13
 970 1243 970 1243 1058 1199 c 128,-1,14
 1146 1155 1146 1155 1198 1155 c 1,15,16
 1186 1113 1186 1113 1173 1025 c 128,-1,17
 1160 937 1160 937 1161 887 c 1,18,-1
 1075 887 l 1,19,20
 1085 912 1085 912 1085 956 c 0,21,22
 1085 1074 1085 1074 1002.5 1133 c 128,-1,23
 920 1192 920 1192 800.5 1192 c 128,-1,24
 681 1192 681 1192 595.5 1144.5 c 128,-1,25
 510 1097 510 1097 445 1007.5 c 0,26,27
 305 814.730769231 305 814.730769231 305 459 c 0,28,29
 305 244 305 244 388 139.5 c 128,-1,30
 471 35 471 35 627 35 c 0,31,32
 716 35 716 35 773 55 c 128,-1,33
 830 75 830 75 889 129 c 1,34,-1
 936 457 l 1,35,-1
 936 471 l 2,36,37
 936 502 936 502 907 502 c 2,38,-1
 788 498 l 1,39,-1
 797 557 l 1,40,-1
 1260 557 l 1,41,-1
 1251 498 l 1,42,-1
 1165 502 l 2,43,44
 1150 502 1150 502 1139 489 c 128,-1,45
 1128 476 1128 476 1126 459 c 2,46,-1
 1071 72 l 1,0,1
453 -410 m 1,47,48
 497 -386 497 -386 531.5 -350 c 128,-1,49
 566 -314 566 -314 569 -287 c 0,50,51
 577 -227 577 -227 520 -227 c 0,52,53
 496 -227 496 -227 481.5 -209.5 c 128,-1,54
 467 -192 467 -192 467 -160.5 c 128,-1,55
 467 -129 467 -129 496.5 -99.5 c 128,-1,56
 526 -70 526 -70 576.5 -70 c 128,-1,57
 627 -70 627 -70 655.5 -101.5 c 128,-1,58
 684 -133 684 -133 684 -178 c 0,59,60
 684 -260 684 -260 623 -330 c 128,-1,61
 562 -400 562 -400 481 -436 c 1,62,-1
 453 -410 l 1,47,48
EndSplineSet
EndChar

StartChar: H
Encoding: 72 72 34
Width: 1380
Flags: MW
HStem: 0 55<125 136 375 385 889 901 1138 1147> 602 57<432 999 424 1008> 1165 57<281 281 529 541 1044 1056 1291 1303>
VStem: 37 1356<0 1223>
LayerCount: 2
UndoRedoHistory
Layer: 1
Undoes
EndUndoes
Redoes
EndRedoes
EndUndoRedoHistory
Fore
SplineSet
309 1122 m 1,0,-1
 311 1135 l 1,1,2
 311 1150 311 1150 304 1158 c 128,-1,3
 297 1166 297 1166 281 1165 c 2,4,-1
 201 1161 l 1,5,-1
 209 1223 l 1,6,-1
 649 1223 l 1,7,-1
 641 1161 l 1,8,-1
 541 1165 l 1,9,10
 504 1165 504 1165 498 1122 c 2,11,-1
 432 659 l 1,12,-1
 1008 659 l 1,13,-1
 1073 1122 l 1,14,-1
 1073 1133 l 2,15,16
 1073 1165 1073 1165 1044 1165 c 1,17,-1
 944 1161 l 1,18,-1
 952 1223 l 1,19,-1
 1393 1223 l 1,20,-1
 1384 1161 l 1,21,-1
 1303 1165 l 1,22,23
 1270 1165 1270 1165 1264 1122 c 2,24,-1
 1120 100 l 1,25,-1
 1120 86 l 2,26,27
 1120 55 1120 55 1147 55 c 1,28,-1
 1229 59 l 1,29,-1
 1221 0 l 1,30,-1
 780 0 l 1,31,-1
 788 59 l 1,32,-1
 889 55 l 1,33,34
 924 55 924 55 930 100 c 2,35,-1
 999 602 l 1,36,-1
 424 602 l 1,37,-1
 354 100 l 1,38,-1
 354 90 l 2,39,40
 354 55 354 55 385 55 c 1,41,-1
 485 59 l 1,42,-1
 477 0 l 1,43,-1
 37 0 l 1,44,-1
 45 59 l 1,45,-1
 125 55 l 1,46,47
 160 55 160 55 166 100 c 2,48,-1
 309 1122 l 1,0,-1
EndSplineSet
Position2: "'cpsp' Capital Spacing lookup 0 per glyph data 2" dx=10 dy=0 dh=20 dv=0
EndChar

StartChar: I
Encoding: 73 73 35
Width: 616
Flags: MW
HStem: 0 55<125 136 375 385> 1165 57<281 290 529 541>
VStem: 37 592
LayerCount: 2
UndoRedoHistory
Layer: 1
Undoes
EndUndoes
Redoes
EndRedoes
EndUndoRedoHistory
Fore
SplineSet
621 1161 m 1,0,-1
 541 1165 l 1,1,2
 504 1165 504 1165 498 1122 c 2,3,-1
 354 100 l 1,4,-1
 354 90 l 2,5,6
 354 55 354 55 385 55 c 1,7,-1
 465 59 l 1,8,-1
 457 0 l 1,9,-1
 37 0 l 1,10,-1
 45 59 l 1,11,-1
 125 55 l 1,12,13
 160 55 160 55 166 100 c 2,14,-1
 309 1122 l 1,15,-1
 309 1133 l 2,16,17
 309 1165 309 1165 281 1165 c 1,18,-1
 201 1161 l 1,19,-1
 209 1223 l 1,20,-1
 629 1223 l 1,21,-1
 621 1161 l 1,0,-1
EndSplineSet
Position2: "'cpsp' Capital Spacing lookup 0 per glyph data 2" dx=10 dy=0 dh=20 dv=0
EndChar

StartChar: IJ
Encoding: 306 306 36
Width: 1511
Flags: MW
HStem: -20 53<855 949 822 1020> 0 55<125 136 375 385> 10 342<660 699> 1165 57<281 290 529 541 1188 1196 1436 1448>
VStem: 37 1495<0 1223>
LayerCount: 2
UndoRedoHistory
Layer: 1
Undoes
EndUndoes
Redoes
EndRedoes
EndUndoRedoHistory
Fore
SplineSet
541 1165 m 1,0,1
 504 1165 504 1165 498 1122 c 2,2,-1
 354 100 l 1,3,-1
 354 90 l 2,4,5
 354 55 354 55 385 55 c 1,6,-1
 465 59 l 1,7,-1
 457 0 l 1,8,-1
 37 0 l 1,9,-1
 45 59 l 1,10,-1
 125 55 l 1,11,12
 160 55 160 55 166 100 c 2,13,-1
 309 1122 l 1,14,-1
 309 1133 l 2,15,16
 309 1165 309 1165 281 1165 c 1,17,-1
 201 1161 l 1,18,-1
 209 1223 l 1,19,-1
 629 1223 l 1,20,-1
 621 1161 l 1,21,-1
 541 1165 l 1,0,1
1524 1161 m 1,22,-1
 1448 1165 l 1,23,24
 1412 1165 1412 1165 1405 1124 c 1,25,-1
 1298 367 l 2,26,27
 1243 -20 1243 -20 911 -20 c 0,28,29
 847 -20 847 -20 769.5 -5 c 128,-1,30
 692 10 692 10 661 10 c 0,31,32
 630 10 630 10 600 -8 c 1,33,-1
 651 352 l 1,34,-1
 727 352 l 1,35,36
 721 315 721 315 721 262 c 0,37,38
 721 209 721 209 734.5 158.5 c 128,-1,39
 748 108 748 108 787 70.5 c 128,-1,40
 826 33 826 33 887 33 c 0,41,42
 981 33 981 33 1031.5 108.5 c 128,-1,43
 1082 184 1082 184 1108 367 c 2,44,-1
 1214 1122 l 1,45,-1
 1214 1133 l 2,46,47
 1214 1165 1214 1165 1188 1165 c 2,48,-1
 1047 1161 l 1,49,-1
 1055 1223 l 1,50,-1
 1532 1223 l 1,51,-1
 1524 1161 l 1,22,-1
EndSplineSet
Position2: "'cpsp' Capital Spacing lookup 0 per glyph data 2" dx=10 dy=0 dh=20 dv=0
EndChar

StartChar: Iacute
Encoding: 205 205 37
Width: 616
Flags: MW
HStem: 0 55<125 136 375 385> 1165 57<281 290 529 541>
VStem: 37 705
LayerCount: 2
UndoRedoHistory
Layer: 1
Undoes
EndUndoes
Redoes
EndRedoes
EndUndoRedoHistory
Fore
SplineSet
559 1649 m 1,0,1
 584 1676 584 1676 596.5 1684 c 128,-1,2
 609 1692 609 1692 637 1692 c 0,3,4
 665 1692 665 1692 703 1671.5 c 128,-1,5
 741 1651 741 1651 741 1640 c 0,6,7
 741 1629 741 1629 721 1614 c 1,8,-1
 371 1382 l 1,9,10
 347 1364 347 1364 323 1364 c 0,11,12
 299 1364 299 1364 299 1378 c 0,13,14
 299 1386 299 1386 340 1427 c 2,15,-1
 559 1649 l 1,0,1
541 1165 m 1,16,17
 504 1165 504 1165 498 1122 c 2,18,-1
 354 100 l 1,19,-1
 354 90 l 2,20,21
 354 55 354 55 385 55 c 1,22,-1
 465 59 l 1,23,-1
 457 0 l 1,24,-1
 37 0 l 1,25,-1
 45 59 l 1,26,-1
 125 55 l 1,27,28
 160 55 160 55 166 100 c 2,29,-1
 309 1122 l 1,30,-1
 309 1133 l 2,31,32
 309 1165 309 1165 281 1165 c 1,33,-1
 201 1161 l 1,34,-1
 209 1223 l 1,35,-1
 629 1223 l 1,36,-1
 621 1161 l 1,37,-1
 541 1165 l 1,16,17
EndSplineSet
Position2: "'cpsp' Capital Spacing lookup 0 per glyph data 2" dx=10 dy=0 dh=20 dv=0
EndChar

StartChar: Icircumflex
Encoding: 206 206 38
Width: 616
Flags: MW
HStem: 0 55<125 136 375 385> 1165 57<281 290 529 541>
VStem: 37 700
LayerCount: 2
UndoRedoHistory
Layer: 1
Undoes
EndUndoes
Redoes
EndRedoes
EndUndoRedoHistory
Fore
SplineSet
211 1389 m 1,0,1
 166 1364 166 1364 147.5 1364 c 128,-1,2
 129 1364 129 1364 129 1374.5 c 128,-1,3
 129 1385 129 1385 151.5 1403.5 c 128,-1,4
 174 1422 174 1422 220 1459.5 c 128,-1,5
 266 1497 266 1497 305 1534 c 2,6,-1
 408 1632 l 2,7,8
 462 1683 462 1683 476.5 1683 c 128,-1,9
 491 1683 491 1683 530 1632 c 2,10,-1
 604 1534 l 1,11,12
 640.909090909 1483.09090909 640.909090909 1483.09090909 688.954545455 1435.04545455 c 128,-1,13
 737 1387 737 1387 737 1380 c 0,14,15
 737 1364 737 1364 713.5 1364 c 128,-1,16
 690 1364 690 1364 655 1389 c 1,17,-1
 457 1538 l 1,18,-1
 211 1389 l 1,0,1
541 1165 m 1,19,20
 504 1165 504 1165 498 1122 c 2,21,-1
 354 100 l 1,22,-1
 354 90 l 2,23,24
 354 55 354 55 385 55 c 1,25,-1
 465 59 l 1,26,-1
 457 0 l 1,27,-1
 37 0 l 1,28,-1
 45 59 l 1,29,-1
 125 55 l 1,30,31
 160 55 160 55 166 100 c 2,32,-1
 309 1122 l 1,33,-1
 309 1133 l 2,34,35
 309 1165 309 1165 281 1165 c 1,36,-1
 201 1161 l 1,37,-1
 209 1223 l 1,38,-1
 629 1223 l 1,39,-1
 621 1161 l 1,40,-1
 541 1165 l 1,19,20
EndSplineSet
Position2: "'cpsp' Capital Spacing lookup 0 per glyph data 2" dx=10 dy=0 dh=20 dv=0
EndChar

StartChar: Idieresis
Encoding: 207 207 39
Width: 616
Flags: MW
HStem: 0 55<125 136 375 385> 1165 57<281 290 529 541> 1386 195<252 295 608 651>
VStem: 160 223<1462 1504> 516 223<1462 1504>
LayerCount: 2
UndoRedoHistory
Layer: 1
Undoes
EndUndoes
Redoes
EndRedoes
EndUndoRedoHistory
Fore
SplineSet
196.5 1550.5 m 128,-1,1
 233 1581 233 1581 282 1581 c 128,-1,2
 331 1581 331 1581 357 1558 c 128,-1,3
 383 1535 383 1535 383 1490 c 128,-1,4
 383 1445 383 1445 348.5 1415.5 c 128,-1,5
 314 1386 314 1386 264 1386 c 128,-1,6
 214 1386 214 1386 187 1408.5 c 128,-1,7
 160 1431 160 1431 160 1475.5 c 128,-1,0
 160 1520 160 1520 196.5 1550.5 c 128,-1,1
552.5 1550.5 m 128,-1,9
 589 1581 589 1581 638 1581 c 128,-1,10
 687 1581 687 1581 713 1558 c 128,-1,11
 739 1535 739 1535 739 1490 c 128,-1,12
 739 1445 739 1445 704.5 1415.5 c 128,-1,13
 670 1386 670 1386 620 1386 c 128,-1,14
 570 1386 570 1386 543 1408.5 c 128,-1,15
 516 1431 516 1431 516 1475.5 c 128,-1,8
 516 1520 516 1520 552.5 1550.5 c 128,-1,9
541 1165 m 1,16,17
 504 1165 504 1165 498 1122 c 2,18,-1
 354 100 l 1,19,-1
 354 90 l 2,20,21
 354 55 354 55 385 55 c 1,22,-1
 465 59 l 1,23,-1
 457 0 l 1,24,-1
 37 0 l 1,25,-1
 45 59 l 1,26,-1
 125 55 l 1,27,28
 160 55 160 55 166 100 c 2,29,-1
 309 1122 l 1,30,-1
 309 1133 l 2,31,32
 309 1165 309 1165 281 1165 c 1,33,-1
 201 1161 l 1,34,-1
 209 1223 l 1,35,-1
 629 1223 l 1,36,-1
 621 1161 l 1,37,-1
 541 1165 l 1,16,17
EndSplineSet
Position2: "'cpsp' Capital Spacing lookup 0 per glyph data 2" dx=10 dy=0 dh=20 dv=0
EndChar

StartChar: Idotaccent
Encoding: 304 304 40
Width: 616
Flags: MW
HStem: 0 55<125 136 375 385> 1165 57<281 290 529 541> 1389 195<428 471>
VStem: 336 223<1464 1506>
LayerCount: 2
UndoRedoHistory
Layer: 1
Undoes
EndUndoes
Redoes
EndRedoes
EndUndoRedoHistory
Fore
SplineSet
372.5 1553 m 128,-1,1
 409 1583 409 1583 458 1583 c 128,-1,2
 507 1583 507 1583 533 1560 c 128,-1,3
 559 1537 559 1537 559 1492 c 128,-1,4
 559 1447 559 1447 525 1418 c 128,-1,5
 491 1389 491 1389 440.5 1389 c 128,-1,6
 390 1389 390 1389 363 1411.5 c 128,-1,7
 336 1434 336 1434 336 1478.5 c 128,-1,0
 336 1523 336 1523 372.5 1553 c 128,-1,1
541 1165 m 1,8,9
 504 1165 504 1165 498 1122 c 2,10,-1
 354 100 l 1,11,-1
 354 90 l 2,12,13
 354 55 354 55 385 55 c 1,14,-1
 465 59 l 1,15,-1
 457 0 l 1,16,-1
 37 0 l 1,17,-1
 45 59 l 1,18,-1
 125 55 l 1,19,20
 160 55 160 55 166 100 c 2,21,-1
 309 1122 l 1,22,-1
 309 1133 l 2,23,24
 309 1165 309 1165 281 1165 c 1,25,-1
 201 1161 l 1,26,-1
 209 1223 l 1,27,-1
 629 1223 l 1,28,-1
 621 1161 l 1,29,-1
 541 1165 l 1,8,9
EndSplineSet
EndChar

StartChar: Igrave
Encoding: 204 204 41
Width: 616
Flags: MW
HStem: 0 55<125 136 375 385> 1165 57<281 290 529 541>
VStem: 37 592
LayerCount: 2
UndoRedoHistory
Layer: 1
Undoes
EndUndoes
Redoes
EndRedoes
EndUndoRedoHistory
Fore
SplineSet
207 1614 m 1,0,1
 195 1626 195 1626 195 1638 c 128,-1,2
 195 1650 195 1650 238 1671 c 128,-1,3
 281 1692 281 1692 301.5 1692 c 2,4,-1
 326 1692 l 2,5,6
 330 1692 330 1692 334 1690.5 c 128,-1,7
 338 1689 338 1689 340.5 1688.5 c 128,-1,8
 343 1688 343 1688 346.5 1685 c 128,-1,9
 350 1682 350 1682 351.5 1680.5 c 128,-1,10
 353 1679 353 1679 357 1674.5 c 128,-1,11
 361 1670 361 1670 362.5 1668 c 128,-1,12
 364 1666 364 1666 369.5 1659 c 128,-1,13
 375 1652 375 1652 377 1649 c 2,14,-1
 545 1415 l 1,15,16
 563 1386 563 1386 563 1380 c 0,17,18
 563 1364 563 1364 536.5 1364 c 128,-1,19
 510 1364 510 1364 492 1382 c 1,20,-1
 207 1614 l 1,0,1
541 1165 m 1,21,22
 504 1165 504 1165 498 1122 c 2,23,-1
 354 100 l 1,24,-1
 354 90 l 2,25,26
 354 55 354 55 385 55 c 1,27,-1
 465 59 l 1,28,-1
 457 0 l 1,29,-1
 37 0 l 1,30,-1
 45 59 l 1,31,-1
 125 55 l 1,32,33
 160 55 160 55 166 100 c 2,34,-1
 309 1122 l 1,35,-1
 309 1133 l 2,36,37
 309 1165 309 1165 281 1165 c 1,38,-1
 201 1161 l 1,39,-1
 209 1223 l 1,40,-1
 629 1223 l 1,41,-1
 621 1161 l 1,42,-1
 541 1165 l 1,21,22
EndSplineSet
Position2: "'cpsp' Capital Spacing lookup 0 per glyph data 2" dx=10 dy=0 dh=20 dv=0
EndChar

StartChar: Imacron
Encoding: 298 298 42
Width: 616
Flags: MW
HStem: 0 55<125 136 375 385> 1165 57<281 290 529 541> 1384 82<195 678 182 690>
VStem: 37 653
LayerCount: 2
UndoRedoHistory
Layer: 1
Undoes
EndUndoes
Redoes
EndRedoes
EndUndoRedoHistory
Fore
SplineSet
678 1384 m 1,0,-1
 182 1384 l 1,1,-1
 195 1466 l 1,2,-1
 690 1466 l 1,3,-1
 678 1384 l 1,0,-1
541 1165 m 1,4,5
 504 1165 504 1165 498 1122 c 2,6,-1
 354 100 l 1,7,-1
 354 90 l 2,8,9
 354 55 354 55 385 55 c 1,10,-1
 465 59 l 1,11,-1
 457 0 l 1,12,-1
 37 0 l 1,13,-1
 45 59 l 1,14,-1
 125 55 l 1,15,16
 160 55 160 55 166 100 c 2,17,-1
 309 1122 l 1,18,-1
 309 1133 l 2,19,20
 309 1165 309 1165 281 1165 c 1,21,-1
 201 1161 l 1,22,-1
 209 1223 l 1,23,-1
 629 1223 l 1,24,-1
 621 1161 l 1,25,-1
 541 1165 l 1,4,5
EndSplineSet
EndChar

StartChar: Iogonek
Encoding: 302 302 43
Width: 616
Flags: MW
HStem: -326 88<247 384> 0 55<125 136 125 279 375 385> 1165 57<281 290 529 541>
VStem: 152 119<-171 -163>
LayerCount: 2
UndoRedoHistory
Layer: 1
Undoes
EndUndoes
Redoes
EndRedoes
EndUndoRedoHistory
Fore
SplineSet
152 -199 m 0,0,1
 152 -79.8870967742 152 -79.8870967742 279 0 c 1,2,-1
 37 0 l 1,3,-1
 45 59 l 1,4,-1
 125 55 l 1,5,6
 160 55 160 55 166 100 c 2,7,-1
 309 1122 l 1,8,-1
 309 1133 l 2,9,10
 309 1165 309 1165 281 1165 c 1,11,-1
 201 1161 l 1,12,-1
 209 1223 l 1,13,-1
 629 1223 l 1,14,-1
 621 1161 l 1,15,-1
 541 1165 l 1,16,17
 504 1165 504 1165 498 1122 c 2,18,-1
 354 100 l 1,19,-1
 354 90 l 2,20,21
 354 55 354 55 385 55 c 1,22,-1
 465 59 l 1,23,-1
 457 0 l 1,24,-1
 344 0 l 1,25,26
 270 -61 270 -61 270 -145 c 0,27,28
 270 -186 270 -186 292.5 -212 c 128,-1,29
 315 -238 315 -238 369.5 -238 c 128,-1,30
 424 -238 424 -238 504 -174 c 1,31,-1
 528 -203 l 1,32,33
 411 -326 411 -326 281 -326 c 0,34,35
 227 -326 227 -326 189.5 -292.5 c 128,-1,36
 152 -259 152 -259 152 -199 c 0,0,1
EndSplineSet
EndChar

StartChar: J
Encoding: 74 74 44
Width: 894
Flags: MW
HStem: -20 53<239 333 206 403> 10 342<44 83> 1165 57<571 580 819 831>
VStem: -16 932
LayerCount: 2
UndoRedoHistory
Layer: 1
Undoes
EndUndoes
Redoes
EndRedoes
EndUndoRedoHistory
Fore
SplineSet
907 1161 m 1,0,-1
 831 1165 l 1,1,2
 795 1165 795 1165 788 1124 c 1,3,-1
 682 367 l 2,4,5
 627 -20 627 -20 295 -20 c 0,6,7
 231 -20 231 -20 153 -5 c 128,-1,8
 75 10 75 10 44.5 10 c 0,9,10
 14 10 14 10 -16 -8 c 1,11,-1
 35 352 l 1,12,-1
 111 352 l 1,13,14
 104 308 104 308 104 258.5 c 0,15,16
 104 209 104 209 117.5 158.5 c 128,-1,17
 131 108 131 108 170 70.5 c 128,-1,18
 209 33 209 33 270 33 c 0,19,20
 364 33 364 33 415 108.5 c 128,-1,21
 466 184 466 184 492 367 c 2,22,-1
 598 1122 l 1,23,-1
 598 1133 l 2,24,25
 598 1165 598 1165 571 1165 c 2,26,-1
 430 1161 l 1,27,-1
 438 1223 l 1,28,-1
 915 1223 l 1,29,-1
 907 1161 l 1,0,-1
EndSplineSet
Position2: "'cpsp' Capital Spacing lookup 0 per glyph data 2" dx=10 dy=0 dh=20 dv=0
EndChar

StartChar: K
Encoding: 75 75 45
Width: 1224
Flags: MW
HStem: 0 55<125 136 375 385 795 806 1081 1099> 1165 57<281 290 529 541 940 945 1133 1133>
VStem: 37 1184
LayerCount: 2
UndoRedoHistory
Layer: 1
Undoes
EndUndoes
Redoes
EndRedoes
EndUndoRedoHistory
Fore
SplineSet
1133 1165 m 2,0,1
 1084 1168 1084 1168 1022 1106 c 2,2,-1
 672 748 l 1,3,-1
 1049 84 l 2,4,5
 1065 55 1065 55 1090 55 c 1,6,-1
 1159 61 l 1,7,-1
 1151 0 l 1,8,-1
 676 0 l 1,9,-1
 684 61 l 1,10,-1
 795 55 l 1,11,12
 827 55 827 55 827 84 c 0,13,14
 827 94 827 94 821 106 c 2,15,-1
 537 610 l 1,16,-1
 408 479 l 1,17,-1
 354 100 l 1,18,-1
 354 90 l 2,19,20
 354 55 354 55 385 55 c 1,21,-1
 485 59 l 1,22,-1
 477 0 l 1,23,-1
 37 0 l 1,24,-1
 45 59 l 1,25,-1
 125 55 l 1,26,27
 160 55 160 55 166 100 c 2,28,-1
 309 1122 l 1,29,-1
 309 1133 l 2,30,31
 309 1165 309 1165 281 1165 c 1,32,-1
 201 1161 l 1,33,-1
 209 1223 l 1,34,-1
 649 1223 l 1,35,-1
 641 1161 l 1,36,-1
 541 1165 l 1,37,38
 504 1165 504 1165 498 1120 c 2,39,-1
 422 575 l 1,40,-1
 940 1122 l 1,41,42
 954 1140 954 1140 954 1152.5 c 0,43,44
 954 1165 954 1165 940 1165 c 2,45,-1
 854 1161 l 1,46,-1
 862 1223 l 1,47,-1
 1221 1223 l 1,48,-1
 1212 1161 l 1,49,-1
 1133 1165 l 2,0,1
EndSplineSet
Position2: "'cpsp' Capital Spacing lookup 0 per glyph data 2" dx=10 dy=0 dh=20 dv=0
EndChar

StartChar: Kcommaaccent
Encoding: 310 310 46
Width: 1224
Flags: MW
HStem: -227 158<477 585> 0 55<125 136 375 385 795 806 1081 1099> 1165 57<281 290 529 541 940 945 1133 1133>
VStem: 543 115
LayerCount: 2
UndoRedoHistory
Layer: 1
Undoes
EndUndoes
Redoes
EndRedoes
EndUndoRedoHistory
Fore
SplineSet
1133 1165 m 2,0,1
 1084 1168 1084 1168 1022 1106 c 2,2,-1
 672 748 l 1,3,-1
 1049 84 l 2,4,5
 1065 55 1065 55 1090 55 c 1,6,-1
 1159 61 l 1,7,-1
 1151 0 l 1,8,-1
 676 0 l 1,9,-1
 684 61 l 1,10,-1
 795 55 l 1,11,12
 827 55 827 55 827 84 c 0,13,14
 827 94 827 94 821 106 c 2,15,-1
 537 610 l 1,16,-1
 408 479 l 1,17,-1
 354 100 l 1,18,-1
 354 90 l 2,19,20
 354 55 354 55 385 55 c 1,21,-1
 485 59 l 1,22,-1
 477 0 l 1,23,-1
 37 0 l 1,24,-1
 45 59 l 1,25,-1
 125 55 l 1,26,27
 160 55 160 55 166 100 c 2,28,-1
 309 1122 l 1,29,-1
 309 1133 l 2,30,31
 309 1165 309 1165 281 1165 c 1,32,-1
 201 1161 l 1,33,-1
 209 1223 l 1,34,-1
 649 1223 l 1,35,-1
 641 1161 l 1,36,-1
 541 1165 l 1,37,38
 504 1165 504 1165 498 1120 c 2,39,-1
 422 575 l 1,40,-1
 940 1122 l 1,41,42
 954 1140 954 1140 954 1152.5 c 0,43,44
 954 1165 954 1165 940 1165 c 2,45,-1
 854 1161 l 1,46,-1
 862 1223 l 1,47,-1
 1221 1223 l 1,48,-1
 1212 1161 l 1,49,-1
 1133 1165 l 2,0,1
426 -410 m 1,50,51
 470 -386 470 -386 505 -350 c 128,-1,52
 540 -314 540 -314 543 -287 c 0,53,54
 551 -227 551 -227 494 -227 c 0,55,56
 470 -227 470 -227 455 -209.5 c 128,-1,57
 440 -192 440 -192 440 -160.5 c 0,58,59
 440 -129 440 -129 470 -99.5 c 128,-1,60
 500 -70 500 -70 550 -70 c 0,61,62
 600 -70 600 -70 628.5 -101 c 128,-1,63
 657 -132 657 -132 657 -178 c 0,64,65
 657 -260 657 -260 596.5 -330 c 128,-1,66
 536 -400 536 -400 455 -436 c 1,67,-1
 426 -410 l 1,50,51
EndSplineSet
EndChar

StartChar: L
Encoding: 76 76 47
Width: 1019
Flags: MW
HStem: 0 57<369 592 592 668> 1165 57<281 290 529 541>
VStem: 37 928<0 350>
LayerCount: 2
UndoRedoHistory
Layer: 1
Undoes
EndUndoes
Redoes
EndRedoes
EndUndoRedoHistory
Fore
SplineSet
641 1161 m 1,0,-1
 541 1165 l 1,1,2
 504 1165 504 1165 498 1122 c 2,3,-1
 352 84 l 1,4,-1
 352 78 l 2,5,6
 352 57 352 57 369 57 c 2,7,-1
 592 57 l 2,8,9
 726 57 726 57 806.5 132 c 128,-1,10
 887 207 887 207 907 350 c 1,11,-1
 965 350 l 1,12,-1
 915 -6 l 1,13,14
 874 0 874 0 668 0 c 2,15,-1
 37 0 l 1,16,-1
 45 61 l 1,17,-1
 133 55 l 1,18,19
 159 55 159 55 166 100 c 2,20,-1
 309 1122 l 1,21,-1
 309 1130 l 2,22,23
 309 1165 309 1165 281 1165 c 1,24,-1
 201 1161 l 1,25,-1
 209 1223 l 1,26,-1
 649 1223 l 1,27,-1
 641 1161 l 1,0,-1
EndSplineSet
Position2: "Single Positioning lookup 3 subtable" dx=0 dy=0 dh=-82 dv=0
Position2: "'cpsp' Capital Spacing lookup 0 per glyph data 2" dx=10 dy=0 dh=20 dv=0
EndChar

StartChar: Lacute
Encoding: 313 313 48
Width: 1019
Flags: MW
HStem: 0 57<369 592 592 668> 1165 57<281 290 529 541>
VStem: 37 928<0 350>
LayerCount: 2
UndoRedoHistory
Layer: 1
Undoes
EndUndoes
Redoes
EndRedoes
EndUndoRedoHistory
Fore
SplineSet
604 1649 m 1,0,1
 629 1676 629 1676 641.5 1684 c 128,-1,2
 654 1692 654 1692 682 1692 c 0,3,4
 710 1692 710 1692 748 1671.5 c 128,-1,5
 786 1651 786 1651 786 1640 c 0,6,7
 786 1629 786 1629 766 1614 c 1,8,-1
 416 1382 l 1,9,10
 392 1364 392 1364 368 1364 c 0,11,12
 344 1364 344 1364 344 1378 c 0,13,14
 344 1386 344 1386 385 1427 c 2,15,-1
 604 1649 l 1,0,1
541 1165 m 1,16,17
 504 1165 504 1165 498 1122 c 2,18,-1
 352 84 l 1,19,-1
 352 78 l 2,20,21
 352 57 352 57 369 57 c 2,22,-1
 592 57 l 2,23,24
 726 57 726 57 806.5 132 c 128,-1,25
 887 207 887 207 907 350 c 1,26,-1
 965 350 l 1,27,-1
 915 -6 l 1,28,29
 874 0 874 0 668 0 c 2,30,-1
 37 0 l 1,31,-1
 45 61 l 1,32,-1
 133 55 l 1,33,34
 159 55 159 55 166 100 c 2,35,-1
 309 1122 l 1,36,-1
 309 1130 l 2,37,38
 309 1165 309 1165 281 1165 c 1,39,-1
 201 1161 l 1,40,-1
 209 1223 l 1,41,-1
 649 1223 l 1,42,-1
 641 1161 l 1,43,-1
 541 1165 l 1,16,17
EndSplineSet
EndChar

StartChar: Lcaron
Encoding: 317 317 49
Width: 1019
Flags: MW
HStem: 0 57<369 592 592 668> 1085 158<883 975> 1165 57<281 290 529 541> 1202 41G<910 975>
VStem: 846 197<1130 1163 1081 1169>
LayerCount: 2
UndoRedoHistory
Layer: 1
Undoes
EndUndoes
Redoes
EndRedoes
EndUndoRedoHistory
Fore
SplineSet
831 924 m 1,0,1
 868 950 868 950 896.5 985 c 128,-1,2
 925 1020 925 1020 928 1047 c 1,3,-1
 928 1055 l 2,4,5
 928 1085 928 1085 901.5 1085 c 0,6,7
 875 1085 875 1085 860.5 1103 c 128,-1,8
 846 1121 846 1121 846 1153 c 0,9,10
 846 1185 846 1185 871.5 1214 c 128,-1,11
 897 1243 897 1243 942.5 1243 c 0,12,13
 988 1243 988 1243 1015 1211.5 c 128,-1,14
 1042 1180 1042 1180 1042 1120.5 c 0,15,16
 1042 1061 1042 1061 987 995.5 c 128,-1,17
 932 930 932 930 860 897 c 1,18,-1
 831 924 l 1,0,1
541 1165 m 1,19,20
 504 1165 504 1165 498 1122 c 2,21,-1
 352 84 l 1,22,-1
 352 78 l 2,23,24
 352 57 352 57 369 57 c 2,25,-1
 592 57 l 2,26,27
 726 57 726 57 806.5 132 c 128,-1,28
 887 207 887 207 907 350 c 1,29,-1
 965 350 l 1,30,-1
 915 -6 l 1,31,32
 874 0 874 0 668 0 c 2,33,-1
 37 0 l 1,34,-1
 45 61 l 1,35,-1
 133 55 l 1,36,37
 159 55 159 55 166 100 c 2,38,-1
 309 1122 l 1,39,-1
 309 1130 l 2,40,41
 309 1165 309 1165 281 1165 c 1,42,-1
 201 1161 l 1,43,-1
 209 1223 l 1,44,-1
 649 1223 l 1,45,-1
 641 1161 l 1,46,-1
 541 1165 l 1,19,20
EndSplineSet
EndChar

StartChar: Lcommaaccent
Encoding: 315 315 50
Width: 1019
Flags: MW
HStem: -227 158<369 476> 0 57<369 592 592 668> 1165 57<281 290 529 541>
VStem: 434 115
LayerCount: 2
UndoRedoHistory
Layer: 1
Undoes
EndUndoes
Redoes
EndRedoes
EndUndoRedoHistory
Fore
SplineSet
541 1165 m 1,0,1
 504 1165 504 1165 498 1122 c 2,2,-1
 352 84 l 1,3,-1
 352 78 l 2,4,5
 352 57 352 57 369 57 c 2,6,-1
 592 57 l 2,7,8
 726 57 726 57 806.5 132 c 128,-1,9
 887 207 887 207 907 350 c 1,10,-1
 965 350 l 1,11,-1
 915 -6 l 1,12,13
 874 0 874 0 668 0 c 2,14,-1
 37 0 l 1,15,-1
 45 61 l 1,16,-1
 133 55 l 1,17,18
 159 55 159 55 166 100 c 2,19,-1
 309 1122 l 1,20,-1
 309 1130 l 2,21,22
 309 1165 309 1165 281 1165 c 1,23,-1
 201 1161 l 1,24,-1
 209 1223 l 1,25,-1
 649 1223 l 1,26,-1
 641 1161 l 1,27,-1
 541 1165 l 1,0,1
317 -410 m 1,28,29
 361 -386 361 -386 396 -350 c 128,-1,30
 431 -314 431 -314 434 -287 c 0,31,32
 442 -227 442 -227 385 -227 c 0,33,34
 361 -227 361 -227 346.5 -209.5 c 128,-1,35
 332 -192 332 -192 332 -160.5 c 0,36,37
 332 -129 332 -129 361.5 -99.5 c 128,-1,38
 391 -70 391 -70 441.5 -70 c 0,39,40
 492 -70 492 -70 520.5 -101.5 c 128,-1,41
 549 -133 549 -133 549 -178 c 0,42,43
 549 -260 549 -260 488 -330 c 128,-1,44
 427 -400 427 -400 346 -436 c 1,45,-1
 317 -410 l 1,28,29
EndSplineSet
EndChar

StartChar: Ldot
Encoding: 319 319 51
Width: 1019
Flags: MW
HStem: 0 57<369 592 592 668> 567 236<819 866> 1165 57<281 290 529 541>
VStem: 715 256<659 708>
LayerCount: 2
UndoRedoHistory
Layer: 1
Undoes
EndUndoes
Redoes
EndRedoes
EndUndoRedoHistory
Fore
SplineSet
541 1165 m 1,0,1
 504 1165 504 1165 498 1122 c 2,2,-1
 352 84 l 1,3,-1
 352 78 l 2,4,5
 352 57 352 57 369 57 c 2,6,-1
 592 57 l 2,7,8
 726 57 726 57 806.5 132 c 128,-1,9
 887 207 887 207 907 350 c 1,10,-1
 965 350 l 1,11,-1
 915 -6 l 1,12,13
 874 0 874 0 668 0 c 2,14,-1
 37 0 l 1,15,-1
 45 61 l 1,16,-1
 133 55 l 1,17,18
 159 55 159 55 166 100 c 2,19,-1
 309 1122 l 1,20,-1
 309 1130 l 2,21,22
 309 1165 309 1165 281 1165 c 1,23,-1
 201 1161 l 1,24,-1
 209 1223 l 1,25,-1
 649 1223 l 1,26,-1
 641 1161 l 1,27,-1
 541 1165 l 1,0,1
745.5 594.5 m 128,-1,29
 715 622 715 622 715 674.5 c 128,-1,30
 715 727 715 727 756.5 765 c 128,-1,31
 798 803 798 803 854 803 c 128,-1,32
 910 803 910 803 940.5 775 c 128,-1,33
 971 747 971 747 971 693.5 c 128,-1,34
 971 640 971 640 929 603.5 c 128,-1,35
 887 567 887 567 831.5 567 c 128,-1,28
 776 567 776 567 745.5 594.5 c 128,-1,29
EndSplineSet
Ligature2: "Ligature Substitution lookup 20 subtable" L periodcentered
Position2: "'cpsp' Capital Spacing lookup 0 per glyph data 2" dx=10 dy=0 dh=20 dv=0
EndChar

StartChar: Lslash
Encoding: 321 321 52
Width: 1019
Flags: MW
HStem: 0 57<369 592 592 668> 829 41G<657 657> 1165 57<281 290 529 541>
VStem: 37 928<0 350>
LayerCount: 2
UndoRedoHistory
Layer: 1
Undoes
EndUndoes
Redoes
EndRedoes
EndUndoRedoHistory
Fore
SplineSet
965 350 m 1,0,-1
 915 -6 l 1,1,2
 874 0 874 0 668 0 c 2,3,-1
 37 0 l 1,4,-1
 45 61 l 1,5,-1
 133 55 l 1,6,7
 159 55 159 55 166 100 c 2,8,-1
 215 453 l 1,9,-1
 86 354 l 1,10,-1
 100 451 l 1,11,-1
 229 549 l 1,12,-1
 309 1122 l 1,13,-1
 309 1130 l 2,14,15
 309 1165 309 1165 281 1165 c 1,16,-1
 201 1161 l 1,17,-1
 209 1223 l 1,18,-1
 649 1223 l 1,19,-1
 641 1161 l 1,20,-1
 541 1165 l 1,21,22
 504 1165 504 1165 498 1122 c 2,23,-1
 438 702 l 1,24,-1
 657 870 l 1,25,-1
 643 772 l 1,26,-1
 426 604 l 1,27,-1
 352 84 l 1,28,-1
 352 78 l 2,29,30
 352 57 352 57 369 57 c 2,31,-1
 592 57 l 2,32,33
 726 57 726 57 806.5 132 c 128,-1,34
 887 207 887 207 907 350 c 1,35,-1
 965 350 l 1,0,-1
EndSplineSet
Position2: "'cpsp' Capital Spacing lookup 0 per glyph data 2" dx=10 dy=0 dh=20 dv=0
EndChar

StartChar: M
Encoding: 77 77 53
Width: 1699
Flags: MW
HStem: 0 55<115 127 249 258 1208 1220 1458 1468> 1165 57<297 300 1613 1624>
VStem: 27 1675<0 1223>
LayerCount: 2
UndoRedoHistory
Layer: 1
Undoes
EndUndoes
Redoes
EndRedoes
EndUndoRedoHistory
Fore
SplineSet
1694 1161 m 1,0,-1
 1624 1165 l 1,1,2
 1588 1165 1588 1165 1581 1124 c 1,3,-1
 1438 100 l 1,4,-1
 1438 88 l 2,5,6
 1438 55 1438 55 1468 55 c 1,7,-1
 1548 59 l 1,8,-1
 1540 0 l 1,9,-1
 1100 0 l 1,10,-1
 1108 59 l 1,11,-1
 1208 55 l 1,12,13
 1243 55 1243 55 1249 100 c 2,14,-1
 1382 1051 l 1,15,-1
 770 -20 l 1,16,-1
 717 -20 l 1,17,-1
 367 1065 l 1,18,-1
 231 100 l 1,19,-1
 231 86 l 2,20,21
 231 55 231 55 258 55 c 1,22,-1
 358 59 l 1,23,-1
 350 0 l 1,24,-1
 27 0 l 1,25,-1
 35 59 l 1,26,-1
 115 55 l 1,27,28
 152 55 152 55 158 100 c 2,29,-1
 305 1153 l 1,30,31
 308 1165 308 1165 297 1165 c 2,32,-1
 205 1161 l 1,33,-1
 213 1223 l 1,34,-1
 522 1223 l 1,35,-1
 840 236 l 1,36,-1
 1407 1223 l 1,37,-1
 1702 1223 l 1,38,-1
 1694 1161 l 1,0,-1
EndSplineSet
Position2: "'cpsp' Capital Spacing lookup 0 per glyph data 2" dx=10 dy=0 dh=20 dv=0
EndChar

StartChar: N
Encoding: 78 78 54
Width: 1312
Flags: MW
HStem: 0 55<115 127 249 258> 1165 57<270 281 1108 1116 1233 1243>
VStem: 27 1309<0 1223>
LayerCount: 2
UndoRedoHistory
Layer: 1
Undoes
EndUndoes
Redoes
EndRedoes
EndUndoRedoHistory
Fore
SplineSet
1133 1124 m 1,0,-1
 1135 1137 l 1,1,2
 1132 1165 1132 1165 1108 1165 c 2,3,-1
 1001 1161 l 1,4,-1
 1010 1223 l 1,5,-1
 1335 1223 l 1,6,-1
 1327 1161 l 1,7,-1
 1243 1165 l 1,8,9
 1212 1165 1212 1165 1206 1122 c 2,10,-1
 1047 -12 l 1,11,-1
 981 -12 l 1,12,-1
 367 1067 l 1,13,-1
 231 100 l 1,14,-1
 231 86 l 2,15,16
 231 55 231 55 258 55 c 1,17,-1
 358 59 l 1,18,-1
 350 0 l 1,19,-1
 27 0 l 1,20,-1
 35 59 l 1,21,-1
 115 55 l 1,22,23
 152 55 152 55 158 100 c 2,24,-1
 301 1122 l 1,25,-1
 301 1133 l 2,26,27
 301 1165 301 1165 270 1165 c 1,28,-1
 190 1161 l 1,29,-1
 199 1223 l 1,30,-1
 510 1223 l 1,31,-1
 1020 324 l 1,32,-1
 1133 1124 l 1,0,-1
EndSplineSet
Position2: "'cpsp' Capital Spacing lookup 0 per glyph data 2" dx=10 dy=0 dh=20 dv=0
EndChar

StartChar: Nacute
Encoding: 323 323 55
Width: 1312
Flags: MW
HStem: 0 55<115 127 249 258> 1165 57<270 281 1108 1116 1233 1243>
VStem: 27 1309<0 1223>
LayerCount: 2
UndoRedoHistory
Layer: 1
Undoes
EndUndoes
Redoes
EndRedoes
EndUndoRedoHistory
Fore
SplineSet
918 1649 m 2,0,1
 944 1676 944 1676 955.5 1684 c 128,-1,2
 967 1692 967 1692 995 1692 c 128,-1,3
 1023 1692 1023 1692 1061.5 1671.5 c 128,-1,4
 1100 1651 1100 1651 1100 1640.5 c 128,-1,5
 1100 1630 1100 1630 1079 1614 c 1,6,-1
 729 1382 l 1,7,8
 705 1364 705 1364 681 1364 c 128,-1,9
 657 1364 657 1364 657 1378 c 0,10,11
 657 1386 657 1386 698 1427 c 2,12,-1
 918 1649 l 2,0,1
1133 1124 m 1,13,-1
 1135 1137 l 1,14,15
 1132 1165 1132 1165 1108 1165 c 2,16,-1
 1001 1161 l 1,17,-1
 1010 1223 l 1,18,-1
 1335 1223 l 1,19,-1
 1327 1161 l 1,20,-1
 1243 1165 l 1,21,22
 1212 1165 1212 1165 1206 1122 c 2,23,-1
 1047 -12 l 1,24,-1
 981 -12 l 1,25,-1
 367 1067 l 1,26,-1
 231 100 l 1,27,-1
 231 86 l 2,28,29
 231 55 231 55 258 55 c 1,30,-1
 358 59 l 1,31,-1
 350 0 l 1,32,-1
 27 0 l 1,33,-1
 35 59 l 1,34,-1
 115 55 l 1,35,36
 152 55 152 55 158 100 c 2,37,-1
 301 1122 l 1,38,-1
 301 1133 l 2,39,40
 301 1165 301 1165 270 1165 c 1,41,-1
 190 1161 l 1,42,-1
 199 1223 l 1,43,-1
 510 1223 l 1,44,-1
 1020 324 l 1,45,-1
 1133 1124 l 1,13,-1
EndSplineSet
EndChar

StartChar: Ncaron
Encoding: 327 327 56
Width: 1312
Flags: MW
HStem: 0 55<115 127 249 258> 1165 57<270 281 1108 1116 1233 1243>
VStem: 27 1309<0 1223>
LayerCount: 2
UndoRedoHistory
Layer: 1
Undoes
EndUndoes
Redoes
EndRedoes
EndUndoRedoHistory
Fore
SplineSet
528 1671 m 0,0,1
 528 1688 528 1688 551.5 1688 c 128,-1,2
 575 1688 575 1688 610 1663 c 1,3,-1
 809 1513 l 1,4,-1
 1055 1663 l 1,5,6
 1100 1688 1100 1688 1118.5 1688 c 128,-1,7
 1137 1688 1137 1688 1137 1673 c 0,8,9
 1137 1666 1137 1666 1114.5 1648 c 0,10,11
 1009.4137931 1563.93103448 1009.4137931 1563.93103448 961 1518 c 2,12,-1
 858 1419 l 2,13,14
 804 1368 804 1368 789 1368 c 128,-1,15
 774 1368 774 1368 735 1419 c 1,16,-1
 662 1518 l 2,17,18
 623 1570 623 1570 575.5 1617.5 c 128,-1,19
 528 1665 528 1665 528 1671 c 0,0,1
1133 1124 m 1,20,-1
 1135 1137 l 1,21,22
 1132 1165 1132 1165 1108 1165 c 2,23,-1
 1001 1161 l 1,24,-1
 1010 1223 l 1,25,-1
 1335 1223 l 1,26,-1
 1327 1161 l 1,27,-1
 1243 1165 l 1,28,29
 1212 1165 1212 1165 1206 1122 c 2,30,-1
 1047 -12 l 1,31,-1
 981 -12 l 1,32,-1
 367 1067 l 1,33,-1
 231 100 l 1,34,-1
 231 86 l 2,35,36
 231 55 231 55 258 55 c 1,37,-1
 358 59 l 1,38,-1
 350 0 l 1,39,-1
 27 0 l 1,40,-1
 35 59 l 1,41,-1
 115 55 l 1,42,43
 152 55 152 55 158 100 c 2,44,-1
 301 1122 l 1,45,-1
 301 1133 l 2,46,47
 301 1165 301 1165 270 1165 c 1,48,-1
 190 1161 l 1,49,-1
 199 1223 l 1,50,-1
 510 1223 l 1,51,-1
 1020 324 l 1,52,-1
 1133 1124 l 1,20,-1
EndSplineSet
EndChar

StartChar: Ncommaaccent
Encoding: 325 325 57
Width: 1312
Flags: MW
HStem: -227 158<575 683> 0 55<115 127 249 258> 1165 57<270 281 1108 1116 1233 1243>
VStem: 641 115
LayerCount: 2
UndoRedoHistory
Layer: 1
Undoes
EndUndoes
Redoes
EndRedoes
EndUndoRedoHistory
Fore
SplineSet
1133 1124 m 1,0,-1
 1135 1137 l 1,1,2
 1132 1165 1132 1165 1108 1165 c 2,3,-1
 1001 1161 l 1,4,-1
 1010 1223 l 1,5,-1
 1335 1223 l 1,6,-1
 1327 1161 l 1,7,-1
 1243 1165 l 1,8,9
 1212 1165 1212 1165 1206 1122 c 2,10,-1
 1047 -12 l 1,11,-1
 981 -12 l 1,12,-1
 367 1067 l 1,13,-1
 231 100 l 1,14,-1
 231 86 l 2,15,16
 231 55 231 55 258 55 c 1,17,-1
 358 59 l 1,18,-1
 350 0 l 1,19,-1
 27 0 l 1,20,-1
 35 59 l 1,21,-1
 115 55 l 1,22,23
 152 55 152 55 158 100 c 2,24,-1
 301 1122 l 1,25,-1
 301 1133 l 2,26,27
 301 1165 301 1165 270 1165 c 1,28,-1
 190 1161 l 1,29,-1
 199 1223 l 1,30,-1
 510 1223 l 1,31,-1
 1020 324 l 1,32,-1
 1133 1124 l 1,0,-1
524 -410 m 1,33,34
 568 -386 568 -386 603 -350 c 128,-1,35
 638 -314 638 -314 641 -287 c 0,36,37
 649 -227 649 -227 592 -227 c 0,38,39
 568 -227 568 -227 553.5 -209.5 c 128,-1,40
 539 -192 539 -192 539 -160.5 c 128,-1,41
 539 -129 539 -129 568.5 -99.5 c 128,-1,42
 598 -70 598 -70 648.5 -70 c 128,-1,43
 699 -70 699 -70 727.5 -101.5 c 128,-1,44
 756 -133 756 -133 756 -178 c 0,45,46
 756 -260 756 -260 695 -330 c 128,-1,47
 634 -400 634 -400 553 -436 c 1,48,-1
 524 -410 l 1,33,34
EndSplineSet
EndChar

StartChar: Ntilde
Encoding: 209 209 58
Width: 1312
Flags: MW
HStem: 0 55<115 127 249 258> 1165 57<270 281 1108 1116 1233 1243> 1382 100<943 984> 1470 100<622 664>
VStem: 502 41<1384 1384> 1063 41<1569 1569>
LayerCount: 2
UndoRedoHistory
Layer: 1
Undoes
EndUndoes
Redoes
EndRedoes
EndUndoRedoHistory
Fore
SplineSet
502 1384 m 1,0,1
 513 1461 513 1461 558 1516 c 128,-1,2
 603 1571 603 1571 653.5 1571 c 128,-1,3
 704 1571 704 1571 824 1527 c 128,-1,4
 944 1483 944 1483 978 1483 c 128,-1,5
 1012 1483 1012 1483 1035.5 1507.5 c 128,-1,6
 1059 1532 1059 1532 1063 1569 c 1,7,-1
 1104 1569 l 1,8,9
 1093 1493 1093 1493 1047.5 1437.5 c 128,-1,10
 1002 1382 1002 1382 951 1382 c 128,-1,11
 900 1382 900 1382 781.5 1426 c 128,-1,12
 663 1470 663 1470 628.5 1470 c 128,-1,13
 594 1470 594 1470 571.5 1445.5 c 128,-1,14
 549 1421 549 1421 543 1384 c 1,15,-1
 502 1384 l 1,0,1
1133 1124 m 1,16,-1
 1135 1137 l 1,17,18
 1132 1165 1132 1165 1108 1165 c 2,19,-1
 1001 1161 l 1,20,-1
 1010 1223 l 1,21,-1
 1335 1223 l 1,22,-1
 1327 1161 l 1,23,-1
 1243 1165 l 1,24,25
 1212 1165 1212 1165 1206 1122 c 2,26,-1
 1047 -12 l 1,27,-1
 981 -12 l 1,28,-1
 367 1067 l 1,29,-1
 231 100 l 1,30,-1
 231 86 l 2,31,32
 231 55 231 55 258 55 c 1,33,-1
 358 59 l 1,34,-1
 350 0 l 1,35,-1
 27 0 l 1,36,-1
 35 59 l 1,37,-1
 115 55 l 1,38,39
 152 55 152 55 158 100 c 2,40,-1
 301 1122 l 1,41,-1
 301 1133 l 2,42,43
 301 1165 301 1165 270 1165 c 1,44,-1
 190 1161 l 1,45,-1
 199 1223 l 1,46,-1
 510 1223 l 1,47,-1
 1020 324 l 1,48,-1
 1133 1124 l 1,16,-1
EndSplineSet
Position2: "'cpsp' Capital Spacing lookup 0 per glyph data 2" dx=10 dy=0 dh=20 dv=0
EndChar

StartChar: O
Encoding: 79 79 59
Width: 1329
Flags: MW
HStem: -20 55<515 710> 1188 55<666 862>
VStem: 102 201<287 536 287 823> 1073 203<682 937>
LayerCount: 2
UndoRedoHistory
Layer: 1
Undoes
EndUndoes
Redoes
EndRedoes
EndUndoRedoHistory
Fore
SplineSet
137.5 272.5 m 128,-1,1
 102 369 102 369 102 500 c 128,-1,2
 102 631 102 631 128 743 c 128,-1,3
 154 855 154 855 196.5 931 c 128,-1,4
 239 1007 239 1007 298.5 1065 c 128,-1,5
 358 1123 358 1123 417.5 1156 c 128,-1,6
 477 1189 477 1189 546 1209.5 c 0,7,8
 658.756097561 1243 658.756097561 1243 738.87804878 1243 c 128,-1,9
 819 1243 819 1243 860 1238.5 c 128,-1,10
 901 1234 901 1234 952.5 1219.5 c 128,-1,11
 1004 1205 1004 1205 1048 1182 c 128,-1,12
 1092 1159 1092 1159 1135 1119.5 c 128,-1,13
 1178 1080 1178 1080 1208.5 1027.5 c 0,14,15
 1276 911.31147541 1276 911.31147541 1276 752.655737705 c 128,-1,16
 1276 594 1276 594 1249.5 482 c 128,-1,17
 1223 370 1223 370 1180.5 294 c 128,-1,18
 1138 218 1138 218 1078.5 159.5 c 128,-1,19
 1019 101 1019 101 958.5 68 c 128,-1,20
 898 35 898 35 829.5 14.5 c 0,21,22
 560.810679288 -65.9106726218 560.810679288 -65.9106726218 348 34.5 c 0,23,24
 277 68 277 68 225 122 c 128,-1,0
 173 176 173 176 137.5 272.5 c 128,-1,1
387 907 m 0,25,26
 303 685 303 685 303 450 c 128,-1,27
 303 215 303 215 379 125 c 128,-1,28
 455 35 455 35 627 35 c 0,29,30
 871 35 871 35 979 285 c 1,31,32
 1073 507 1073 507 1073 757.5 c 128,-1,33
 1073 1008 1073 1008 998 1098 c 128,-1,34
 923 1188 923 1188 750 1188 c 0,35,36
 492 1188 492 1188 387 907 c 0,25,26
EndSplineSet
Substitution2: "Single Substitution lookup 21 subtable" ordmasculine
Substitution2: "'aalt' Access All Alternates lookup 0 subtable" ordmasculine
Position2: "'cpsp' Capital Spacing lookup 0 per glyph data 2" dx=10 dy=0 dh=20 dv=0
EndChar

StartChar: Oacute
Encoding: 211 211 60
Width: 1329
Flags: MW
HStem: -20 55<515 710> 1188 55<666 862>
VStem: 102 201<287 536 287 823> 1073 203<682 937>
LayerCount: 2
UndoRedoHistory
Layer: 1
Undoes
EndUndoes
Redoes
EndRedoes
EndUndoRedoHistory
Fore
SplineSet
918 1649 m 2,0,1
 944 1676 944 1676 955.5 1684 c 128,-1,2
 967 1692 967 1692 995 1692 c 128,-1,3
 1023 1692 1023 1692 1061.5 1671.5 c 128,-1,4
 1100 1651 1100 1651 1100 1640.5 c 128,-1,5
 1100 1630 1100 1630 1079 1614 c 1,6,-1
 729 1382 l 1,7,8
 705 1364 705 1364 681 1364 c 128,-1,9
 657 1364 657 1364 657 1378 c 0,10,11
 657 1386 657 1386 698 1427 c 2,12,-1
 918 1649 l 2,0,1
137.5 272.5 m 128,-1,14
 102 369 102 369 102 500 c 128,-1,15
 102 631 102 631 128 743 c 128,-1,16
 154 855 154 855 196.5 931 c 128,-1,17
 239 1007 239 1007 298.5 1065 c 128,-1,18
 358 1123 358 1123 417.5 1156 c 128,-1,19
 477 1189 477 1189 546 1209.5 c 0,20,21
 658.756097561 1243 658.756097561 1243 738.87804878 1243 c 128,-1,22
 819 1243 819 1243 860 1238.5 c 128,-1,23
 901 1234 901 1234 952.5 1219.5 c 128,-1,24
 1004 1205 1004 1205 1048 1182 c 128,-1,25
 1092 1159 1092 1159 1135 1119.5 c 128,-1,26
 1178 1080 1178 1080 1208.5 1027.5 c 0,27,28
 1276 911.31147541 1276 911.31147541 1276 752.655737705 c 128,-1,29
 1276 594 1276 594 1249.5 482 c 128,-1,30
 1223 370 1223 370 1180.5 294 c 128,-1,31
 1138 218 1138 218 1078.5 159.5 c 128,-1,32
 1019 101 1019 101 958.5 68 c 128,-1,33
 898 35 898 35 829.5 14.5 c 0,34,35
 560.810679288 -65.9106726218 560.810679288 -65.9106726218 348 34.5 c 0,36,37
 277 68 277 68 225 122 c 128,-1,13
 173 176 173 176 137.5 272.5 c 128,-1,14
387 907 m 0,38,39
 303 685 303 685 303 450 c 128,-1,40
 303 215 303 215 379 125 c 128,-1,41
 455 35 455 35 627 35 c 0,42,43
 871 35 871 35 979 285 c 1,44,45
 1073 507 1073 507 1073 757.5 c 128,-1,46
 1073 1008 1073 1008 998 1098 c 128,-1,47
 923 1188 923 1188 750 1188 c 0,48,49
 492 1188 492 1188 387 907 c 0,38,39
EndSplineSet
Position2: "'cpsp' Capital Spacing lookup 0 per glyph data 2" dx=10 dy=0 dh=20 dv=0
EndChar

StartChar: Ocircumflex
Encoding: 212 212 61
Width: 1329
Flags: MW
HStem: -20 55<515 710> 1188 55<666 862>
VStem: 102 201<287 536 287 823> 1073 203<682 937>
LayerCount: 2
UndoRedoHistory
Layer: 1
Undoes
EndUndoes
Redoes
EndRedoes
EndUndoRedoHistory
Fore
SplineSet
569 1389 m 1,0,1
 524 1364 524 1364 505.5 1364 c 128,-1,2
 487 1364 487 1364 487 1374.5 c 128,-1,3
 487 1385 487 1385 509.5 1403.5 c 128,-1,4
 532 1422 532 1422 578.5 1459.5 c 128,-1,5
 625 1497 625 1497 664 1534 c 2,6,-1
 766 1632 l 2,7,8
 820 1683 820 1683 835 1683 c 128,-1,9
 850 1683 850 1683 889 1632 c 2,10,-1
 963 1534 l 1,11,12
 999.909090909 1483.09090909 999.909090909 1483.09090909 1047.95454545 1435.04545455 c 128,-1,13
 1096 1387 1096 1387 1096 1380 c 0,14,15
 1096 1364 1096 1364 1072.5 1364 c 128,-1,16
 1049 1364 1049 1364 1014 1389 c 2,17,-1
 815 1538 l 1,18,-1
 569 1389 l 1,0,1
137.5 272.5 m 128,-1,20
 102 369 102 369 102 500 c 128,-1,21
 102 631 102 631 128 743 c 128,-1,22
 154 855 154 855 196.5 931 c 128,-1,23
 239 1007 239 1007 298.5 1065 c 128,-1,24
 358 1123 358 1123 417.5 1156 c 128,-1,25
 477 1189 477 1189 546 1209.5 c 0,26,27
 658.756097561 1243 658.756097561 1243 738.87804878 1243 c 128,-1,28
 819 1243 819 1243 860 1238.5 c 128,-1,29
 901 1234 901 1234 952.5 1219.5 c 128,-1,30
 1004 1205 1004 1205 1048 1182 c 128,-1,31
 1092 1159 1092 1159 1135 1119.5 c 128,-1,32
 1178 1080 1178 1080 1208.5 1027.5 c 0,33,34
 1276 911.31147541 1276 911.31147541 1276 752.655737705 c 128,-1,35
 1276 594 1276 594 1249.5 482 c 128,-1,36
 1223 370 1223 370 1180.5 294 c 128,-1,37
 1138 218 1138 218 1078.5 159.5 c 128,-1,38
 1019 101 1019 101 958.5 68 c 128,-1,39
 898 35 898 35 829.5 14.5 c 0,40,41
 560.810679288 -65.9106726218 560.810679288 -65.9106726218 348 34.5 c 0,42,43
 277 68 277 68 225 122 c 128,-1,19
 173 176 173 176 137.5 272.5 c 128,-1,20
387 907 m 0,44,45
 303 685 303 685 303 450 c 128,-1,46
 303 215 303 215 379 125 c 128,-1,47
 455 35 455 35 627 35 c 0,48,49
 871 35 871 35 979 285 c 1,50,51
 1073 507 1073 507 1073 757.5 c 128,-1,52
 1073 1008 1073 1008 998 1098 c 128,-1,53
 923 1188 923 1188 750 1188 c 0,54,55
 492 1188 492 1188 387 907 c 0,44,45
EndSplineSet
Position2: "'cpsp' Capital Spacing lookup 0 per glyph data 2" dx=10 dy=0 dh=20 dv=0
EndChar

StartChar: Odieresis
Encoding: 214 214 62
Width: 1329
Flags: MW
HStem: -20 55<515 710> 1188 55<666 862> 1386 195<610 653 967 1010>
VStem: 102 201<287 536 287 823> 518 223<1462 1504> 874 223<1462 1504> 1073 203<682 937>
LayerCount: 2
UndoRedoHistory
Layer: 1
Undoes
EndUndoes
Redoes
EndRedoes
EndUndoRedoHistory
Fore
SplineSet
554.5 1550.5 m 128,-1,1
 591 1581 591 1581 640 1581 c 128,-1,2
 689 1581 689 1581 715 1558 c 128,-1,3
 741 1535 741 1535 741 1490 c 128,-1,4
 741 1445 741 1445 706.5 1415.5 c 128,-1,5
 672 1386 672 1386 622 1386 c 128,-1,6
 572 1386 572 1386 545 1408.5 c 128,-1,7
 518 1431 518 1431 518 1475.5 c 128,-1,0
 518 1520 518 1520 554.5 1550.5 c 128,-1,1
910.5 1550.5 m 128,-1,9
 947 1581 947 1581 996 1581 c 128,-1,10
 1045 1581 1045 1581 1071.5 1558 c 128,-1,11
 1098 1535 1098 1535 1098 1490 c 128,-1,12
 1098 1445 1098 1445 1063.5 1415.5 c 128,-1,13
 1029 1386 1029 1386 979 1386 c 128,-1,14
 929 1386 929 1386 901.5 1408.5 c 128,-1,15
 874 1431 874 1431 874 1475.5 c 128,-1,8
 874 1520 874 1520 910.5 1550.5 c 128,-1,9
137.5 272.5 m 128,-1,17
 102 369 102 369 102 500 c 128,-1,18
 102 631 102 631 128 743 c 128,-1,19
 154 855 154 855 196.5 931 c 128,-1,20
 239 1007 239 1007 298.5 1065 c 128,-1,21
 358 1123 358 1123 417.5 1156 c 128,-1,22
 477 1189 477 1189 546 1209.5 c 0,23,24
 658.756097561 1243 658.756097561 1243 738.87804878 1243 c 128,-1,25
 819 1243 819 1243 860 1238.5 c 128,-1,26
 901 1234 901 1234 952.5 1219.5 c 128,-1,27
 1004 1205 1004 1205 1048 1182 c 128,-1,28
 1092 1159 1092 1159 1135 1119.5 c 128,-1,29
 1178 1080 1178 1080 1208.5 1027.5 c 0,30,31
 1276 911.31147541 1276 911.31147541 1276 752.655737705 c 128,-1,32
 1276 594 1276 594 1249.5 482 c 128,-1,33
 1223 370 1223 370 1180.5 294 c 128,-1,34
 1138 218 1138 218 1078.5 159.5 c 128,-1,35
 1019 101 1019 101 958.5 68 c 128,-1,36
 898 35 898 35 829.5 14.5 c 0,37,38
 560.810679288 -65.9106726218 560.810679288 -65.9106726218 348 34.5 c 0,39,40
 277 68 277 68 225 122 c 128,-1,16
 173 176 173 176 137.5 272.5 c 128,-1,17
387 907 m 0,41,42
 303 685 303 685 303 450 c 128,-1,43
 303 215 303 215 379 125 c 128,-1,44
 455 35 455 35 627 35 c 0,45,46
 871 35 871 35 979 285 c 1,47,48
 1073 507 1073 507 1073 757.5 c 128,-1,49
 1073 1008 1073 1008 998 1098 c 128,-1,50
 923 1188 923 1188 750 1188 c 0,51,52
 492 1188 492 1188 387 907 c 0,41,42
EndSplineSet
Position2: "'cpsp' Capital Spacing lookup 0 per glyph data 2" dx=10 dy=0 dh=20 dv=0
EndChar

StartChar: Ograve
Encoding: 210 210 63
Width: 1329
Flags: MW
HStem: -20 55<515 710> 1188 55<666 862>
VStem: 102 201<287 536 287 823> 1073 203<682 937>
LayerCount: 2
UndoRedoHistory
Layer: 1
Undoes
EndUndoes
Redoes
EndRedoes
EndUndoRedoHistory
Fore
SplineSet
565 1614 m 1,0,1
 553 1626 553 1626 553 1638 c 128,-1,2
 553 1650 553 1650 596 1671 c 128,-1,3
 639 1692 639 1692 661 1692 c 128,-1,4
 683 1692 683 1692 687.5 1691.5 c 128,-1,5
 692 1691 692 1691 697 1689 c 0,6,7
 708.071428571 1684.57142857 708.071428571 1684.57142857 713.535714286 1677.28571429 c 128,-1,8
 719 1670 719 1670 725.5 1661.5 c 128,-1,9
 732 1653 732 1653 735 1649 c 2,10,-1
 903 1415 l 1,11,12
 922 1385 922 1385 922 1380 c 0,13,14
 922 1364 922 1364 895 1364 c 128,-1,15
 868 1364 868 1364 850 1382 c 1,16,-1
 565 1614 l 1,0,1
137.5 272.5 m 128,-1,18
 102 369 102 369 102 500 c 128,-1,19
 102 631 102 631 128 743 c 128,-1,20
 154 855 154 855 196.5 931 c 128,-1,21
 239 1007 239 1007 298.5 1065 c 128,-1,22
 358 1123 358 1123 417.5 1156 c 128,-1,23
 477 1189 477 1189 546 1209.5 c 0,24,25
 658.756097561 1243 658.756097561 1243 738.87804878 1243 c 128,-1,26
 819 1243 819 1243 860 1238.5 c 128,-1,27
 901 1234 901 1234 952.5 1219.5 c 128,-1,28
 1004 1205 1004 1205 1048 1182 c 128,-1,29
 1092 1159 1092 1159 1135 1119.5 c 128,-1,30
 1178 1080 1178 1080 1208.5 1027.5 c 0,31,32
 1276 911.31147541 1276 911.31147541 1276 752.655737705 c 128,-1,33
 1276 594 1276 594 1249.5 482 c 128,-1,34
 1223 370 1223 370 1180.5 294 c 128,-1,35
 1138 218 1138 218 1078.5 159.5 c 128,-1,36
 1019 101 1019 101 958.5 68 c 128,-1,37
 898 35 898 35 829.5 14.5 c 0,38,39
 560.810679288 -65.9106726218 560.810679288 -65.9106726218 348 34.5 c 0,40,41
 277 68 277 68 225 122 c 128,-1,17
 173 176 173 176 137.5 272.5 c 128,-1,18
387 907 m 0,42,43
 303 685 303 685 303 450 c 128,-1,44
 303 215 303 215 379 125 c 128,-1,45
 455 35 455 35 627 35 c 0,46,47
 871 35 871 35 979 285 c 1,48,49
 1073 507 1073 507 1073 757.5 c 128,-1,50
 1073 1008 1073 1008 998 1098 c 128,-1,51
 923 1188 923 1188 750 1188 c 0,52,53
 492 1188 492 1188 387 907 c 0,42,43
EndSplineSet
Position2: "'cpsp' Capital Spacing lookup 0 per glyph data 2" dx=10 dy=0 dh=20 dv=0
EndChar

StartChar: Ohungarumlaut
Encoding: 336 336 64
Width: 1329
Flags: MW
HStem: -20 55<515 710> 1188 55<666 862> 1673 18
VStem: 102 201<287 536 287 823> 1073 203<682 937>
LayerCount: 2
UndoRedoHistory
Layer: 1
Undoes
EndUndoes
Redoes
EndRedoes
EndUndoRedoHistory
Fore
SplineSet
764 1673 m 0,0,1
 778 1692 778 1692 802.5 1692 c 128,-1,2
 827 1692 827 1692 862 1673 c 128,-1,3
 897 1654 897 1654 897 1640 c 0,4,5
 897 1634 897 1634 875.5 1611 c 128,-1,6
 854 1588 854 1588 621 1376 c 0,7,8
 609 1364 609 1364 587 1364 c 128,-1,9
 565 1364 565 1364 565 1376 c 128,-1,10
 565 1388 565 1388 573 1399 c 0,11,12
 670 1542 670 1542 764 1673 c 0,0,1
850 1376 m 0,13,14
 836 1364 836 1364 814.5 1364 c 128,-1,15
 793 1364 793 1364 793 1378 c 0,16,17
 793 1383 793 1383 801 1399 c 1,18,19
 929 1575 929 1575 977 1648.5 c 2,20,-1
 993 1673 l 1,21,22
 1010 1692 1010 1692 1032.5 1692 c 128,-1,23
 1055 1692 1055 1692 1089.5 1674.5 c 128,-1,24
 1124 1657 1124 1657 1124 1642 c 0,25,26
 1124 1635 1124 1635 1096 1603 c 128,-1,27
 1068 1571 1068 1571 850 1376 c 0,13,14
137.5 272.5 m 128,-1,29
 102 369 102 369 102 500 c 128,-1,30
 102 631 102 631 128 743 c 128,-1,31
 154 855 154 855 196.5 931 c 128,-1,32
 239 1007 239 1007 298.5 1065 c 128,-1,33
 358 1123 358 1123 417.5 1156 c 128,-1,34
 477 1189 477 1189 546 1209.5 c 0,35,36
 658.756097561 1243 658.756097561 1243 738.87804878 1243 c 128,-1,37
 819 1243 819 1243 860 1238.5 c 128,-1,38
 901 1234 901 1234 952.5 1219.5 c 128,-1,39
 1004 1205 1004 1205 1048 1182 c 128,-1,40
 1092 1159 1092 1159 1135 1119.5 c 128,-1,41
 1178 1080 1178 1080 1208.5 1027.5 c 0,42,43
 1276 911.31147541 1276 911.31147541 1276 752.655737705 c 128,-1,44
 1276 594 1276 594 1249.5 482 c 128,-1,45
 1223 370 1223 370 1180.5 294 c 128,-1,46
 1138 218 1138 218 1078.5 159.5 c 128,-1,47
 1019 101 1019 101 958.5 68 c 128,-1,48
 898 35 898 35 829.5 14.5 c 0,49,50
 560.810679288 -65.9106726218 560.810679288 -65.9106726218 348 34.5 c 0,51,52
 277 68 277 68 225 122 c 128,-1,28
 173 176 173 176 137.5 272.5 c 128,-1,29
387 907 m 0,53,54
 303 685 303 685 303 450 c 128,-1,55
 303 215 303 215 379 125 c 128,-1,56
 455 35 455 35 627 35 c 0,57,58
 871 35 871 35 979 285 c 1,59,60
 1073 507 1073 507 1073 757.5 c 128,-1,61
 1073 1008 1073 1008 998 1098 c 128,-1,62
 923 1188 923 1188 750 1188 c 0,63,64
 492 1188 492 1188 387 907 c 0,53,54
EndSplineSet
EndChar

StartChar: Omacron
Encoding: 332 332 65
Width: 1329
Flags: MW
HStem: -20 55<515 710> 1188 55<666 862> 1384 82<553 1036 541 1049>
VStem: 102 201<287 536 287 823> 1073 203<682 937>
LayerCount: 2
UndoRedoHistory
Layer: 1
Undoes
EndUndoes
Redoes
EndRedoes
EndUndoRedoHistory
Fore
SplineSet
1036 1384 m 1,0,-1
 541 1384 l 1,1,-1
 553 1466 l 1,2,-1
 1049 1466 l 1,3,-1
 1036 1384 l 1,0,-1
137.5 272.5 m 128,-1,5
 102 369 102 369 102 500 c 128,-1,6
 102 631 102 631 128 743 c 128,-1,7
 154 855 154 855 196.5 931 c 128,-1,8
 239 1007 239 1007 298.5 1065 c 128,-1,9
 358 1123 358 1123 417.5 1156 c 128,-1,10
 477 1189 477 1189 546 1209.5 c 0,11,12
 658.756097561 1243 658.756097561 1243 738.87804878 1243 c 128,-1,13
 819 1243 819 1243 860 1238.5 c 128,-1,14
 901 1234 901 1234 952.5 1219.5 c 128,-1,15
 1004 1205 1004 1205 1048 1182 c 128,-1,16
 1092 1159 1092 1159 1135 1119.5 c 128,-1,17
 1178 1080 1178 1080 1208.5 1027.5 c 0,18,19
 1276 911.31147541 1276 911.31147541 1276 752.655737705 c 128,-1,20
 1276 594 1276 594 1249.5 482 c 128,-1,21
 1223 370 1223 370 1180.5 294 c 128,-1,22
 1138 218 1138 218 1078.5 159.5 c 128,-1,23
 1019 101 1019 101 958.5 68 c 128,-1,24
 898 35 898 35 829.5 14.5 c 0,25,26
 560.810679288 -65.9106726218 560.810679288 -65.9106726218 348 34.5 c 0,27,28
 277 68 277 68 225 122 c 128,-1,4
 173 176 173 176 137.5 272.5 c 128,-1,5
387 907 m 0,29,30
 303 685 303 685 303 450 c 128,-1,31
 303 215 303 215 379 125 c 128,-1,32
 455 35 455 35 627 35 c 0,33,34
 871 35 871 35 979 285 c 1,35,36
 1073 507 1073 507 1073 757.5 c 128,-1,37
 1073 1008 1073 1008 998 1098 c 128,-1,38
 923 1188 923 1188 750 1188 c 0,39,40
 492 1188 492 1188 387 907 c 0,29,30
EndSplineSet
EndChar

StartChar: Oslash
Encoding: 216 216 66
Width: 1318
Flags: MW
HStem: -20 55<571 710> 1069 41G<987 987> 1188 55<666 803>
VStem: 102 201<392 536 388 823> 1073 203<682 835 401 839>
LayerCount: 2
UndoRedoHistory
Layer: 1
Undoes
EndUndoes
Redoes
EndRedoes
EndUndoRedoHistory
Fore
SplineSet
1110 1141 m 1,0,1
 1276 1010 1276 1010 1276 729 c 0,2,3
 1276 353.680672269 1276 353.680672269 1078.5 159.5 c 0,4,5
 895.931623932 -20 895.931623932 -20 600 -20 c 0,6,7
 444 -20 444 -20 330 43 c 1,8,-1
 166 -188 l 1,9,-1
 94 -152 l 1,10,-1
 262 86 l 1,11,12
 102 221 102 221 102 496 c 0,13,14
 102 873.453781513 102 873.453781513 298.5 1065 c 0,15,16
 481.103448276 1243 481.103448276 1243 776 1243 c 0,17,18
 926 1243 926 1243 1040 1186 c 1,19,-1
 1196 1407 l 1,20,-1
 1268 1364 l 1,21,-1
 1110 1141 l 1,0,1
987 1110 m 1,22,23
 912 1188 912 1188 750 1188 c 0,24,25
 492 1188 492 1188 387 907 c 0,26,27
 303 685 303 685 303 440 c 0,28,29
 303 285 303 285 340 195 c 1,30,-1
 987 1110 l 1,22,23
385 119 m 1,31,32
 458 35 458 35 627 35 c 0,33,34
 871 35 871 35 979 285 c 1,35,36
 1073 507 1073 507 1073 784 c 0,37,38
 1073 948 1073 948 1034 1036 c 1,39,-1
 385 119 l 1,31,32
EndSplineSet
Position2: "'cpsp' Capital Spacing lookup 0 per glyph data 2" dx=10 dy=0 dh=20 dv=0
EndChar

StartChar: Otilde
Encoding: 213 213 67
Width: 1329
Flags: MW
HStem: -20 55<515 710> 1188 55<666 862> 1382 100<943 984> 1470 100<622 664>
VStem: 102 201<287 536 287 823> 502 41<1384 1384> 1063 41<1569 1569> 1073 203<682 937>
LayerCount: 2
UndoRedoHistory
Layer: 1
Undoes
EndUndoes
Redoes
EndRedoes
EndUndoRedoHistory
Fore
SplineSet
502 1384 m 1,0,1
 513 1461 513 1461 558 1516 c 128,-1,2
 603 1571 603 1571 653.5 1571 c 128,-1,3
 704 1571 704 1571 824 1527 c 128,-1,4
 944 1483 944 1483 978 1483 c 128,-1,5
 1012 1483 1012 1483 1035.5 1507.5 c 128,-1,6
 1059 1532 1059 1532 1063 1569 c 1,7,-1
 1104 1569 l 1,8,9
 1093 1493 1093 1493 1047.5 1437.5 c 128,-1,10
 1002 1382 1002 1382 951 1382 c 128,-1,11
 900 1382 900 1382 781.5 1426 c 128,-1,12
 663 1470 663 1470 628.5 1470 c 128,-1,13
 594 1470 594 1470 571.5 1445.5 c 128,-1,14
 549 1421 549 1421 543 1384 c 1,15,-1
 502 1384 l 1,0,1
137.5 272.5 m 128,-1,17
 102 369 102 369 102 500 c 128,-1,18
 102 631 102 631 128 743 c 128,-1,19
 154 855 154 855 196.5 931 c 128,-1,20
 239 1007 239 1007 298.5 1065 c 128,-1,21
 358 1123 358 1123 417.5 1156 c 128,-1,22
 477 1189 477 1189 546 1209.5 c 0,23,24
 658.756097561 1243 658.756097561 1243 738.87804878 1243 c 128,-1,25
 819 1243 819 1243 860 1238.5 c 128,-1,26
 901 1234 901 1234 952.5 1219.5 c 128,-1,27
 1004 1205 1004 1205 1048 1182 c 128,-1,28
 1092 1159 1092 1159 1135 1119.5 c 128,-1,29
 1178 1080 1178 1080 1208.5 1027.5 c 0,30,31
 1276 911.31147541 1276 911.31147541 1276 752.655737705 c 128,-1,32
 1276 594 1276 594 1249.5 482 c 128,-1,33
 1223 370 1223 370 1180.5 294 c 128,-1,34
 1138 218 1138 218 1078.5 159.5 c 128,-1,35
 1019 101 1019 101 958.5 68 c 128,-1,36
 898 35 898 35 829.5 14.5 c 0,37,38
 560.810679288 -65.9106726218 560.810679288 -65.9106726218 348 34.5 c 0,39,40
 277 68 277 68 225 122 c 128,-1,16
 173 176 173 176 137.5 272.5 c 128,-1,17
387 907 m 0,41,42
 303 685 303 685 303 450 c 128,-1,43
 303 215 303 215 379 125 c 128,-1,44
 455 35 455 35 627 35 c 0,45,46
 871 35 871 35 979 285 c 1,47,48
 1073 507 1073 507 1073 757.5 c 128,-1,49
 1073 1008 1073 1008 998 1098 c 128,-1,50
 923 1188 923 1188 750 1188 c 0,51,52
 492 1188 492 1188 387 907 c 0,41,42
EndSplineSet
Position2: "'cpsp' Capital Spacing lookup 0 per glyph data 2" dx=10 dy=0 dh=20 dv=0
EndChar

StartChar: OE
Encoding: 338 338 68
Width: 1708
Flags: MW
HStem: -20 57<502 612> 0 55<1008 1235 1235 1325> 608 55<1071 1210 1063 1219> 831 41G<1397 1456 1456 1456> 907 315<1589 1649 1589 1589> 1165 57<1156 1163 1163 1350> 1190 53<656 825>
VStem: 102 193<324 516 296 711> 1333 55<399 494> 1397 59<872 872> 1595 53
LayerCount: 2
UndoRedoHistory
Layer: 1
Undoes
EndUndoes
Redoes
EndRedoes
EndUndoRedoHistory
Fore
SplineSet
889 0 m 2,0,1
 770 0 770 0 610 -20 c 1,2,3
 363 -20 363 -20 232.5 110.5 c 128,-1,4
 102 241 102 241 102 485 c 0,5,6
 102 831.345454545 102 831.345454545 265.5 1032.5 c 0,7,8
 436.596059113 1243 436.596059113 1243 793 1243 c 0,9,10
 846 1243 846 1243 923 1233 c 128,-1,11
 1000 1223 1000 1223 1044 1223 c 2,12,-1
 1694 1223 l 1,13,-1
 1649 907 l 1,14,-1
 1589 907 l 1,15,16
 1595 944 1595 944 1595 975 c 0,17,18
 1595 1076 1595 1076 1536.5 1120.5 c 128,-1,19
 1478 1165 1478 1165 1350 1165 c 2,20,-1
 1163 1165 l 2,21,22
 1140 1165 1140 1165 1137 1137 c 2,23,-1
 1071 664 l 1,24,-1
 1219 664 l 2,25,26
 1284 664 1284 664 1334 720 c 128,-1,27
 1384 776 1384 776 1397 872 c 1,28,-1
 1456 872 l 1,29,-1
 1389 399 l 1,30,-1
 1329 399 l 1,31,32
 1333 431 1333 431 1333 444 c 0,33,34
 1333 517 1333 517 1298 562.5 c 128,-1,35
 1263 608 1263 608 1210 608 c 2,36,-1
 1063 608 l 1,37,-1
 989 82 l 1,38,-1
 989 76 l 2,39,40
 989 55 989 55 1008 55 c 2,41,-1
 1235 55 l 2,42,43
 1369 55 1369 55 1450.5 136 c 128,-1,44
 1532 217 1532 217 1552 367 c 1,45,-1
 1612 367 l 1,46,-1
 1561 -6 l 1,47,48
 1508 0 1508 0 1382 0 c 2,49,-1
 889 0 l 2,0,1
948 1077 m 2,50,51
 954 1124 954 1124 903 1157 c 128,-1,52
 852 1190 852 1190 772 1190 c 0,53,54
 451 1190 451 1190 352 864 c 1,55,56
 295 711 295 711 295 434 c 0,57,58
 295 227 295 227 371 132 c 128,-1,59
 447 37 447 37 610 37 c 0,60,61
 802 37 802 37 823 184 c 2,62,-1
 948 1077 l 2,50,51
EndSplineSet
Position2: "'cpsp' Capital Spacing lookup 0 per glyph data 2" dx=10 dy=0 dh=20 dv=0
EndChar

StartChar: P
Encoding: 80 80 69
Width: 1038
Flags: MW
HStem: 0 55<125 136 375 385> 539 57<424 588 588 621 416 588> 1165 57<279 279 520 524 524 635>
VStem: 842 197<844 1006>
LayerCount: 2
UndoRedoHistory
Layer: 1
Undoes
EndUndoes
Redoes
EndRedoes
EndUndoRedoHistory
Fore
SplineSet
166 100 m 2,0,-1
 311 1135 l 1,1,2
 311 1168 311 1168 279 1165 c 1,3,-1
 201 1161 l 1,4,-1
 209 1223 l 1,5,-1
 676 1223 l 2,6,7
 1038 1223 1038 1223 1038 948 c 0,8,9
 1038 766 1038 766 923.5 652.5 c 128,-1,10
 809 539 809 539 621 539 c 2,11,-1
 416 539 l 1,12,-1
 354 100 l 1,13,-1
 354 90 l 2,14,15
 354 55 354 55 385 55 c 1,16,-1
 485 59 l 1,17,-1
 477 0 l 1,18,-1
 37 0 l 1,19,-1
 45 59 l 1,20,-1
 125 55 l 1,21,22
 160 55 160 55 166 100 c 2,0,-1
524 1165 m 2,23,24
 517 1165 517 1165 509 1158 c 128,-1,25
 501 1151 501 1151 500 1141 c 2,26,-1
 424 596 l 1,27,-1
 588 596 l 2,28,29
 690 596 690 596 766 697 c 128,-1,30
 842 798 842 798 842 919.5 c 128,-1,31
 842 1041 842 1041 787 1103 c 128,-1,32
 732 1165 732 1165 635 1165 c 2,33,-1
 524 1165 l 2,23,24
EndSplineSet
Position2: "'cpsp' Capital Spacing lookup 0 per glyph data 2" dx=10 dy=0 dh=20 dv=0
EndChar

StartChar: Thorn
Encoding: 222 222 70
Width: 1040
Flags: MW
HStem: 0 55<125 137> 332 53<418 553 553 590 389 553> 965 51<477 643 485 604> 1165 57<281 291 530 541>
VStem: 815 197<636 801>
LayerCount: 2
UndoRedoHistory
Layer: 1
Undoes
EndUndoes
Redoes
EndRedoes
EndUndoRedoHistory
Fore
SplineSet
354 86 m 1,0,1
 354 53.0625 354 53.0625 385 55 c 2,2,-1
 485 59 l 1,3,-1
 477 0 l 1,4,-1
 37 0 l 1,5,-1
 45 59 l 1,6,-1
 125 55 l 1,7,8
 160 55 160 55 166 100 c 2,9,-1
 309 1122 l 1,10,-1
 309 1133 l 2,11,12
 309 1165 309 1165 281 1165 c 1,13,-1
 201 1161 l 1,14,-1
 209 1223 l 1,15,-1
 649 1223 l 1,16,-1
 641 1161 l 1,17,-1
 541 1165 l 2,18,19
 526 1165 526 1165 514.5 1152.5 c 128,-1,20
 503 1140 503 1140 500 1122 c 2,21,-1
 485 1016 l 1,22,-1
 643 1016 l 2,23,24
 831 1016 831 1016 921.5 949 c 128,-1,25
 1012 882 1012 882 1012 741 c 0,26,27
 1012 557 1012 557 897 444.5 c 128,-1,28
 782 332 782 332 590 332 c 2,29,-1
 389 332 l 1,30,-1
 354 86 l 1,0,1
477 965 m 1,31,-1
 399 412 l 1,32,-1
 399 408 l 2,33,34
 399 399 399 399 405 392 c 128,-1,35
 411 385 411 385 418 385 c 2,36,-1
 553 385 l 2,37,38
 652 385 652 385 733.5 488.5 c 128,-1,39
 815 592 815 592 815 714.5 c 128,-1,40
 815 837 815 837 759.5 901 c 128,-1,41
 704 965 704 965 604 965 c 2,42,-1
 477 965 l 1,31,-1
EndSplineSet
Position2: "'cpsp' Capital Spacing lookup 0 per glyph data 2" dx=10 dy=0 dh=20 dv=0
EndChar

StartChar: Q
Encoding: 81 81 71
Width: 1329
Flags: MW
HStem: -319 119<985 992> -47 41G -20 55<515 600> 1188 55<666 862>
VStem: 102 201<287 536 287 823> 1073 203<682 937>
LayerCount: 2
UndoRedoHistory
Layer: 1
Undoes
EndUndoes
Redoes
EndRedoes
EndUndoRedoHistory
Fore
SplineSet
1206 -229 m 1,0,1
 1063 -319 1063 -319 963 -319 c 128,-1,2
 863 -319 863 -319 779 -247.5 c 128,-1,3
 695 -176 695 -176 600 -20 c 1,4,5
 463.507462687 -20 463.507462687 -20 370.253731343 24 c 128,-1,6
 277 68 277 68 225 122 c 128,-1,7
 173 176 173 176 137.5 272.5 c 128,-1,8
 102 369 102 369 102 500 c 128,-1,9
 102 631 102 631 128 743 c 128,-1,10
 154 855 154 855 196.5 931 c 128,-1,11
 239 1007 239 1007 298.5 1065 c 128,-1,12
 358 1123 358 1123 417.5 1156 c 128,-1,13
 477 1189 477 1189 546 1209.5 c 0,14,15
 658.756097561 1243 658.756097561 1243 738.87804878 1243 c 128,-1,16
 819 1243 819 1243 860 1238.5 c 128,-1,17
 901 1234 901 1234 952.5 1219.5 c 128,-1,18
 1004 1205 1004 1205 1048 1182 c 128,-1,19
 1092 1159 1092 1159 1135 1119.5 c 128,-1,20
 1178 1080 1178 1080 1208.5 1027.5 c 0,21,22
 1276 911.31147541 1276 911.31147541 1276 729 c 0,23,24
 1276 239.537037037 1276 239.537037037 951 65 c 0,25,26
 852.916270219 12.3254043768 852.916270219 12.3254043768 745 -6 c 1,27,28
 825 -114 825 -114 891.5 -157.5 c 128,-1,29
 958 -201 958 -201 1022.5 -201 c 128,-1,30
 1087 -201 1087 -201 1192 -176 c 1,31,-1
 1206 -229 l 1,0,1
387 907 m 0,32,33
 303 685 303 685 303 450 c 128,-1,34
 303 215 303 215 379 125 c 128,-1,35
 455 35 455 35 627 35 c 0,36,37
 871 35 871 35 979 285 c 1,38,39
 1073 507 1073 507 1073 757.5 c 128,-1,40
 1073 1008 1073 1008 998 1098 c 128,-1,41
 923 1188 923 1188 750 1188 c 0,42,43
 492 1188 492 1188 387 907 c 0,32,33
EndSplineSet
Position2: "'cpsp' Capital Spacing lookup 0 per glyph data 2" dx=10 dy=0 dh=20 dv=0
EndChar

StartChar: R
Encoding: 82 82 72
Width: 1153
Flags: MW
HStem: -20 74<842 1010> 0 55<125 136 375 385> 586 55<430 518 422 612> 1165 57<272 287 518 524 524 647>
VStem: 760 190<77 421> 844 190<863 1027>
LayerCount: 2
UndoRedoHistory
Layer: 1
Undoes
EndUndoes
Redoes
EndRedoes
EndUndoRedoHistory
Fore
SplineSet
307 1110 m 1,0,-1
 309 1128 l 1,1,2
 309 1148 309 1148 301 1156.5 c 128,-1,3
 293 1165 293 1165 272 1165 c 1,4,-1
 201 1161 l 1,5,-1
 209 1223 l 1,6,-1
 655 1223 l 2,7,8
 850 1223 850 1223 942 1158.5 c 128,-1,9
 1034 1094 1034 1094 1034 958 c 128,-1,10
 1034 822 1034 822 953.5 731.5 c 128,-1,11
 873 641 873 641 748 608 c 1,12,13
 950 580.54368932 950 580.54368932 950 352 c 1,14,-1
 942 141 l 1,15,16
 942 53 942 53 1001 53 c 0,17,18
 1024 53 1024 53 1044 66 c 1,19,-1
 1061 27 l 1,20,21
 976.894736842 -20 976.894736842 -20 898.447368421 -20 c 128,-1,22
 820 -20 820 -20 790 15.5 c 128,-1,23
 760 51 760 51 760 131 c 1,24,-1
 772 330 l 1,25,26
 772 458 772 458 701 519.5 c 128,-1,27
 630 581 630 581 518 586 c 1,28,-1
 422 586 l 1,29,-1
 354 84 l 1,30,31
 354 55 354 55 385 55 c 1,32,-1
 485 59 l 1,33,-1
 477 0 l 1,34,-1
 37 0 l 1,35,-1
 45 59 l 1,36,-1
 125 55 l 1,37,38
 160 55 160 55 166 100 c 2,39,-1
 307 1110 l 1,0,-1
524 1165 m 2,40,41
 505 1165 505 1165 502 1145 c 2,42,-1
 430 641 l 1,43,-1
 612 641 l 2,44,45
 715 641 715 641 779.5 726.5 c 128,-1,46
 844 812 844 812 844 938 c 128,-1,47
 844 1064 844 1064 797 1114.5 c 128,-1,48
 750 1165 750 1165 647 1165 c 2,49,-1
 524 1165 l 2,40,41
EndSplineSet
Position2: "'cpsp' Capital Spacing lookup 0 per glyph data 2" dx=10 dy=0 dh=20 dv=0
EndChar

StartChar: Racute
Encoding: 340 340 73
Width: 1153
Flags: MW
HStem: -20 74<842 1010> 0 55<125 136 375 385> 586 55<430 518 422 612> 1165 57<272 287 518 524 524 647>
VStem: 760 190<77 421> 844 190<863 1027>
LayerCount: 2
UndoRedoHistory
Layer: 1
Undoes
EndUndoes
Redoes
EndRedoes
EndUndoRedoHistory
Fore
SplineSet
827 1649 m 1,0,1
 852 1676 852 1676 864.5 1684 c 128,-1,2
 877 1692 877 1692 905 1692 c 128,-1,3
 933 1692 933 1692 971.5 1671.5 c 128,-1,4
 1010 1651 1010 1651 1010 1640.5 c 128,-1,5
 1010 1630 1010 1630 989 1614 c 1,6,-1
 639 1382 l 1,7,8
 615 1364 615 1364 591 1364 c 128,-1,9
 567 1364 567 1364 567 1378 c 0,10,11
 567 1386 567 1386 608 1427 c 2,12,-1
 827 1649 l 1,0,1
307 1110 m 1,13,-1
 309 1128 l 1,14,15
 309 1148 309 1148 301 1156.5 c 128,-1,16
 293 1165 293 1165 272 1165 c 1,17,-1
 201 1161 l 1,18,-1
 209 1223 l 1,19,-1
 655 1223 l 2,20,21
 850 1223 850 1223 942 1158.5 c 128,-1,22
 1034 1094 1034 1094 1034 958 c 128,-1,23
 1034 822 1034 822 953.5 731.5 c 128,-1,24
 873 641 873 641 748 608 c 1,25,26
 950 580.54368932 950 580.54368932 950 352 c 1,27,-1
 942 141 l 1,28,29
 942 53 942 53 1001 53 c 0,30,31
 1024 53 1024 53 1044 66 c 1,32,-1
 1061 27 l 1,33,34
 976.894736842 -20 976.894736842 -20 898.447368421 -20 c 128,-1,35
 820 -20 820 -20 790 15.5 c 128,-1,36
 760 51 760 51 760 131 c 1,37,-1
 772 330 l 1,38,39
 772 458 772 458 701 519.5 c 128,-1,40
 630 581 630 581 518 586 c 1,41,-1
 422 586 l 1,42,-1
 354 84 l 1,43,44
 354 55 354 55 385 55 c 1,45,-1
 485 59 l 1,46,-1
 477 0 l 1,47,-1
 37 0 l 1,48,-1
 45 59 l 1,49,-1
 125 55 l 1,50,51
 160 55 160 55 166 100 c 2,52,-1
 307 1110 l 1,13,-1
524 1165 m 2,53,54
 505 1165 505 1165 502 1145 c 2,55,-1
 430 641 l 1,56,-1
 612 641 l 2,57,58
 715 641 715 641 779.5 726.5 c 128,-1,59
 844 812 844 812 844 938 c 128,-1,60
 844 1064 844 1064 797 1114.5 c 128,-1,61
 750 1165 750 1165 647 1165 c 2,62,-1
 524 1165 l 2,53,54
EndSplineSet
EndChar

StartChar: Rcaron
Encoding: 344 344 74
Width: 1153
Flags: MW
HStem: -20 74<842 1010> 0 55<125 136 375 385> 586 55<430 518 422 612> 1165 57<272 287 518 524 524 647>
VStem: 760 190<77 421> 844 190<863 1027>
LayerCount: 2
UndoRedoHistory
Layer: 1
Undoes
EndUndoes
Redoes
EndRedoes
EndUndoRedoHistory
Fore
SplineSet
438 1671 m 0,0,1
 438 1688 438 1688 461.5 1688 c 128,-1,2
 485 1688 485 1688 520 1663 c 1,3,-1
 719 1513 l 1,4,-1
 965 1663 l 1,5,6
 1010 1688 1010 1688 1028.5 1688 c 128,-1,7
 1047 1688 1047 1688 1047 1673 c 0,8,9
 1047 1666 1047 1666 1024.5 1648 c 0,10,11
 913.034482759 1558.82758621 913.034482759 1558.82758621 870 1518 c 2,12,-1
 768 1419 l 1,13,14
 714 1368 714 1368 699 1368 c 128,-1,15
 684 1368 684 1368 645 1419 c 2,16,-1
 571 1518 l 2,17,18
 529 1574 529 1574 483.5 1619.5 c 128,-1,19
 438 1665 438 1665 438 1671 c 0,0,1
307 1110 m 1,20,-1
 309 1128 l 1,21,22
 309 1148 309 1148 301 1156.5 c 128,-1,23
 293 1165 293 1165 272 1165 c 1,24,-1
 201 1161 l 1,25,-1
 209 1223 l 1,26,-1
 655 1223 l 2,27,28
 850 1223 850 1223 942 1158.5 c 128,-1,29
 1034 1094 1034 1094 1034 958 c 128,-1,30
 1034 822 1034 822 953.5 731.5 c 128,-1,31
 873 641 873 641 748 608 c 1,32,33
 950 580.54368932 950 580.54368932 950 352 c 1,34,35
 942 141 l 1,36,37
 942 53 942 53 1001 53 c 0,38,39
 1024 53 1024 53 1044 66 c 1,40,-1
 1061 27 l 1,41,42
 976.894736842 -20 976.894736842 -20 898.447368421 -20 c 128,-1,43
 820 -20 820 -20 790 15.5 c 128,-1,44
 760 51 760 51 760 131 c 1,45,-1
 772 330 l 1,46,47
 772 458 772 458 701 519.5 c 128,-1,48
 630 581 630 581 518 586 c 1,49,-1
 422 586 l 1,50,-1
 354 84 l 1,51,52
 354 55 354 55 385 55 c 1,53,-1
 485 59 l 1,54,-1
 477 0 l 1,55,-1
 37 0 l 1,56,-1
 45 59 l 1,57,-1
 125 55 l 1,58,59
 160 55 160 55 166 100 c 2,60,-1
 307 1110 l 1,20,-1
524 1165 m 2,61,62
 505 1165 505 1165 502 1145 c 2,63,-1
 430 641 l 1,64,-1
 612 641 l 2,65,66
 715 641 715 641 779.5 726.5 c 128,-1,67
 844 812 844 812 844 938 c 128,-1,68
 844 1064 844 1064 797 1114.5 c 128,-1,69
 750 1165 750 1165 647 1165 c 2,70,-1
 524 1165 l 2,61,62
EndSplineSet
EndChar

StartChar: Rcommaaccent
Encoding: 342 342 75
Width: 1153
Flags: MW
HStem: -227 158<438 546> -20 74<842 1010> 0 55<125 136 375 385> 586 55<430 518 422 612> 1165 57<272 287 518 524 524 647>
VStem: 504 115 760 190<77 421> 844 190<863 1027>
LayerCount: 2
UndoRedoHistory
Layer: 1
Undoes
EndUndoes
Redoes
EndRedoes
EndUndoRedoHistory
Fore
SplineSet
307 1110 m 1,0,-1
 309 1128 l 1,1,2
 309 1148 309 1148 301 1156.5 c 128,-1,3
 293 1165 293 1165 272 1165 c 1,4,-1
 201 1161 l 1,5,-1
 209 1223 l 1,6,-1
 655 1223 l 2,7,8
 850 1223 850 1223 942 1158.5 c 128,-1,9
 1034 1094 1034 1094 1034 958 c 128,-1,10
 1034 822 1034 822 953.5 731.5 c 128,-1,11
 873 641 873 641 748 608 c 1,12,13
 950 580.54368932 950 580.54368932 950 352 c 1,14,-1
 942 141 l 1,15,16
 942 53 942 53 1001 53 c 0,17,18
 1024 53 1024 53 1044 66 c 1,19,-1
 1061 27 l 1,20,21
 976.894736842 -20 976.894736842 -20 898.447368421 -20 c 128,-1,22
 820 -20 820 -20 790 15.5 c 128,-1,23
 760 51 760 51 760 131 c 1,24,-1
 772 330 l 1,25,26
 772 458 772 458 701 519.5 c 128,-1,27
 630 581 630 581 518 586 c 1,28,-1
 422 586 l 1,29,-1
 354 84 l 1,30,31
 354 55 354 55 385 55 c 1,32,-1
 485 59 l 1,33,-1
 477 0 l 1,34,-1
 37 0 l 1,35,-1
 45 59 l 1,36,-1
 125 55 l 1,37,38
 160 55 160 55 166 100 c 2,39,-1
 307 1110 l 1,0,-1
524 1165 m 2,40,41
 505 1165 505 1165 502 1145 c 2,42,-1
 430 641 l 1,43,-1
 612 641 l 2,44,45
 715 641 715 641 779.5 726.5 c 128,-1,46
 844 812 844 812 844 938 c 128,-1,47
 844 1064 844 1064 797 1114.5 c 128,-1,48
 750 1165 750 1165 647 1165 c 2,49,-1
 524 1165 l 2,40,41
387 -410 m 1,50,51
 431 -386 431 -386 466 -350 c 128,-1,52
 501 -314 501 -314 504 -287 c 0,53,54
 512 -227 512 -227 455 -227 c 0,55,56
 431 -227 431 -227 416 -209.5 c 128,-1,57
 401 -192 401 -192 401 -160.5 c 128,-1,58
 401 -129 401 -129 431 -99.5 c 128,-1,59
 461 -70 461 -70 511 -70 c 128,-1,60
 561 -70 561 -70 589.5 -101 c 128,-1,61
 618 -132 618 -132 618 -178 c 0,62,63
 618 -260 618 -260 557.5 -330 c 128,-1,64
 497 -400 497 -400 416 -436 c 1,65,-1
 387 -410 l 1,50,51
EndSplineSet
EndChar

StartChar: S
Encoding: 83 83 76
Width: 980
Flags: MW
HStem: -20 57<434 517> 889 283<883 899 883 915 858 899> 1188 55<535 637 457 683>
VStem: 92 53<234 416> 170 180<929 985 929 990> 702 195<246 337> 862 51<930 1014>
LayerCount: 2
UndoRedoHistory
Layer: 1
Undoes
EndUndoes
Redoes
EndRedoes
EndUndoRedoHistory
Fore
SplineSet
399 590 m 1,0,1
 226.595929511 686.148423927 226.595929511 686.148423927 187.5 794.5 c 0,2,3
 170 843 170 843 170 903 c 0,4,5
 170 1042 170 1042 284.5 1142.5 c 128,-1,6
 399 1243 399 1243 592 1243 c 0,7,8
 665.8 1243 665.8 1243 716.4 1226.5 c 128,-1,9
 767 1210 767 1210 819 1190.5 c 128,-1,10
 871 1171 871 1171 895.5 1171 c 128,-1,11
 920 1171 920 1171 952 1182 c 1,12,13
 952 1180 952 1180 942.5 1152.5 c 128,-1,14
 933 1125 933 1125 928 1105 c 0,15,16
 913 1045 913 1045 913 972 c 128,-1,17
 913 899 913 899 915 889 c 1,18,-1
 858 889 l 1,19,20
 862 921 862 921 862 938 c 0,21,22
 862 1051 862 1051 791.5 1119.5 c 128,-1,23
 721 1188 721 1188 608.5 1188 c 128,-1,24
 496 1188 496 1188 423.5 1132.5 c 128,-1,25
 351 1077 351 1077 350.5 992.5 c 128,-1,26
 350 908 350 908 400 855 c 128,-1,27
 450 802 450 802 547 748 c 2,28,-1
 674 676 l 1,29,30
 840.394927536 579.490942029 840.394927536 579.490942029 880 466.5 c 0,31,32
 897 418 897 418 897 360 c 0,33,34
 897 249 897 249 835.5 161 c 128,-1,35
 774 73 774 73 676 26.5 c 128,-1,36
 578 -20 578 -20 482.5 -20 c 128,-1,37
 387 -20 387 -20 326.5 -5 c 128,-1,38
 266 10 266 10 231 19.5 c 0,39,40
 166.526315789 37 166.526315789 37 144.763157895 37 c 128,-1,41
 123 37 123 37 98.5 33 c 0,42,43
 62.24 27.08 62.24 27.08 41 20 c 1,44,45
 42 23 42 23 50.5 44.5 c 128,-1,46
 59 66 59 66 64.5 86 c 128,-1,47
 70 106 70 106 77 142 c 0,48,49
 92 219.142857143 92 219.142857143 92 313.571428571 c 128,-1,50
 92 408 92 408 90 416 c 1,51,-1
 145 416 l 1,52,53
 136 37 136 37 453 37 c 0,54,55
 552 37 552 37 627 104.5 c 128,-1,56
 702 172 702 172 702 266.5 c 128,-1,57
 702 361 702 361 649.5 421 c 128,-1,58
 597 481 597 481 500 535 c 1,59,-1
 399 590 l 1,0,1
EndSplineSet
Position2: "'cpsp' Capital Spacing lookup 0 per glyph data 2" dx=10 dy=0 dh=20 dv=0
EndChar

StartChar: Sacute
Encoding: 346 346 77
Width: 980
Flags: MW
HStem: -20 57<434 517> 889 283<883 899 883 915 858 899> 1188 55<535 637 457 683>
VStem: 92 53<234 416> 170 180<929 985 929 990> 702 195<246 337> 862 51<930 1014>
LayerCount: 2
UndoRedoHistory
Layer: 1
Undoes
EndUndoes
Redoes
EndRedoes
EndUndoRedoHistory
Fore
SplineSet
752 1649 m 2,0,1
 778 1676 778 1676 789.5 1684 c 128,-1,2
 801 1692 801 1692 829 1692 c 128,-1,3
 857 1692 857 1692 895.5 1671.5 c 128,-1,4
 934 1651 934 1651 934 1640.5 c 128,-1,5
 934 1630 934 1630 913 1614 c 1,6,-1
 563 1382 l 1,7,8
 539 1364 539 1364 515.5 1364 c 128,-1,9
 492 1364 492 1364 492 1375.5 c 128,-1,10
 492 1387 492 1387 532 1427 c 2,11,-1
 752 1649 l 2,0,1
399 590 m 1,12,13
 226.595929511 686.148423927 226.595929511 686.148423927 187.5 794.5 c 0,14,15
 170 843 170 843 170 903 c 0,16,17
 170 1042 170 1042 284.5 1142.5 c 128,-1,18
 399 1243 399 1243 592 1243 c 0,19,20
 665.8 1243 665.8 1243 716.4 1226.5 c 128,-1,21
 767 1210 767 1210 819 1190.5 c 128,-1,22
 871 1171 871 1171 895.5 1171 c 128,-1,23
 920 1171 920 1171 952 1182 c 1,24,25
 952 1180 952 1180 942.5 1152.5 c 128,-1,26
 933 1125 933 1125 928 1105 c 0,27,28
 913 1045 913 1045 913 972 c 128,-1,29
 913 899 913 899 915 889 c 1,30,-1
 858 889 l 1,31,32
 862 921 862 921 862 938 c 0,33,34
 862 1051 862 1051 791.5 1119.5 c 128,-1,35
 721 1188 721 1188 608.5 1188 c 128,-1,36
 496 1188 496 1188 423.5 1132.5 c 128,-1,37
 351 1077 351 1077 350.5 992.5 c 128,-1,38
 350 908 350 908 400 855 c 128,-1,39
 450 802 450 802 547 748 c 2,40,-1
 674 676 l 1,41,42
 840.394927536 579.490942029 840.394927536 579.490942029 880 466.5 c 0,43,44
 897 418 897 418 897 360 c 0,45,46
 897 249 897 249 835.5 161 c 128,-1,47
 774 73 774 73 676 26.5 c 128,-1,48
 578 -20 578 -20 482.5 -20 c 128,-1,49
 387 -20 387 -20 326.5 -5 c 128,-1,50
 266 10 266 10 231 19.5 c 0,51,52
 166.526315789 37 166.526315789 37 144.763157895 37 c 128,-1,53
 123 37 123 37 98.5 33 c 0,54,55
 62.24 27.08 62.24 27.08 41 20 c 1,56,57
 42 23 42 23 50.5 44.5 c 128,-1,58
 59 66 59 66 64.5 86 c 128,-1,59
 70 106 70 106 77 142 c 0,60,61
 92 219.142857143 92 219.142857143 92 313.571428571 c 128,-1,62
 92 408 92 408 90 416 c 1,63,-1
 145 416 l 1,64,65
 136 37 136 37 453 37 c 0,66,67
 552 37 552 37 627 104.5 c 128,-1,68
 702 172 702 172 702 266.5 c 128,-1,69
 702 361 702 361 649.5 421 c 128,-1,70
 597 481 597 481 500 535 c 1,71,-1
 399 590 l 1,12,13
EndSplineSet
EndChar

StartChar: Scaron
Encoding: 352 352 78
Width: 980
Flags: MW
HStem: -20 57<434 517> 889 283<883 899 883 915 858 899> 1188 55<535 637 457 683>
VStem: 92 53<234 416> 170 180<929 985 929 990> 702 195<246 337> 862 51<930 1014>
LayerCount: 2
UndoRedoHistory
Layer: 1
Undoes
EndUndoes
Redoes
EndRedoes
EndUndoRedoHistory
Fore
SplineSet
362 1671 m 0,0,1
 362 1688 362 1688 385.5 1688 c 128,-1,2
 409 1688 409 1688 444 1663 c 1,3,-1
 643 1513 l 1,4,-1
 889 1663 l 1,5,6
 934 1688 934 1688 952.5 1688 c 128,-1,7
 971 1688 971 1688 971 1673 c 0,8,9
 971 1666 971 1666 948.5 1648 c 0,10,11
 843.413793103 1563.93103448 843.413793103 1563.93103448 795 1518 c 2,12,-1
 692 1419 l 2,13,14
 638 1368 638 1368 623 1368 c 128,-1,15
 608 1368 608 1368 569 1419 c 1,16,-1
 496 1518 l 2,17,18
 457 1570 457 1570 409.5 1617.5 c 128,-1,19
 362 1665 362 1665 362 1671 c 0,0,1
399 590 m 1,20,21
 226.595929511 686.148423927 226.595929511 686.148423927 187.5 794.5 c 0,22,23
 170 843 170 843 170 903 c 0,24,25
 170 1042 170 1042 284.5 1142.5 c 128,-1,26
 399 1243 399 1243 592 1243 c 0,27,28
 665.8 1243 665.8 1243 716.4 1226.5 c 128,-1,29
 767 1210 767 1210 819 1190.5 c 128,-1,30
 871 1171 871 1171 895.5 1171 c 128,-1,31
 920 1171 920 1171 952 1182 c 1,32,33
 952 1180 952 1180 942.5 1152.5 c 128,-1,34
 933 1125 933 1125 928 1105 c 0,35,36
 913 1045 913 1045 913 972 c 128,-1,37
 913 899 913 899 915 889 c 1,38,-1
 858 889 l 1,39,40
 862 921 862 921 862 938 c 0,41,42
 862 1051 862 1051 791.5 1119.5 c 128,-1,43
 721 1188 721 1188 608.5 1188 c 128,-1,44
 496 1188 496 1188 423.5 1132.5 c 128,-1,45
 351 1077 351 1077 350.5 992.5 c 128,-1,46
 350 908 350 908 400 855 c 128,-1,47
 450 802 450 802 547 748 c 2,48,-1
 674 676 l 1,49,50
 840.394927536 579.490942029 840.394927536 579.490942029 880 466.5 c 0,51,52
 897 418 897 418 897 360 c 0,53,54
 897 249 897 249 835.5 161 c 128,-1,55
 774 73 774 73 676 26.5 c 128,-1,56
 578 -20 578 -20 482.5 -20 c 128,-1,57
 387 -20 387 -20 326.5 -5 c 128,-1,58
 266 10 266 10 231 19.5 c 0,59,60
 166.526315789 37 166.526315789 37 144.763157895 37 c 128,-1,61
 123 37 123 37 98.5 33 c 0,62,63
 62.24 27.08 62.24 27.08 41 20 c 1,64,65
 42 23 42 23 50.5 44.5 c 128,-1,66
 59 66 59 66 64.5 86 c 128,-1,67
 70 106 70 106 77 142 c 0,68,69
 92 219.142857143 92 219.142857143 92 313.571428571 c 128,-1,70
 92 408 92 408 90 416 c 1,71,-1
 145 416 l 1,72,73
 136 37 136 37 453 37 c 0,74,75
 552 37 552 37 627 104.5 c 128,-1,76
 702 172 702 172 702 266.5 c 128,-1,77
 702 361 702 361 649.5 421 c 128,-1,78
 597 481 597 481 500 535 c 1,79,-1
 399 590 l 1,20,21
EndSplineSet
Position2: "'cpsp' Capital Spacing lookup 0 per glyph data 2" dx=10 dy=0 dh=20 dv=0
EndChar

StartChar: Scedilla
Encoding: 350 350 79
Width: 980
Flags: MW
HStem: -438 55<361 366 321 447> -18 55<434 434 508 508> 889 283<858 899 883 899 883 915> 1188 55<535 637 457 683>
VStem: 92 53<234 416> 170 180<929 985 929 990> 340 100<-140 -131> 453 139<-294 -251> 702 195<253 337> 862 51<930 1014>
LayerCount: 2
UndoRedoHistory
Layer: 1
Undoes
EndUndoes
Redoes
EndRedoes
EndUndoRedoHistory
Fore
SplineSet
858 889 m 1,0,1
 862 921 862 921 862 938 c 0,2,3
 862 1051 862 1051 791.5 1119.5 c 128,-1,4
 721 1188 721 1188 608.5 1188 c 128,-1,5
 496 1188 496 1188 423.5 1132.5 c 128,-1,6
 351 1077 351 1077 350.5 992.5 c 128,-1,7
 350 908 350 908 400 855 c 128,-1,8
 450 802 450 802 547 748 c 2,9,-1
 674 676 l 1,10,11
 840.394927536 579.490942029 840.394927536 579.490942029 880 466.5 c 0,12,13
 897 418 897 418 897 360 c 0,14,15
 897 204 897 204 783.5 100 c 128,-1,16
 670 -4 670 -4 508 -18 c 1,17,-1
 459 -88 l 1,18,19
 440 -113 440 -113 440 -128.5 c 128,-1,20
 440 -144 440 -144 464 -153 c 128,-1,21
 488 -162 488 -162 516 -167.5 c 128,-1,22
 544 -173 544 -173 568 -191.5 c 128,-1,23
 592 -210 592 -210 592 -240 c 0,24,25
 592 -325 592 -325 535 -381.5 c 128,-1,26
 478 -438 478 -438 383 -438 c 128,-1,27
 288 -438 288 -438 244 -406 c 1,28,-1
 268 -350 l 1,29,30
 288 -383 288 -383 334.5 -383 c 128,-1,31
 381 -383 381 -383 417 -348 c 128,-1,32
 453 -313 453 -313 453 -271.5 c 128,-1,33
 453 -230 453 -230 401 -193 c 2,34,-1
 360 -164 l 2,35,36
 340 -151 340 -151 340 -136 c 128,-1,37
 340 -121 340 -121 358 -106 c 1,38,-1
 434 -18 l 1,39,40
 356.790190736 -14.6430517711 356.790190736 -14.6430517711 276.395095368 7.17847411444 c 0,41,42
 166.526315789 37 166.526315789 37 144.763157895 37 c 128,-1,43
 123 37 123 37 98.5 33 c 0,44,45
 62.24 27.08 62.24 27.08 41 20 c 1,46,47
 42 23 42 23 50.5 44.5 c 128,-1,48
 59 66 59 66 64.5 86 c 128,-1,49
 70 106 70 106 77 142 c 0,50,51
 92 219.142857143 92 219.142857143 92 313.571428571 c 128,-1,52
 92 408 92 408 90 416 c 1,53,-1
 145 416 l 1,54,55
 136 37 136 37 453 37 c 0,56,57
 552 37 552 37 627 104.5 c 128,-1,58
 702 172 702 172 702 266.5 c 128,-1,59
 702 361 702 361 649.5 421 c 128,-1,60
 597 481 597 481 500 535 c 1,61,-1
 399 590 l 1,62,63
 226.595929511 686.148423927 226.595929511 686.148423927 187.5 794.5 c 0,64,65
 170 843 170 843 170 903 c 0,66,67
 170 1042 170 1042 284.5 1142.5 c 128,-1,68
 399 1243 399 1243 592 1243 c 0,69,70
 665.8 1243 665.8 1243 716.4 1226.5 c 128,-1,71
 767 1210 767 1210 819 1190.5 c 128,-1,72
 871 1171 871 1171 895.5 1171 c 128,-1,73
 920 1171 920 1171 952 1182 c 1,74,75
 952 1180 952 1180 942.5 1152.5 c 128,-1,76
 933 1125 933 1125 928 1105 c 0,77,78
 913 1045 913 1045 913 972 c 128,-1,79
 913 899 913 899 915 889 c 1,80,-1
 858 889 l 1,0,1
EndSplineSet
EndChar

StartChar: Scommaaccent
Encoding: 536 536 80
Width: 980
Flags: MW
HStem: -227 158<389 497> -20 57<434 517> 889 283<883 899 883 915 858 899> 1188 55<535 637 457 683>
VStem: 92 53<234 416> 170 180<929 985 929 990> 455 115 702 195<246 337> 862 51<930 1014>
LayerCount: 2
UndoRedoHistory
Layer: 1
Undoes
EndUndoes
Redoes
EndRedoes
EndUndoRedoHistory
Fore
SplineSet
399 590 m 1,0,1
 226.595929511 686.148423927 226.595929511 686.148423927 187.5 794.5 c 0,2,3
 170 843 170 843 170 903 c 0,4,5
 170 1042 170 1042 284.5 1142.5 c 128,-1,6
 399 1243 399 1243 592 1243 c 0,7,8
 665.8 1243 665.8 1243 716.4 1226.5 c 128,-1,9
 767 1210 767 1210 819 1190.5 c 128,-1,10
 871 1171 871 1171 895.5 1171 c 128,-1,11
 920 1171 920 1171 952 1182 c 1,12,13
 952 1180 952 1180 942.5 1152.5 c 128,-1,14
 933 1125 933 1125 928 1105 c 0,15,16
 913 1045 913 1045 913 972 c 128,-1,17
 913 899 913 899 915 889 c 1,18,-1
 858 889 l 1,19,20
 862 921 862 921 862 938 c 0,21,22
 862 1051 862 1051 791.5 1119.5 c 128,-1,23
 721 1188 721 1188 608.5 1188 c 128,-1,24
 496 1188 496 1188 423.5 1132.5 c 128,-1,25
 351 1077 351 1077 350.5 992.5 c 128,-1,26
 350 908 350 908 400 855 c 128,-1,27
 450 802 450 802 547 748 c 2,28,-1
 674 676 l 1,29,30
 840.394927536 579.490942029 840.394927536 579.490942029 880 466.5 c 0,31,32
 897 418 897 418 897 360 c 0,33,34
 897 249 897 249 835.5 161 c 128,-1,35
 774 73 774 73 676 26.5 c 128,-1,36
 578 -20 578 -20 482.5 -20 c 128,-1,37
 387 -20 387 -20 326.5 -5 c 128,-1,38
 266 10 266 10 231 19.5 c 0,39,40
 166.526315789 37 166.526315789 37 144.763157895 37 c 128,-1,41
 123 37 123 37 98.5 33 c 0,42,43
 62.24 27.08 62.24 27.08 41 20 c 1,44,45
 42 23 42 23 50.5 44.5 c 128,-1,46
 59 66 59 66 64.5 86 c 128,-1,47
 70 106 70 106 77 142 c 0,48,49
 92 219.142857143 92 219.142857143 92 313.571428571 c 128,-1,50
 92 408 92 408 90 416 c 1,51,-1
 145 416 l 1,52,53
 136 37 136 37 453 37 c 0,54,55
 552 37 552 37 627 104.5 c 128,-1,56
 702 172 702 172 702 266.5 c 128,-1,57
 702 361 702 361 649.5 421 c 128,-1,58
 597 481 597 481 500 535 c 1,59,-1
 399 590 l 1,0,1
338 -410 m 1,60,61
 382 -386 382 -386 417 -350 c 128,-1,62
 452 -314 452 -314 455 -287 c 0,63,64
 463 -227 463 -227 406 -227 c 0,65,66
 382 -227 382 -227 367 -209.5 c 128,-1,67
 352 -192 352 -192 352 -160.5 c 128,-1,68
 352 -129 352 -129 382 -99.5 c 128,-1,69
 412 -70 412 -70 462 -70 c 128,-1,70
 512 -70 512 -70 540.5 -101 c 128,-1,71
 569 -132 569 -132 569 -178 c 0,72,73
 569 -260 569 -260 508.5 -330 c 128,-1,74
 448 -400 448 -400 367 -436 c 1,75,-1
 338 -410 l 1,60,61
EndSplineSet
EndChar

StartChar: T
Encoding: 84 84 81
Width: 1048
Flags: MW
HStem: 0 55<342 353 593 602> 907 315<94 1049 94 1049 1028 1049 1049 1071 221 1085 1028 1028> 1165 57<343 430 430 512 737 743 743 825> 1188 41G<1130 1130>
VStem: 1034 51
LayerCount: 2
UndoRedoHistory
Layer: 1
Undoes
EndUndoes
Redoes
EndRedoes
EndUndoRedoHistory
Fore
SplineSet
1085 907 m 1,0,-1
 1028 907 l 1,1,2
 1034 947 1034 947 1034 981 c 0,3,4
 1034 1074 1034 1074 984 1119.5 c 128,-1,5
 934 1165 934 1165 825 1165 c 2,6,-1
 743 1165 l 2,7,8
 723 1165 723 1165 719 1143 c 2,9,-1
 573 100 l 1,10,-1
 573 88 l 2,11,12
 573 55 573 55 602 55 c 1,13,-1
 711 59 l 1,14,-1
 702 0 l 1,15,-1
 223 0 l 1,16,-1
 231 59 l 1,17,-1
 342 55 l 1,18,19
 375 55 375 55 383 106 c 2,20,-1
 528 1141 l 1,21,-1
 528 1147 l 2,22,23
 528 1165 528 1165 512 1165 c 2,24,-1
 430 1165 l 2,25,26
 302 1165 302 1165 236.5 1102.5 c 128,-1,27
 171 1040 171 1040 152 907 c 1,28,-1
 94 907 l 1,29,-1
 139 1227 l 1,30,31
 171 1223 171 1223 221 1223 c 2,32,-1
 1049 1223 l 2,33,34
 1118 1223 1118 1223 1130 1229 c 1,35,-1
 1085 907 l 1,0,-1
EndSplineSet
Position2: "'cpsp' Capital Spacing lookup 0 per glyph data 2" dx=10 dy=0 dh=20 dv=0
EndChar

StartChar: Tcaron
Encoding: 356 356 82
Width: 1048
Flags: MW
HStem: 0 55<342 353 593 602> 907 315<94 1049 94 1049 1028 1049 1049 1071 221 1085 1028 1028> 1165 57<343 430 430 512 737 743 743 825> 1188 41G<1130 1130>
VStem: 1034 51
LayerCount: 2
UndoRedoHistory
Layer: 1
Undoes
EndUndoes
Redoes
EndRedoes
EndUndoRedoHistory
Fore
SplineSet
379 1671 m 0,0,1
 379 1688 379 1688 402.5 1688 c 128,-1,2
 426 1688 426 1688 461 1663 c 1,3,-1
 659 1513 l 1,4,-1
 905 1663 l 1,5,6
 950 1688 950 1688 968.5 1688 c 128,-1,7
 987 1688 987 1688 987 1673 c 0,8,9
 987 1666 987 1666 964.5 1648 c 0,10,11
 859.413793103 1563.93103448 859.413793103 1563.93103448 811 1518 c 2,12,-1
 709 1419 l 1,13,14
 655 1368 655 1368 640 1368 c 128,-1,15
 625 1368 625 1368 586 1419 c 2,16,-1
 512 1518 l 2,17,18
 470 1574 470 1574 424.5 1619.5 c 128,-1,19
 379 1665 379 1665 379 1671 c 0,0,1
1028 907 m 1,20,21
 1034 947 1034 947 1034 981 c 0,22,23
 1034 1074 1034 1074 984 1119.5 c 128,-1,24
 934 1165 934 1165 825 1165 c 2,25,-1
 743 1165 l 2,26,27
 723 1165 723 1165 719 1143 c 2,28,-1
 573 100 l 1,29,-1
 573 88 l 2,30,31
 573 55 573 55 602 55 c 1,32,-1
 711 59 l 1,33,-1
 702 0 l 1,34,-1
 223 0 l 1,35,-1
 231 59 l 1,36,-1
 342 55 l 1,37,38
 375 55 375 55 383 106 c 2,39,-1
 528 1141 l 1,40,-1
 528 1147 l 2,41,42
 528 1165 528 1165 512 1165 c 2,43,-1
 430 1165 l 2,44,45
 302 1165 302 1165 236.5 1102.5 c 128,-1,46
 171 1040 171 1040 152 907 c 1,47,-1
 94 907 l 1,48,-1
 139 1227 l 1,49,50
 171 1223 171 1223 221 1223 c 2,51,-1
 1049 1223 l 2,52,53
 1118 1223 1118 1223 1130 1229 c 1,54,-1
 1085 907 l 1,55,-1
 1028 907 l 1,20,21
EndSplineSet
EndChar

StartChar: Tcedilla
Encoding: 354 354 83
Width: 1048
Flags: MW
HStem: -438 55<359 364 318 445> 0 55<342 353 342 449 593 602> 907 315<94 1049 94 1049 1028 1049 1049 1071 221 1085 1028 1028> 1165 57<343 430 430 512 737 743 743 825> 1188 41G<1130 1130>
VStem: 338 100<-140 -131> 451 139<-294 -251> 1034 51
LayerCount: 2
UndoRedoHistory
Layer: 1
Undoes
EndUndoes
Redoes
EndRedoes
EndUndoRedoHistory
Fore
SplineSet
1049 1223 m 2,0,1
 1118 1223 1118 1223 1130 1229 c 1,2,-1
 1085 907 l 1,3,-1
 1028 907 l 1,4,5
 1034 947 1034 947 1034 981 c 0,6,7
 1034 1074 1034 1074 984 1119.5 c 128,-1,8
 934 1165 934 1165 825 1165 c 2,9,-1
 743 1165 l 2,10,11
 723 1165 723 1165 719 1143 c 2,12,-1
 573 100 l 1,13,-1
 573 88 l 2,14,15
 573 55 573 55 602 55 c 1,16,-1
 711 59 l 1,17,-1
 702 0 l 1,18,-1
 520 0 l 1,19,-1
 457 -88 l 2,20,21
 438 -113 438 -113 438 -128.5 c 0,22,23
 438 -144 438 -144 462 -153 c 128,-1,24
 486 -162 486 -162 514 -167.5 c 128,-1,25
 542 -173 542 -173 566 -191.5 c 128,-1,26
 590 -210 590 -210 590 -240 c 0,27,28
 590 -325 590 -325 533 -381.5 c 128,-1,29
 476 -438 476 -438 381 -438 c 0,30,31
 286 -438 286 -438 242 -406 c 1,32,-1
 266 -350 l 1,33,34
 286 -383 286 -383 332.5 -383 c 0,35,36
 379 -383 379 -383 415 -348 c 128,-1,37
 451 -313 451 -313 451 -271.5 c 0,38,39
 451 -230 451 -230 399 -193 c 2,40,-1
 358 -164 l 2,41,42
 338 -151 338 -151 338 -136 c 0,43,44
 338 -121 338 -121 356 -106 c 1,45,-1
 449 0 l 1,46,-1
 223 0 l 1,47,-1
 231 59 l 1,48,-1
 342 55 l 1,49,50
 375 55 375 55 383 106 c 2,51,-1
 528 1141 l 1,52,-1
 528 1147 l 2,53,54
 528 1165 528 1165 512 1165 c 2,55,-1
 430 1165 l 2,56,57
 302 1165 302 1165 236.5 1102.5 c 128,-1,58
 171 1040 171 1040 152 907 c 1,59,-1
 94 907 l 1,60,-1
 139 1227 l 1,61,62
 171 1223 171 1223 221 1223 c 2,63,-1
 1049 1223 l 2,0,1
EndSplineSet
EndChar

StartChar: uni021A
Encoding: 538 538 84
Width: 1048
Flags: MW
HStem: -227 158<387 495> 0 55<342 353 593 602> 907 315<94 1049 94 1049 1028 1049 1049 1071 221 1085 1028 1028> 1165 57<343 430 430 512 737 743 743 825> 1188 41G<1130 1130>
VStem: 453 115 1034 51
LayerCount: 2
UndoRedoHistory
Layer: 1
Undoes
EndUndoes
Redoes
EndRedoes
EndUndoRedoHistory
Fore
SplineSet
1028 907 m 1,0,1
 1034 947 1034 947 1034 981 c 0,2,3
 1034 1074 1034 1074 984 1119.5 c 128,-1,4
 934 1165 934 1165 825 1165 c 2,5,-1
 743 1165 l 2,6,7
 723 1165 723 1165 719 1143 c 2,8,-1
 573 100 l 1,9,-1
 573 88 l 2,10,11
 573 55 573 55 602 55 c 1,12,-1
 711 59 l 1,13,-1
 702 0 l 1,14,-1
 223 0 l 1,15,-1
 231 59 l 1,16,-1
 342 55 l 1,17,18
 375 55 375 55 383 106 c 2,19,-1
 528 1141 l 1,20,-1
 528 1147 l 2,21,22
 528 1165 528 1165 512 1165 c 2,23,-1
 430 1165 l 2,24,25
 302 1165 302 1165 236.5 1102.5 c 128,-1,26
 171 1040 171 1040 152 907 c 1,27,-1
 94 907 l 1,28,-1
 139 1227 l 1,29,30
 171 1223 171 1223 221 1223 c 2,31,-1
 1049 1223 l 2,32,33
 1118 1223 1118 1223 1130 1229 c 1,34,-1
 1085 907 l 1,35,-1
 1028 907 l 1,0,1
336 -410 m 1,36,37
 380 -386 380 -386 415 -350 c 128,-1,38
 450 -314 450 -314 453 -287 c 0,39,40
 461 -227 461 -227 403 -227 c 0,41,42
 379 -227 379 -227 364.5 -209.5 c 128,-1,43
 350 -192 350 -192 350 -160.5 c 0,44,45
 350 -129 350 -129 380 -99.5 c 128,-1,46
 410 -70 410 -70 460 -70 c 0,47,48
 510 -70 510 -70 538.5 -101 c 128,-1,49
 567 -132 567 -132 567 -178 c 0,50,51
 567 -260 567 -260 506.5 -330 c 128,-1,52
 446 -400 446 -400 365 -436 c 1,53,-1
 336 -410 l 1,36,37
EndSplineSet
EndChar

StartChar: U
Encoding: 85 85 85
Width: 1292
Flags: MW
HStem: -20 74<567 769> 1165 57<252 260 501 512 1122 1132 1255 1266>
VStem: 172 190<246 342>
LayerCount: 2
UndoRedoHistory
Layer: 1
Undoes
EndUndoes
Redoes
EndRedoes
EndUndoRedoHistory
Fore
SplineSet
279 1133 m 2,0,1
 279 1165 279 1165 252 1165 c 1,2,-1
 172 1161 l 1,3,-1
 180 1223 l 1,4,-1
 621 1223 l 1,5,-1
 612 1161 l 1,6,-1
 512 1165 l 1,7,8
 475 1165 475 1165 469 1124 c 2,9,-1
 369 408 l 2,10,11
 362 361 362 361 362 334 c 0,12,13
 362 201 362 201 441 127 c 128,-1,14
 520 53 520 53 678.5 53 c 0,15,16
 996.05 53 996.05 53 1049 406 c 1,17,-1
 1149 1122 l 1,18,-1
 1149 1133 l 2,19,20
 1149 1165 1149 1165 1122 1165 c 1,21,-1
 1022 1161 l 1,22,-1
 1030 1223 l 1,23,-1
 1354 1223 l 1,24,-1
 1346 1161 l 1,25,-1
 1266 1165 l 1,26,27
 1233 1165 1233 1165 1227 1124 c 2,28,-1
 1122 387 l 2,29,30
 1064.7038835 -20 1064.7038835 -20 621 -20 c 0,31,32
 403 -20 403 -20 287.5 69.5 c 128,-1,33
 172 159 172 159 172 330 c 0,34,35
 172 367.5 172 367.5 178 408 c 2,36,-1
 279 1122 l 1,37,-1
 279 1133 l 2,0,1
EndSplineSet
Position2: "'cpsp' Capital Spacing lookup 0 per glyph data 2" dx=10 dy=0 dh=20 dv=0
EndChar

StartChar: Uacute
Encoding: 218 218 86
Width: 1292
Flags: MW
HStem: -20 74<567 769> 1165 57<252 260 501 512 1122 1132 1255 1266>
VStem: 172 190<246 342>
LayerCount: 2
UndoRedoHistory
Layer: 1
Undoes
EndUndoes
Redoes
EndRedoes
EndUndoRedoHistory
Fore
SplineSet
918 1649 m 2,0,1
 944 1676 944 1676 955.5 1684 c 128,-1,2
 967 1692 967 1692 995 1692 c 128,-1,3
 1023 1692 1023 1692 1061.5 1671.5 c 128,-1,4
 1100 1651 1100 1651 1100 1640.5 c 128,-1,5
 1100 1630 1100 1630 1079 1614 c 1,6,-1
 729 1382 l 1,7,8
 705 1364 705 1364 681 1364 c 128,-1,9
 657 1364 657 1364 657 1378 c 0,10,11
 657 1386 657 1386 698 1427 c 2,12,-1
 918 1649 l 2,0,1
279 1133 m 2,13,14
 279 1165 279 1165 252 1165 c 1,15,-1
 172 1161 l 1,16,-1
 180 1223 l 1,17,-1
 621 1223 l 1,18,-1
 612 1161 l 1,19,-1
 512 1165 l 1,20,21
 475 1165 475 1165 469 1124 c 2,22,-1
 369 408 l 2,23,24
 362 361 362 361 362 334 c 0,25,26
 362 201 362 201 441 127 c 128,-1,27
 520 53 520 53 678.5 53 c 0,28,29
 996.05 53 996.05 53 1049 406 c 1,30,-1
 1149 1122 l 1,31,-1
 1149 1133 l 2,32,33
 1149 1165 1149 1165 1122 1165 c 1,34,-1
 1022 1161 l 1,35,-1
 1030 1223 l 1,36,-1
 1354 1223 l 1,37,-1
 1346 1161 l 1,38,-1
 1266 1165 l 1,39,40
 1233 1165 1233 1165 1227 1124 c 2,41,-1
 1122 387 l 2,42,43
 1064.7038835 -20 1064.7038835 -20 621 -20 c 0,44,45
 403 -20 403 -20 287.5 69.5 c 128,-1,46
 172 159 172 159 172 330 c 0,47,48
 172 367.5 172 367.5 178 408 c 2,49,-1
 279 1122 l 1,50,-1
 279 1133 l 2,13,14
EndSplineSet
Position2: "'cpsp' Capital Spacing lookup 0 per glyph data 2" dx=10 dy=0 dh=20 dv=0
EndChar

StartChar: Ucircumflex
Encoding: 219 219 87
Width: 1292
Flags: MW
HStem: -20 74<567 769> 1165 57<252 260 501 512 1122 1132 1255 1266>
VStem: 172 190<246 342>
LayerCount: 2
UndoRedoHistory
Layer: 1
Undoes
EndUndoes
Redoes
EndRedoes
EndUndoRedoHistory
Fore
SplineSet
569 1389 m 1,0,1
 524 1364 524 1364 505.5 1364 c 128,-1,2
 487 1364 487 1364 487 1374.5 c 128,-1,3
 487 1385 487 1385 509.5 1403.5 c 128,-1,4
 532 1422 532 1422 578.5 1459.5 c 128,-1,5
 625 1497 625 1497 664 1534 c 2,6,-1
 766 1632 l 2,7,8
 820 1683 820 1683 835 1683 c 128,-1,9
 850 1683 850 1683 889 1632 c 2,10,-1
 963 1534 l 1,11,12
 999.909090909 1483.09090909 999.909090909 1483.09090909 1047.95454545 1435.04545455 c 128,-1,13
 1096 1387 1096 1387 1096 1380 c 0,14,15
 1096 1364 1096 1364 1072.5 1364 c 128,-1,16
 1049 1364 1049 1364 1014 1389 c 2,17,-1
 815 1538 l 1,18,-1
 569 1389 l 1,0,1
279 1133 m 2,19,20
 279 1165 279 1165 252 1165 c 1,21,-1
 172 1161 l 1,22,-1
 180 1223 l 1,23,-1
 621 1223 l 1,24,-1
 612 1161 l 1,25,-1
 512 1165 l 1,26,27
 475 1165 475 1165 469 1124 c 2,28,-1
 369 408 l 2,29,30
 362 361 362 361 362 334 c 0,31,32
 362 201 362 201 441 127 c 128,-1,33
 520 53 520 53 678.5 53 c 0,34,35
 996.05 53 996.05 53 1049 406 c 1,36,-1
 1149 1122 l 1,37,-1
 1149 1133 l 2,38,39
 1149 1165 1149 1165 1122 1165 c 1,40,-1
 1022 1161 l 1,41,-1
 1030 1223 l 1,42,-1
 1354 1223 l 1,43,-1
 1346 1161 l 1,44,-1
 1266 1165 l 1,45,46
 1233 1165 1233 1165 1227 1124 c 2,47,-1
 1122 387 l 2,48,49
 1064.7038835 -20 1064.7038835 -20 621 -20 c 0,50,51
 403 -20 403 -20 287.5 69.5 c 128,-1,52
 172 159 172 159 172 330 c 0,53,54
 172 367.5 172 367.5 178 408 c 2,55,-1
 279 1122 l 1,56,-1
 279 1133 l 2,19,20
EndSplineSet
Position2: "'cpsp' Capital Spacing lookup 0 per glyph data 2" dx=10 dy=0 dh=20 dv=0
EndChar

StartChar: Udieresis
Encoding: 220 220 88
Width: 1292
Flags: MW
HStem: -20 74<567 769> 1165 57<252 260 501 512 1122 1132 1255 1266> 1386 195<610 653 967 1010>
VStem: 172 190<246 342> 518 223<1462 1504> 874 223<1462 1504>
LayerCount: 2
UndoRedoHistory
Layer: 1
Undoes
EndUndoes
Redoes
EndRedoes
EndUndoRedoHistory
Fore
SplineSet
554.5 1550.5 m 128,-1,1
 591 1581 591 1581 640 1581 c 128,-1,2
 689 1581 689 1581 715 1558 c 128,-1,3
 741 1535 741 1535 741 1490 c 128,-1,4
 741 1445 741 1445 706.5 1415.5 c 128,-1,5
 672 1386 672 1386 622 1386 c 128,-1,6
 572 1386 572 1386 545 1408.5 c 128,-1,7
 518 1431 518 1431 518 1475.5 c 128,-1,0
 518 1520 518 1520 554.5 1550.5 c 128,-1,1
910.5 1550.5 m 128,-1,9
 947 1581 947 1581 996 1581 c 128,-1,10
 1045 1581 1045 1581 1071.5 1558 c 128,-1,11
 1098 1535 1098 1535 1098 1490 c 128,-1,12
 1098 1445 1098 1445 1063.5 1415.5 c 128,-1,13
 1029 1386 1029 1386 979 1386 c 128,-1,14
 929 1386 929 1386 901.5 1408.5 c 128,-1,15
 874 1431 874 1431 874 1475.5 c 128,-1,8
 874 1520 874 1520 910.5 1550.5 c 128,-1,9
279 1133 m 2,16,17
 279 1165 279 1165 252 1165 c 1,18,-1
 172 1161 l 1,19,-1
 180 1223 l 1,20,-1
 621 1223 l 1,21,-1
 612 1161 l 1,22,-1
 512 1165 l 1,23,24
 475 1165 475 1165 469 1124 c 2,25,-1
 369 408 l 2,26,27
 362 361 362 361 362 334 c 0,28,29
 362 201 362 201 441 127 c 128,-1,30
 520 53 520 53 678.5 53 c 0,31,32
 996.05 53 996.05 53 1049 406 c 1,33,-1
 1149 1122 l 1,34,-1
 1149 1133 l 2,35,36
 1149 1165 1149 1165 1122 1165 c 1,37,-1
 1022 1161 l 1,38,-1
 1030 1223 l 1,39,-1
 1354 1223 l 1,40,-1
 1346 1161 l 1,41,-1
 1266 1165 l 1,42,43
 1233 1165 1233 1165 1227 1124 c 2,44,-1
 1122 387 l 2,45,46
 1064.7038835 -20 1064.7038835 -20 621 -20 c 0,47,48
 403 -20 403 -20 287.5 69.5 c 128,-1,49
 172 159 172 159 172 330 c 0,50,51
 172 367.5 172 367.5 178 408 c 2,52,-1
 279 1122 l 1,53,-1
 279 1133 l 2,16,17
EndSplineSet
Position2: "'cpsp' Capital Spacing lookup 0 per glyph data 2" dx=10 dy=0 dh=20 dv=0
EndChar

StartChar: Ugrave
Encoding: 217 217 89
Width: 1292
Flags: MW
HStem: -20 74<567 769> 1165 57<252 260 501 512 1122 1132 1255 1266>
VStem: 172 190<246 342>
LayerCount: 2
UndoRedoHistory
Layer: 1
Undoes
EndUndoes
Redoes
EndRedoes
EndUndoRedoHistory
Fore
SplineSet
565 1614 m 1,0,1
 553 1626 553 1626 553 1638 c 128,-1,2
 553 1650 553 1650 596 1671 c 128,-1,3
 639 1692 639 1692 661 1692 c 128,-1,4
 683 1692 683 1692 687.5 1691.5 c 128,-1,5
 692 1691 692 1691 697 1689 c 0,6,7
 708.071428571 1684.57142857 708.071428571 1684.57142857 713.535714286 1677.28571429 c 128,-1,8
 719 1670 719 1670 725.5 1661.5 c 128,-1,9
 732 1653 732 1653 735 1649 c 2,10,-1
 903 1415 l 1,11,12
 922 1385 922 1385 922 1380 c 0,13,14
 922 1364 922 1364 895 1364 c 128,-1,15
 868 1364 868 1364 850 1382 c 1,16,-1
 565 1614 l 1,0,1
279 1133 m 2,17,18
 279 1165 279 1165 252 1165 c 1,19,-1
 172 1161 l 1,20,-1
 180 1223 l 1,21,-1
 621 1223 l 1,22,-1
 612 1161 l 1,23,-1
 512 1165 l 1,24,25
 475 1165 475 1165 469 1124 c 2,26,-1
 369 408 l 2,27,28
 362 361 362 361 362 334 c 0,29,30
 362 201 362 201 441 127 c 128,-1,31
 520 53 520 53 678.5 53 c 0,32,33
 996.05 53 996.05 53 1049 406 c 1,34,-1
 1149 1122 l 1,35,-1
 1149 1133 l 2,36,37
 1149 1165 1149 1165 1122 1165 c 1,38,-1
 1022 1161 l 1,39,-1
 1030 1223 l 1,40,-1
 1354 1223 l 1,41,-1
 1346 1161 l 1,42,-1
 1266 1165 l 1,43,44
 1233 1165 1233 1165 1227 1124 c 2,45,-1
 1122 387 l 2,46,47
 1064.7038835 -20 1064.7038835 -20 621 -20 c 0,48,49
 403 -20 403 -20 287.5 69.5 c 128,-1,50
 172 159 172 159 172 330 c 0,51,52
 172 367.5 172 367.5 178 408 c 2,53,-1
 279 1122 l 1,54,-1
 279 1133 l 2,17,18
EndSplineSet
Position2: "'cpsp' Capital Spacing lookup 0 per glyph data 2" dx=10 dy=0 dh=20 dv=0
EndChar

StartChar: Uhungarumlaut
Encoding: 368 368 90
Width: 1292
Flags: MW
HStem: -20 74<567 769> 1165 57<252 260 501 512 1122 1132 1255 1266> 1673 18
VStem: 172 190<246 342>
LayerCount: 2
UndoRedoHistory
Layer: 1
Undoes
EndUndoes
Redoes
EndRedoes
EndUndoRedoHistory
Fore
SplineSet
764 1673 m 0,0,1
 778 1692 778 1692 802.5 1692 c 128,-1,2
 827 1692 827 1692 862 1673 c 128,-1,3
 897 1654 897 1654 897 1640 c 0,4,5
 897 1634 897 1634 875.5 1611 c 128,-1,6
 854 1588 854 1588 621 1376 c 0,7,8
 609 1364 609 1364 587 1364 c 128,-1,9
 565 1364 565 1364 565 1376 c 128,-1,10
 565 1388 565 1388 573 1399 c 0,11,12
 670 1542 670 1542 764 1673 c 0,0,1
850 1376 m 0,13,14
 836 1364 836 1364 814.5 1364 c 128,-1,15
 793 1364 793 1364 793 1378 c 0,16,17
 793 1383 793 1383 801 1399 c 1,18,19
 929 1575 929 1575 977 1648.5 c 2,20,-1
 993 1673 l 1,21,22
 1010 1692 1010 1692 1032.5 1692 c 128,-1,23
 1055 1692 1055 1692 1089.5 1674.5 c 128,-1,24
 1124 1657 1124 1657 1124 1642 c 0,25,26
 1124 1635 1124 1635 1096 1603 c 128,-1,27
 1068 1571 1068 1571 850 1376 c 0,13,14
279 1133 m 2,28,29
 279 1165 279 1165 252 1165 c 1,30,-1
 172 1161 l 1,31,-1
 180 1223 l 1,32,-1
 621 1223 l 1,33,-1
 612 1161 l 1,34,-1
 512 1165 l 1,35,36
 475 1165 475 1165 469 1124 c 2,37,-1
 369 408 l 2,38,39
 362 361 362 361 362 334 c 0,40,41
 362 201 362 201 441 127 c 128,-1,42
 520 53 520 53 678.5 53 c 0,43,44
 996.05 53 996.05 53 1049 406 c 1,45,-1
 1149 1122 l 1,46,-1
 1149 1133 l 2,47,48
 1149 1165 1149 1165 1122 1165 c 1,49,-1
 1022 1161 l 1,50,-1
 1030 1223 l 1,51,-1
 1354 1223 l 1,52,-1
 1346 1161 l 1,53,-1
 1266 1165 l 1,54,55
 1233 1165 1233 1165 1227 1124 c 2,56,-1
 1122 387 l 2,57,58
 1064.7038835 -20 1064.7038835 -20 621 -20 c 0,59,60
 403 -20 403 -20 287.5 69.5 c 128,-1,61
 172 159 172 159 172 330 c 0,62,63
 172 367.5 172 367.5 178 408 c 2,64,-1
 279 1122 l 1,65,-1
 279 1133 l 2,28,29
EndSplineSet
EndChar

StartChar: Umacron
Encoding: 362 362 91
Width: 1292
Flags: MW
HStem: -20 74<567 769> 1165 57<252 260 501 512 1122 1132 1255 1266> 1384 82<553 1036 541 1049>
VStem: 172 190<246 342>
LayerCount: 2
UndoRedoHistory
Layer: 1
Undoes
EndUndoes
Redoes
EndRedoes
EndUndoRedoHistory
Fore
SplineSet
1036 1384 m 1,0,-1
 541 1384 l 1,1,-1
 553 1466 l 1,2,-1
 1049 1466 l 1,3,-1
 1036 1384 l 1,0,-1
279 1133 m 2,4,5
 279 1165 279 1165 252 1165 c 1,6,-1
 172 1161 l 1,7,-1
 180 1223 l 1,8,-1
 621 1223 l 1,9,-1
 612 1161 l 1,10,-1
 512 1165 l 1,11,12
 475 1165 475 1165 469 1124 c 2,13,-1
 369 408 l 2,14,15
 362 361 362 361 362 334 c 0,16,17
 362 201 362 201 441 127 c 128,-1,18
 520 53 520 53 678.5 53 c 0,19,20
 996.05 53 996.05 53 1049 406 c 1,21,-1
 1149 1122 l 1,22,-1
 1149 1133 l 2,23,24
 1149 1165 1149 1165 1122 1165 c 1,25,-1
 1022 1161 l 1,26,-1
 1030 1223 l 1,27,-1
 1354 1223 l 1,28,-1
 1346 1161 l 1,29,-1
 1266 1165 l 1,30,31
 1233 1165 1233 1165 1227 1124 c 2,32,-1
 1122 387 l 2,33,34
 1064.7038835 -20 1064.7038835 -20 621 -20 c 0,35,36
 403 -20 403 -20 287.5 69.5 c 128,-1,37
 172 159 172 159 172 330 c 0,38,39
 172 367.5 172 367.5 178 408 c 2,40,-1
 279 1122 l 1,41,-1
 279 1133 l 2,4,5
EndSplineSet
EndChar

StartChar: Uogonek
Encoding: 370 370 92
Width: 1292
Flags: MW
HStem: -326 88<742 880> -20 74<567 646> 1165 57<252 260 501 512 1122 1132 1255 1266>
VStem: 172 190<246 342> 647 119<-171 -165>
LayerCount: 2
UndoRedoHistory
Layer: 1
Undoes
EndUndoes
Redoes
EndRedoes
EndUndoRedoHistory
Fore
SplineSet
279 1133 m 2,0,1
 279 1165 279 1165 252 1165 c 1,2,-1
 172 1161 l 1,3,-1
 180 1223 l 1,4,-1
 621 1223 l 1,5,-1
 612 1161 l 1,6,-1
 512 1165 l 1,7,8
 475 1165 475 1165 469 1124 c 2,9,-1
 369 408 l 2,10,11
 362 361 362 361 362 334 c 0,12,13
 362 201 362 201 441 127 c 128,-1,14
 520 53 520 53 678.5 53 c 0,15,16
 996.05 53 996.05 53 1049 406 c 1,17,-1
 1149 1122 l 1,18,-1
 1149 1133 l 2,19,20
 1149 1165 1149 1165 1122 1165 c 1,21,-1
 1022 1161 l 1,22,-1
 1030 1223 l 1,23,-1
 1354 1223 l 1,24,-1
 1346 1161 l 1,25,-1
 1266 1165 l 1,26,27
 1233 1165 1233 1165 1227 1124 c 2,28,-1
 1122 387 l 1,29,30
 1085 116 1085 116 881 27 c 1,31,32
 828 1 828 1 797 -45 c 128,-1,33
 766 -91 766 -91 766 -138.5 c 0,34,35
 766 -238 766 -238 858 -238 c 0,36,37
 919 -238 919 -238 999 -174 c 1,38,-1
 1024 -203 l 1,39,40
 907 -326 907 -326 776 -326 c 0,41,42
 722 -326 722 -326 684.5 -292.5 c 128,-1,43
 647 -259 647 -259 647 -199 c 0,44,45
 647 -89 647 -89 760 -8 c 1,46,47
 696 -20 696 -20 621 -20 c 0,48,49
 403 -20 403 -20 287.5 69.5 c 128,-1,50
 172 159 172 159 172 330 c 0,51,52
 172 367.5 172 367.5 178 408 c 2,53,-1
 279 1122 l 1,54,-1
 279 1133 l 2,0,1
EndSplineSet
EndChar

StartChar: Uring
Encoding: 366 366 93
Width: 1292
Flags: MW
HStem: -20 74<567 769> 1165 57<252 260 501 512 1122 1132 1255 1266> 1364 74<778 824 778 844> 1624 74<800 847>
VStem: 172 190<246 342> 647 92<1496 1547 1496 1565> 887 94<1517 1567>
LayerCount: 2
UndoRedoHistory
Layer: 1
Undoes
EndUndoes
Redoes
EndRedoes
EndUndoRedoHistory
Fore
SplineSet
684 1403.5 m 128,-1,1
 647 1443 647 1443 647 1516 c 128,-1,2
 647 1589 647 1589 703.5 1643.5 c 128,-1,3
 760 1698 760 1698 832.5 1698 c 128,-1,4
 905 1698 905 1698 943 1659 c 128,-1,5
 981 1620 981 1620 981 1544.5 c 128,-1,6
 981 1469 981 1469 926.5 1416.5 c 128,-1,7
 872 1364 872 1364 796.5 1364 c 128,-1,0
 721 1364 721 1364 684 1403.5 c 128,-1,1
887 1544 m 0,8,9
 887 1624 887 1624 825 1624 c 0,10,11
 788 1624 788 1624 763.5 1593 c 128,-1,12
 739 1562 739 1562 739 1520 c 0,13,14
 739 1438 739 1438 799 1438 c 0,15,16
 836 1438 836 1438 861.5 1470 c 128,-1,17
 887 1502 887 1502 887 1544 c 0,8,9
279 1133 m 2,18,19
 279 1165 279 1165 252 1165 c 1,20,-1
 172 1161 l 1,21,-1
 180 1223 l 1,22,-1
 621 1223 l 1,23,-1
 612 1161 l 1,24,-1
 512 1165 l 1,25,26
 475 1165 475 1165 469 1124 c 2,27,-1
 369 408 l 2,28,29
 362 361 362 361 362 334 c 0,30,31
 362 201 362 201 441 127 c 128,-1,32
 520 53 520 53 678.5 53 c 0,33,34
 996.05 53 996.05 53 1049 406 c 1,35,-1
 1149 1122 l 1,36,-1
 1149 1133 l 2,37,38
 1149 1165 1149 1165 1122 1165 c 1,39,-1
 1022 1161 l 1,40,-1
 1030 1223 l 1,41,-1
 1354 1223 l 1,42,-1
 1346 1161 l 1,43,-1
 1266 1165 l 1,44,45
 1233 1165 1233 1165 1227 1124 c 2,46,-1
 1122 387 l 2,47,48
 1064.7038835 -20 1064.7038835 -20 621 -20 c 0,49,50
 403 -20 403 -20 287.5 69.5 c 128,-1,51
 172 159 172 159 172 330 c 0,52,53
 172 367.5 172 367.5 178 408 c 2,54,-1
 279 1122 l 1,55,-1
 279 1133 l 2,18,19
EndSplineSet
EndChar

StartChar: V
Encoding: 86 86 94
Width: 1155
Flags: MW
HStem: 1165 57<150 157 407 414 1090 1097 1218 1227>
VStem: 92 1217<1161 1223>
LayerCount: 2
UndoRedoHistory
Layer: 1
Undoes
EndUndoes
Redoes
EndRedoes
EndUndoRedoHistory
Fore
SplineSet
414 1165 m 2,0,1
 389 1165 389 1165 389 1137 c 0,2,3
 389 1128 389 1128 393 1116 c 2,4,-1
 637 274 l 1,5,-1
 1098 1118 l 2,6,7
 1108 1135 1108 1135 1108 1150 c 128,-1,8
 1108 1165 1108 1165 1090 1165 c 2,9,-1
 985 1161 l 1,10,-1
 993 1223 l 1,11,-1
 1309 1223 l 1,12,-1
 1300 1161 l 1,13,-1
 1227 1165 l 2,14,15
 1214 1165 1214 1165 1204.5 1154 c 128,-1,16
 1195 1143 1195 1143 1182 1118 c 2,17,-1
 563 -8 l 1,18,-1
 504 -8 l 1,19,-1
 186 1118 l 1,20,21
 174 1165 174 1165 150 1165 c 1,22,-1
 92 1161 l 1,23,-1
 100 1223 l 1,24,-1
 530 1223 l 1,25,-1
 522 1161 l 1,26,-1
 414 1165 l 2,0,1
EndSplineSet
Position2: "'cpsp' Capital Spacing lookup 0 per glyph data 2" dx=10 dy=0 dh=20 dv=0
EndChar

StartChar: W
Encoding: 87 87 95
Width: 1748
Flags: MW
HStem: 1165 57<154 162 401 410 907 918 1143 1149 1692 1699 1819 1831>
VStem: 92 1810<1161 1223>
LayerCount: 2
UndoRedoHistory
Layer: 1
Undoes
EndUndoes
Redoes
EndRedoes
EndUndoRedoHistory
Fore
SplineSet
1903 1223 m 1,0,-1
 1894 1161 l 1,1,-1
 1831 1165 l 1,2,3
 1802 1165 1802 1165 1780 1122 c 1,4,-1
 1270 -20 l 1,5,-1
 1233 -20 l 1,6,-1
 965 1034 l 1,7,-1
 496 -20 l 1,8,-1
 453 -20 l 1,9,-1
 186 1120 l 1,10,11
 177 1165 177 1165 154 1165 c 1,12,-1
 92 1161 l 1,13,-1
 100 1223 l 1,14,-1
 532 1223 l 1,15,-1
 524 1161 l 1,16,-1
 410 1165 l 2,17,18
 389 1165 389 1165 389 1145 c 0,19,20
 389 1136 389 1136 393 1120 c 2,21,-1
 582 328 l 1,22,-1
 938 1141 l 1,23,24
 932 1165 932 1165 907 1165 c 1,25,-1
 823 1161 l 1,26,-1
 831 1223 l 1,27,-1
 1247 1223 l 1,28,-1
 1239 1161 l 1,29,-1
 1149 1165 l 2,30,31
 1128 1165 1128 1165 1128 1139 c 0,32,33
 1128 1126 1128 1126 1130 1120 c 2,34,-1
 1346 297 l 1,35,-1
 1704 1124 l 2,36,37
 1710 1136 1710 1136 1710 1150.5 c 0,38,39
 1710 1165 1710 1165 1692 1165 c 2,40,-1
 1585 1161 l 1,41,-1
 1593 1223 l 1,42,-1
 1903 1223 l 1,0,-1
EndSplineSet
Position2: "'cpsp' Capital Spacing lookup 0 per glyph data 2" dx=10 dy=0 dh=20 dv=0
EndChar

StartChar: Wacute
Encoding: 7810 7810 96
Width: 1748
Flags: MW
HStem: 1165 57<154 162 401 410 907 918 1143 1149 1692 1699 1819 1831>
VStem: 92 1810<1161 1223>
LayerCount: 2
UndoRedoHistory
Layer: 1
Undoes
EndUndoes
Redoes
EndRedoes
EndUndoRedoHistory
Fore
SplineSet
1182 1649 m 2,0,1
 1208 1676 1208 1676 1219.5 1684 c 128,-1,2
 1231 1692 1231 1692 1259 1692 c 0,3,4
 1287 1692 1287 1692 1325.5 1671.5 c 128,-1,5
 1364 1651 1364 1651 1364 1640.5 c 0,6,7
 1364 1630 1364 1630 1343 1614 c 1,8,-1
 993 1382 l 1,9,10
 969 1364 969 1364 945.5 1364 c 0,11,12
 922 1364 922 1364 922 1378 c 0,13,14
 922 1386 922 1386 963 1427 c 2,15,-1
 1182 1649 l 2,0,1
1894 1161 m 1,16,-1
 1831 1165 l 1,17,18
 1802 1165 1802 1165 1780 1122 c 1,19,-1
 1270 -20 l 1,20,-1
 1233 -20 l 1,21,-1
 965 1034 l 1,22,-1
 496 -20 l 1,23,-1
 453 -20 l 1,24,-1
 186 1120 l 1,25,26
 177 1165 177 1165 154 1165 c 1,27,-1
 92 1161 l 1,28,-1
 100 1223 l 1,29,-1
 532 1223 l 1,30,-1
 524 1161 l 1,31,-1
 410 1165 l 2,32,33
 389 1165 389 1165 389 1145 c 0,34,35
 389 1136 389 1136 393 1120 c 2,36,-1
 582 328 l 1,37,-1
 938 1141 l 1,38,39
 932 1165 932 1165 907 1165 c 1,40,-1
 823 1161 l 1,41,-1
 831 1223 l 1,42,-1
 1247 1223 l 1,43,-1
 1239 1161 l 1,44,-1
 1149 1165 l 2,45,46
 1128 1165 1128 1165 1128 1139 c 0,47,48
 1128 1126 1128 1126 1130 1120 c 2,49,-1
 1346 297 l 1,50,-1
 1704 1124 l 2,51,52
 1710 1136 1710 1136 1710 1150.5 c 0,53,54
 1710 1165 1710 1165 1692 1165 c 2,55,-1
 1585 1161 l 1,56,-1
 1593 1223 l 1,57,-1
 1903 1223 l 1,58,-1
 1894 1161 l 1,16,-1
EndSplineSet
Position2: "'cpsp' Capital Spacing lookup 0 per glyph data 2" dx=10 dy=0 dh=20 dv=0
EndChar

StartChar: Wcircumflex
Encoding: 372 372 97
Width: 1748
Flags: MW
HStem: 1165 57<154 162 401 410 907 918 1143 1149 1692 1699 1819 1831>
VStem: 92 1810<1161 1223>
LayerCount: 2
UndoRedoHistory
Layer: 1
Undoes
EndUndoes
Redoes
EndRedoes
EndUndoRedoHistory
Fore
SplineSet
834 1389 m 1,0,1
 789 1364 789 1364 770.5 1364 c 128,-1,2
 752 1364 752 1364 752 1374.5 c 128,-1,3
 752 1385 752 1385 774.5 1403.5 c 128,-1,4
 797 1422 797 1422 843 1459.5 c 128,-1,5
 889 1497 889 1497 928 1534 c 2,6,-1
 1030 1632 l 2,7,8
 1084 1683 1084 1683 1099 1683 c 128,-1,9
 1114 1683 1114 1683 1153 1632 c 2,10,-1
 1227 1534 l 1,11,12
 1263.90909091 1483.09090909 1263.90909091 1483.09090909 1311.95454545 1435.04545455 c 128,-1,13
 1360 1387 1360 1387 1360 1380 c 0,14,15
 1360 1364 1360 1364 1336.5 1364 c 128,-1,16
 1313 1364 1313 1364 1278 1389 c 2,17,-1
 1079 1538 l 1,18,-1
 834 1389 l 1,0,1
1894 1161 m 1,19,-1
 1831 1165 l 1,20,21
 1802 1165 1802 1165 1780 1122 c 1,22,-1
 1270 -20 l 1,23,-1
 1233 -20 l 1,24,-1
 965 1034 l 1,25,-1
 496 -20 l 1,26,-1
 453 -20 l 1,27,-1
 186 1120 l 1,28,29
 177 1165 177 1165 154 1165 c 1,30,-1
 92 1161 l 1,31,-1
 100 1223 l 1,32,-1
 532 1223 l 1,33,-1
 524 1161 l 1,34,-1
 410 1165 l 2,35,36
 389 1165 389 1165 389 1145 c 0,37,38
 389 1136 389 1136 393 1120 c 2,39,-1
 582 328 l 1,40,-1
 938 1141 l 1,41,42
 932 1165 932 1165 907 1165 c 1,43,-1
 823 1161 l 1,44,-1
 831 1223 l 1,45,-1
 1247 1223 l 1,46,-1
 1239 1161 l 1,47,-1
 1149 1165 l 2,48,49
 1128 1165 1128 1165 1128 1139 c 0,50,51
 1128 1126 1128 1126 1130 1120 c 2,52,-1
 1346 297 l 1,53,-1
 1704 1124 l 2,54,55
 1710 1136 1710 1136 1710 1150.5 c 128,-1,56
 1710 1165 1710 1165 1692 1165 c 2,57,-1
 1585 1161 l 1,58,-1
 1593 1223 l 1,59,-1
 1903 1223 l 1,60,-1
 1894 1161 l 1,19,-1
EndSplineSet
Position2: "'cpsp' Capital Spacing lookup 0 per glyph data 2" dx=10 dy=0 dh=20 dv=0
EndChar

StartChar: Wdieresis
Encoding: 7812 7812 98
Width: 1748
Flags: MW
HStem: 1165 57<154 162 401 410 907 918 1143 1149 1692 1699 1819 1831> 1386 195<874 918 1231 1274>
VStem: 782 223<1462 1504> 1139 223<1462 1504>
LayerCount: 2
UndoRedoHistory
Layer: 1
Undoes
EndUndoes
Redoes
EndRedoes
EndUndoRedoHistory
Fore
SplineSet
818.5 1550.5 m 128,-1,1
 855 1581 855 1581 904 1581 c 128,-1,2
 953 1581 953 1581 979.5 1558 c 128,-1,3
 1006 1535 1006 1535 1006 1490 c 128,-1,4
 1006 1445 1006 1445 971.5 1415.5 c 128,-1,5
 937 1386 937 1386 887 1386 c 128,-1,6
 837 1386 837 1386 809.5 1408.5 c 128,-1,7
 782 1431 782 1431 782 1475.5 c 128,-1,0
 782 1520 782 1520 818.5 1550.5 c 128,-1,1
1175.5 1550.5 m 128,-1,9
 1212 1581 1212 1581 1261 1581 c 128,-1,10
 1310 1581 1310 1581 1336 1558 c 128,-1,11
 1362 1535 1362 1535 1362 1490 c 128,-1,12
 1362 1445 1362 1445 1327.5 1415.5 c 128,-1,13
 1293 1386 1293 1386 1243 1386 c 128,-1,14
 1193 1386 1193 1386 1166 1408.5 c 128,-1,15
 1139 1431 1139 1431 1139 1475.5 c 128,-1,8
 1139 1520 1139 1520 1175.5 1550.5 c 128,-1,9
1894 1161 m 1,16,-1
 1831 1165 l 1,17,18
 1802 1165 1802 1165 1780 1122 c 1,19,-1
 1270 -20 l 1,20,-1
 1233 -20 l 1,21,-1
 965 1034 l 1,22,-1
 496 -20 l 1,23,-1
 453 -20 l 1,24,-1
 186 1120 l 1,25,26
 177 1165 177 1165 154 1165 c 1,27,-1
 92 1161 l 1,28,-1
 100 1223 l 1,29,-1
 532 1223 l 1,30,-1
 524 1161 l 1,31,-1
 410 1165 l 2,32,33
 389 1165 389 1165 389 1145 c 0,34,35
 389 1136 389 1136 393 1120 c 2,36,-1
 582 328 l 1,37,-1
 938 1141 l 1,38,39
 932 1165 932 1165 907 1165 c 1,40,-1
 823 1161 l 1,41,-1
 831 1223 l 1,42,-1
 1247 1223 l 1,43,-1
 1239 1161 l 1,44,-1
 1149 1165 l 2,45,46
 1128 1165 1128 1165 1128 1139 c 0,47,48
 1128 1126 1128 1126 1130 1120 c 2,49,-1
 1346 297 l 1,50,-1
 1704 1124 l 2,51,52
 1710 1136 1710 1136 1710 1150.5 c 128,-1,53
 1710 1165 1710 1165 1692 1165 c 2,54,-1
 1585 1161 l 1,55,-1
 1593 1223 l 1,56,-1
 1903 1223 l 1,57,-1
 1894 1161 l 1,16,-1
EndSplineSet
Position2: "'cpsp' Capital Spacing lookup 0 per glyph data 2" dx=10 dy=0 dh=20 dv=0
EndChar

StartChar: Wgrave
Encoding: 7808 7808 99
Width: 1748
Flags: MW
HStem: 1165 57<154 162 401 410 907 918 1143 1149 1692 1699 1819 1831>
VStem: 92 1810<1161 1223>
LayerCount: 2
UndoRedoHistory
Layer: 1
Undoes
EndUndoes
Redoes
EndRedoes
EndUndoRedoHistory
Fore
SplineSet
829 1614 m 1,0,1
 817 1626 817 1626 817 1638 c 128,-1,2
 817 1650 817 1650 860 1671 c 128,-1,3
 903 1692 903 1692 925 1692 c 128,-1,4
 947 1692 947 1692 951.5 1691.5 c 128,-1,5
 956 1691 956 1691 961 1689 c 0,6,7
 972.071428571 1684.57142857 972.071428571 1684.57142857 977.535714286 1677.28571429 c 128,-1,8
 983 1670 983 1670 989.5 1661.5 c 128,-1,9
 996 1653 996 1653 999 1649 c 2,10,-1
 1167 1415 l 1,11,12
 1186 1385 1186 1385 1186 1380 c 0,13,14
 1186 1364 1186 1364 1159 1364 c 128,-1,15
 1132 1364 1132 1364 1114 1382 c 1,16,-1
 829 1614 l 1,0,1
1894 1161 m 1,17,-1
 1831 1165 l 1,18,19
 1802 1165 1802 1165 1780 1122 c 1,20,-1
 1270 -20 l 1,21,-1
 1233 -20 l 1,22,-1
 965 1034 l 1,23,-1
 496 -20 l 1,24,-1
 453 -20 l 1,25,-1
 186 1120 l 1,26,27
 177 1165 177 1165 154 1165 c 1,28,-1
 92 1161 l 1,29,-1
 100 1223 l 1,30,-1
 532 1223 l 1,31,-1
 524 1161 l 1,32,-1
 410 1165 l 2,33,34
 389 1165 389 1165 389 1145 c 0,35,36
 389 1136 389 1136 393 1120 c 2,37,-1
 582 328 l 1,38,-1
 938 1141 l 1,39,40
 932 1165 932 1165 907 1165 c 1,41,-1
 823 1161 l 1,42,-1
 831 1223 l 1,43,-1
 1247 1223 l 1,44,-1
 1239 1161 l 1,45,-1
 1149 1165 l 2,46,47
 1128 1165 1128 1165 1128 1139 c 0,48,49
 1128 1126 1128 1126 1130 1120 c 2,50,-1
 1346 297 l 1,51,-1
 1704 1124 l 2,52,53
 1710 1136 1710 1136 1710 1150.5 c 128,-1,54
 1710 1165 1710 1165 1692 1165 c 2,55,-1
 1585 1161 l 1,56,-1
 1593 1223 l 1,57,-1
 1903 1223 l 1,58,-1
 1894 1161 l 1,17,-1
EndSplineSet
Position2: "'cpsp' Capital Spacing lookup 0 per glyph data 2" dx=10 dy=0 dh=20 dv=0
EndChar

StartChar: X
Encoding: 88 88 100
Width: 1124
Flags: MW
HStem: 0 55<228 233 228 319 725 733> 1165 57<248 258 534 551 958 964 1112 1112>
VStem: -2 1186
LayerCount: 2
UndoRedoHistory
Layer: 1
Undoes
EndUndoes
Redoes
EndRedoes
EndUndoRedoHistory
Fore
SplineSet
1184 1223 m 1,0,-1
 1176 1161 l 1,1,-1
 1112 1165 l 2,2,3
 1080 1168 1080 1168 1047 1124 c 2,4,-1
 711 674 l 1,5,-1
 963 90 l 1,6,7
 982 52 982 52 1016 55 c 2,8,-1
 1096 61 l 1,9,-1
 1087 0 l 1,10,-1
 616 0 l 1,11,-1
 625 61 l 1,12,-1
 725 55 l 1,13,14
 748 55 748 55 748 78 c 0,15,16
 748 86 748 86 741 104 c 2,17,-1
 557 535 l 1,18,-1
 231 96 l 1,19,20
 219 84 219 84 219 69.5 c 0,21,22
 219 55 219 55 233 55 c 2,23,-1
 328 61 l 1,24,-1
 319 0 l 1,25,-1
 -2 0 l 1,26,-1
 6 61 l 1,27,-1
 82 57 l 1,28,29
 119 57 119 57 152 102 c 2,30,-1
 528 604 l 1,31,-1
 301 1126 l 1,32,33
 286 1165 286 1165 248 1165 c 1,34,-1
 180 1161 l 1,35,-1
 188 1223 l 1,36,-1
 645 1223 l 1,37,-1
 637 1161 l 1,38,-1
 551 1165 l 1,39,40
 527 1165 527 1165 519.5 1149.5 c 128,-1,41
 512 1134 512 1134 520 1122 c 1,42,-1
 680 743 l 1,43,-1
 965 1124 l 2,44,45
 977 1139 977 1139 977 1152 c 0,46,47
 977 1165 977 1165 958 1165 c 2,48,-1
 870 1161 l 1,49,-1
 879 1223 l 1,50,-1
 1184 1223 l 1,0,-1
EndSplineSet
Position2: "'cpsp' Capital Spacing lookup 0 per glyph data 2" dx=10 dy=0 dh=20 dv=0
EndChar

StartChar: Y
Encoding: 89 89 101
Width: 1005
Flags: MW
HStem: 0 55<346 357 595 606> 1165 57<150 159 418 426 928 933 1058 1067>
VStem: 92 1044<1161 1223>
LayerCount: 2
UndoRedoHistory
Layer: 1
Undoes
EndUndoes
Redoes
EndRedoes
EndUndoRedoHistory
Fore
SplineSet
1137 1223 m 1,0,-1
 1128 1161 l 1,1,-1
 1067 1165 l 1,2,3
 1037 1165 1037 1165 1008 1122 c 2,4,-1
 645 590 l 1,5,-1
 575 98 l 1,6,-1
 575 86 l 2,7,8
 575 55 575 55 606 55 c 1,9,-1
 705 59 l 1,10,-1
 696 0 l 1,11,-1
 238 0 l 1,12,-1
 246 59 l 1,13,-1
 346 55 l 1,14,15
 381 55 381 55 387 100 c 2,16,-1
 449 539 l 1,17,-1
 188 1126 l 2,18,19
 178 1148 178 1148 170.5 1156.5 c 128,-1,20
 163 1165 163 1165 150 1165 c 2,21,-1
 92 1161 l 1,22,-1
 100 1223 l 1,23,-1
 543 1223 l 1,24,-1
 535 1161 l 1,25,-1
 426 1165 l 2,26,27
 403 1165 403 1165 403 1143 c 0,28,29
 403 1137 403 1137 410 1116 c 1,30,-1
 612 653 l 1,31,-1
 934 1124 l 2,32,33
 942 1136 942 1136 942 1150.5 c 0,34,35
 942 1165 942 1165 928 1165 c 2,36,-1
 823 1161 l 1,37,-1
 831 1223 l 1,38,-1
 1137 1223 l 1,0,-1
EndSplineSet
Position2: "'cpsp' Capital Spacing lookup 0 per glyph data 2" dx=10 dy=0 dh=20 dv=0
EndChar

StartChar: Yacute
Encoding: 221 221 102
Width: 1005
Flags: MW
HStem: 0 55<346 357 595 606> 1165 57<150 159 418 426 928 933 1058 1067>
VStem: 92 1044<1161 1223>
LayerCount: 2
UndoRedoHistory
Layer: 1
Undoes
EndUndoes
Redoes
EndRedoes
EndUndoRedoHistory
Fore
SplineSet
776 1649 m 1,0,1
 801 1676 801 1676 813.5 1684 c 128,-1,2
 826 1692 826 1692 854 1692 c 0,3,4
 882 1692 882 1692 920 1671.5 c 128,-1,5
 958 1651 958 1651 958 1640 c 0,6,7
 958 1629 958 1629 938 1614 c 1,8,-1
 588 1382 l 1,9,10
 564 1364 564 1364 540 1364 c 0,11,12
 516 1364 516 1364 516 1378 c 0,13,14
 516 1386 516 1386 557 1427 c 2,15,-1
 776 1649 l 1,0,1
1128 1161 m 1,16,-1
 1067 1165 l 1,17,18
 1037 1165 1037 1165 1008 1122 c 2,19,-1
 645 590 l 1,20,-1
 575 98 l 1,21,-1
 575 86 l 2,22,23
 575 55 575 55 606 55 c 1,24,-1
 705 59 l 1,25,-1
 696 0 l 1,26,-1
 238 0 l 1,27,-1
 246 59 l 1,28,-1
 346 55 l 1,29,30
 381 55 381 55 387 100 c 2,31,-1
 449 539 l 1,32,-1
 188 1126 l 2,33,34
 178 1148 178 1148 170.5 1156.5 c 128,-1,35
 163 1165 163 1165 150 1165 c 2,36,-1
 92 1161 l 1,37,-1
 100 1223 l 1,38,-1
 543 1223 l 1,39,-1
 535 1161 l 1,40,-1
 426 1165 l 2,41,42
 403 1165 403 1165 403 1143 c 0,43,44
 403 1137 403 1137 410 1116 c 1,45,-1
 612 653 l 1,46,-1
 934 1124 l 2,47,48
 942 1136 942 1136 942 1150.5 c 0,49,50
 942 1165 942 1165 928 1165 c 2,51,-1
 823 1161 l 1,52,-1
 831 1223 l 1,53,-1
 1137 1223 l 1,54,-1
 1128 1161 l 1,16,-1
EndSplineSet
Position2: "'cpsp' Capital Spacing lookup 0 per glyph data 2" dx=10 dy=0 dh=20 dv=0
EndChar

StartChar: Ycircumflex
Encoding: 374 374 103
Width: 1005
Flags: MW
HStem: 0 55<346 357 595 606> 1165 57<150 159 418 426 928 933 1058 1067>
VStem: 92 1044<1161 1223>
LayerCount: 2
UndoRedoHistory
Layer: 1
Undoes
EndUndoes
Redoes
EndRedoes
EndUndoRedoHistory
Fore
SplineSet
428 1389 m 1,0,1
 383 1364 383 1364 364.5 1364 c 128,-1,2
 346 1364 346 1364 346 1374.5 c 128,-1,3
 346 1385 346 1385 368.5 1403.5 c 128,-1,4
 391 1422 391 1422 437 1459.5 c 128,-1,5
 483 1497 483 1497 522 1534 c 2,6,-1
 625 1632 l 2,7,8
 679 1683 679 1683 694 1683 c 128,-1,9
 709 1683 709 1683 748 1632 c 2,10,-1
 821 1534 l 2,11,12
 857.909090909 1483.09090909 857.909090909 1483.09090909 905.954545455 1435.04545455 c 128,-1,13
 954 1387 954 1387 954 1380 c 0,14,15
 954 1364 954 1364 930.5 1364 c 128,-1,16
 907 1364 907 1364 872 1389 c 1,17,-1
 674 1538 l 1,18,-1
 428 1389 l 1,0,1
1128 1161 m 1,19,-1
 1067 1165 l 1,20,21
 1037 1165 1037 1165 1008 1122 c 2,22,-1
 645 590 l 1,23,-1
 575 98 l 1,24,-1
 575 86 l 2,25,26
 575 55 575 55 606 55 c 1,27,-1
 705 59 l 1,28,-1
 696 0 l 1,29,-1
 238 0 l 1,30,-1
 246 59 l 1,31,-1
 346 55 l 1,32,33
 381 55 381 55 387 100 c 2,34,-1
 449 539 l 1,35,-1
 188 1126 l 2,36,37
 178 1148 178 1148 170.5 1156.5 c 128,-1,38
 163 1165 163 1165 150 1165 c 2,39,-1
 92 1161 l 1,40,-1
 100 1223 l 1,41,-1
 543 1223 l 1,42,-1
 535 1161 l 1,43,-1
 426 1165 l 2,44,45
 403 1165 403 1165 403 1143 c 0,46,47
 403 1137 403 1137 410 1116 c 1,48,-1
 612 653 l 1,49,-1
 934 1124 l 2,50,51
 942 1136 942 1136 942 1150.5 c 128,-1,52
 942 1165 942 1165 928 1165 c 2,53,-1
 823 1161 l 1,54,-1
 831 1223 l 1,55,-1
 1137 1223 l 1,56,-1
 1128 1161 l 1,19,-1
EndSplineSet
Position2: "'cpsp' Capital Spacing lookup 0 per glyph data 2" dx=10 dy=0 dh=20 dv=0
EndChar

StartChar: Ydieresis
Encoding: 376 376 104
Width: 1005
Flags: MW
HStem: 0 55<346 357 595 606> 1165 57<150 159 418 426 928 933 1058 1067> 1386 195<469 512 825 868>
VStem: 377 223<1462 1504> 733 223<1462 1504>
LayerCount: 2
UndoRedoHistory
Layer: 1
Undoes
EndUndoes
Redoes
EndRedoes
EndUndoRedoHistory
Fore
SplineSet
413.5 1550.5 m 128,-1,1
 450 1581 450 1581 499 1581 c 128,-1,2
 548 1581 548 1581 574 1558 c 128,-1,3
 600 1535 600 1535 600 1490 c 128,-1,4
 600 1445 600 1445 565.5 1415.5 c 128,-1,5
 531 1386 531 1386 481 1386 c 128,-1,6
 431 1386 431 1386 404 1408.5 c 128,-1,7
 377 1431 377 1431 377 1475.5 c 128,-1,0
 377 1520 377 1520 413.5 1550.5 c 128,-1,1
769.5 1550.5 m 128,-1,9
 806 1581 806 1581 855 1581 c 128,-1,10
 904 1581 904 1581 930 1558 c 128,-1,11
 956 1535 956 1535 956 1490 c 128,-1,12
 956 1445 956 1445 921.5 1415.5 c 128,-1,13
 887 1386 887 1386 837 1386 c 128,-1,14
 787 1386 787 1386 760 1408.5 c 128,-1,15
 733 1431 733 1431 733 1475.5 c 128,-1,8
 733 1520 733 1520 769.5 1550.5 c 128,-1,9
1128 1161 m 1,16,-1
 1067 1165 l 1,17,18
 1037 1165 1037 1165 1008 1122 c 2,19,-1
 645 590 l 1,20,-1
 575 98 l 1,21,-1
 575 86 l 2,22,23
 575 55 575 55 606 55 c 1,24,-1
 705 59 l 1,25,-1
 696 0 l 1,26,-1
 238 0 l 1,27,-1
 246 59 l 1,28,-1
 346 55 l 1,29,30
 381 55 381 55 387 100 c 2,31,-1
 449 539 l 1,32,-1
 188 1126 l 2,33,34
 178 1148 178 1148 170.5 1156.5 c 128,-1,35
 163 1165 163 1165 150 1165 c 2,36,-1
 92 1161 l 1,37,-1
 100 1223 l 1,38,-1
 543 1223 l 1,39,-1
 535 1161 l 1,40,-1
 426 1165 l 2,41,42
 403 1165 403 1165 403 1143 c 0,43,44
 403 1137 403 1137 410 1116 c 1,45,-1
 612 653 l 1,46,-1
 934 1124 l 2,47,48
 942 1136 942 1136 942 1150.5 c 128,-1,49
 942 1165 942 1165 928 1165 c 2,50,-1
 823 1161 l 1,51,-1
 831 1223 l 1,52,-1
 1137 1223 l 1,53,-1
 1128 1161 l 1,16,-1
EndSplineSet
Position2: "'cpsp' Capital Spacing lookup 0 per glyph data 2" dx=10 dy=0 dh=20 dv=0
EndChar

StartChar: Ygrave
Encoding: 7922 7922 105
Width: 1005
Flags: MW
HStem: 0 55<346 357 595 606> 1165 57<150 159 418 426 928 933 1058 1067>
VStem: 92 1044<1161 1223>
LayerCount: 2
UndoRedoHistory
Layer: 1
Undoes
EndUndoes
Redoes
EndRedoes
EndUndoRedoHistory
Fore
SplineSet
424 1614 m 1,0,1
 412 1626 412 1626 412 1638 c 128,-1,2
 412 1650 412 1650 455 1671 c 128,-1,3
 498 1692 498 1692 520 1692 c 128,-1,4
 542 1692 542 1692 546.5 1691.5 c 128,-1,5
 551 1691 551 1691 556 1689 c 0,6,7
 567.071428571 1684.57142857 567.071428571 1684.57142857 572.535714286 1677.28571429 c 128,-1,8
 578 1670 578 1670 584.5 1661.5 c 128,-1,9
 591 1653 591 1653 594 1649 c 2,10,-1
 762 1415 l 1,11,12
 780 1386 780 1386 780 1380 c 0,13,14
 780 1364 780 1364 753.5 1364 c 128,-1,15
 727 1364 727 1364 709 1382 c 1,16,-1
 424 1614 l 1,0,1
1128 1161 m 1,17,-1
 1067 1165 l 1,18,19
 1037 1165 1037 1165 1008 1122 c 2,20,-1
 645 590 l 1,21,-1
 575 98 l 1,22,-1
 575 86 l 2,23,24
 575 55 575 55 606 55 c 1,25,-1
 705 59 l 1,26,-1
 696 0 l 1,27,-1
 238 0 l 1,28,-1
 246 59 l 1,29,-1
 346 55 l 1,30,31
 381 55 381 55 387 100 c 2,32,-1
 449 539 l 1,33,-1
 188 1126 l 2,34,35
 178 1148 178 1148 170.5 1156.5 c 128,-1,36
 163 1165 163 1165 150 1165 c 2,37,-1
 92 1161 l 1,38,-1
 100 1223 l 1,39,-1
 543 1223 l 1,40,-1
 535 1161 l 1,41,-1
 426 1165 l 2,42,43
 403 1165 403 1165 403 1143 c 0,44,45
 403 1137 403 1137 410 1116 c 1,46,-1
 612 653 l 1,47,-1
 934 1124 l 2,48,49
 942 1136 942 1136 942 1150.5 c 128,-1,50
 942 1165 942 1165 928 1165 c 2,51,-1
 823 1161 l 1,52,-1
 831 1223 l 1,53,-1
 1137 1223 l 1,54,-1
 1128 1161 l 1,17,-1
EndSplineSet
Position2: "'cpsp' Capital Spacing lookup 0 per glyph data 2" dx=10 dy=0 dh=20 dv=0
EndChar

StartChar: Z
Encoding: 90 90 106
Width: 1017
Flags: MW
HStem: 2 55<14 14 231 573 573 663 6 14> 1167 57<415 508 508 801>
VStem: 6 1028
LayerCount: 2
UndoRedoHistory
Layer: 1
Undoes
EndUndoes
Redoes
EndRedoes
EndUndoRedoHistory
Fore
SplineSet
180 1231 m 1,0,-1
 399 1225 l 1,1,-1
 1034 1225 l 1,2,-1
 1028 1176 l 1,3,-1
 231 57 l 1,4,-1
 573 57 l 2,5,6
 707 57 707 57 796.5 133.5 c 128,-1,7
 886 210 886 210 905 344 c 1,8,-1
 965 344 l 1,9,-1
 899 -8 l 1,10,11
 876 2 876 2 676 2 c 2,12,-1
 6 2 l 1,13,-1
 14 57 l 1,14,-1
 801 1167 l 1,15,-1
 508 1167 l 2,16,17
 368 1167 368 1167 291 1104.5 c 128,-1,18
 214 1042 214 1042 195 909 c 1,19,-1
 135 909 l 1,20,-1
 180 1231 l 1,0,-1
EndSplineSet
Position2: "'cpsp' Capital Spacing lookup 0 per glyph data 2" dx=10 dy=0 dh=20 dv=0
EndChar

StartChar: Zacute
Encoding: 377 377 107
Width: 1017
Flags: MW
HStem: 2 55<14 14 231 573 573 663 6 14> 1167 57<415 508 508 801>
VStem: 6 1028
LayerCount: 2
UndoRedoHistory
Layer: 1
Undoes
EndUndoes
Redoes
EndRedoes
EndUndoRedoHistory
Fore
SplineSet
770 1649 m 1,0,1
 795 1676 795 1676 807.5 1684 c 128,-1,2
 820 1692 820 1692 848 1692 c 128,-1,3
 876 1692 876 1692 914 1671.5 c 128,-1,4
 952 1651 952 1651 952 1640 c 128,-1,5
 952 1629 952 1629 932 1614 c 1,6,-1
 582 1382 l 1,7,8
 558 1364 558 1364 534 1364 c 128,-1,9
 510 1364 510 1364 510 1378 c 0,10,11
 510 1386 510 1386 551 1427 c 2,12,-1
 770 1649 l 1,0,1
180 1231 m 1,13,-1
 399 1225 l 1,14,-1
 1034 1225 l 1,15,-1
 1028 1176 l 1,16,-1
 231 57 l 1,17,-1
 573 57 l 2,18,19
 707 57 707 57 796.5 133.5 c 128,-1,20
 886 210 886 210 905 344 c 1,21,-1
 965 344 l 1,22,-1
 899 -8 l 1,23,24
 876 2 876 2 676 2 c 2,25,-1
 6 2 l 1,26,-1
 14 57 l 1,27,-1
 801 1167 l 1,28,-1
 508 1167 l 2,29,30
 368 1167 368 1167 291 1104.5 c 128,-1,31
 214 1042 214 1042 195 909 c 1,32,-1
 135 909 l 1,33,-1
 180 1231 l 1,13,-1
EndSplineSet
EndChar

StartChar: Zcaron
Encoding: 381 381 108
Width: 1017
Flags: MW
HStem: 2 55<14 14 231 573 573 663 6 14> 1167 57<415 508 508 801>
VStem: 6 1028
LayerCount: 2
UndoRedoHistory
Layer: 1
Undoes
EndUndoes
Redoes
EndRedoes
EndUndoRedoHistory
Fore
SplineSet
381 1671 m 0,0,1
 381 1688 381 1688 404.5 1688 c 128,-1,2
 428 1688 428 1688 463 1663 c 1,3,-1
 662 1513 l 1,4,-1
 907 1663 l 1,5,6
 952 1688 952 1688 970.5 1688 c 128,-1,7
 989 1688 989 1688 989 1673 c 0,8,9
 989 1666 989 1666 966.5 1648 c 0,10,11
 861.413793103 1563.93103448 861.413793103 1563.93103448 813 1518 c 2,12,-1
 711 1419 l 1,13,14
 657 1368 657 1368 642 1368 c 128,-1,15
 627 1368 627 1368 588 1419 c 2,16,-1
 514 1518 l 2,17,18
 472 1574 472 1574 426.5 1619.5 c 128,-1,19
 381 1665 381 1665 381 1671 c 0,0,1
180 1231 m 1,20,-1
 399 1225 l 1,21,-1
 1034 1225 l 1,22,-1
 1028 1176 l 1,23,-1
 231 57 l 1,24,-1
 573 57 l 2,25,26
 707 57 707 57 796.5 133.5 c 128,-1,27
 886 210 886 210 905 344 c 1,28,-1
 965 344 l 1,29,-1
 899 -8 l 1,30,31
 876 2 876 2 676 2 c 2,32,-1
 6 2 l 1,33,-1
 14 57 l 1,34,-1
 801 1167 l 1,35,-1
 508 1167 l 2,36,37
 368 1167 368 1167 291 1104.5 c 128,-1,38
 214 1042 214 1042 195 909 c 1,39,-1
 135 909 l 1,40,-1
 180 1231 l 1,20,-1
EndSplineSet
Position2: "'cpsp' Capital Spacing lookup 0 per glyph data 2" dx=10 dy=0 dh=20 dv=0
EndChar

StartChar: Zdotaccent
Encoding: 379 379 109
Width: 1017
Flags: MW
HStem: 2 55<14 14 231 573 573 663 6 14> 1167 57<415 508 508 801> 1389 195<639 682>
VStem: 547 223<1464 1506>
LayerCount: 2
UndoRedoHistory
Layer: 1
Undoes
EndUndoes
Redoes
EndRedoes
EndUndoRedoHistory
Fore
SplineSet
583.5 1553 m 128,-1,1
 620 1583 620 1583 669 1583 c 128,-1,2
 718 1583 718 1583 744 1560 c 128,-1,3
 770 1537 770 1537 770 1492 c 128,-1,4
 770 1447 770 1447 736 1418 c 128,-1,5
 702 1389 702 1389 651.5 1389 c 128,-1,6
 601 1389 601 1389 574 1411.5 c 128,-1,7
 547 1434 547 1434 547 1478.5 c 128,-1,0
 547 1523 547 1523 583.5 1553 c 128,-1,1
180 1231 m 1,8,-1
 399 1225 l 1,9,-1
 1034 1225 l 1,10,-1
 1028 1176 l 1,11,-1
 231 57 l 1,12,-1
 573 57 l 2,13,14
 707 57 707 57 796.5 133.5 c 128,-1,15
 886 210 886 210 905 344 c 1,16,-1
 965 344 l 1,17,-1
 899 -8 l 1,18,19
 876 2 876 2 676 2 c 2,20,-1
 6 2 l 1,21,-1
 14 57 l 1,22,-1
 801 1167 l 1,23,-1
 508 1167 l 2,24,25
 368 1167 368 1167 291 1104.5 c 128,-1,26
 214 1042 214 1042 195 909 c 1,27,-1
 135 909 l 1,28,-1
 180 1231 l 1,8,-1
EndSplineSet
EndChar

StartChar: a
Encoding: 97 97 110
Width: 954
Flags: MW
HStem: -20 113<297 310> 819 61<488 596 428 605>
VStem: 57 182<199 287 199 373> 602 170<42 209>
LayerCount: 2
UndoRedoHistory
Layer: 1
Undoes
EndUndoes
Redoes
EndRedoes
EndUndoRedoHistory
Fore
SplineSet
314.5 777.5 m 128,-1,1
 434 881 434 881 549.185714286 881 c 128,-1,2
 664.371428571 881 664.371428571 881 723 805 c 1,3,-1
 735 850 l 1,4,-1
 907 879 l 1,5,-1
 858 676 l 1,6,7
 772 284 772 284 772 172 c 0,8,9
 772 137 772 137 799 137 c 0,10,11
 836 137 836 137 877 164 c 1,12,-1
 901 123 l 1,13,14
 840 49 840 49 771.5 14.5 c 128,-1,15
 703 -20 703 -20 663 -20 c 128,-1,16
 623 -20 623 -20 612.5 2 c 128,-1,17
 602 24 602 24 602 81 c 128,-1,18
 602 138 602 138 645 383 c 1,19,20
 528 162 528 162 436.5 71 c 128,-1,21
 345 -20 345 -20 250.5 -20 c 128,-1,22
 156 -20 156 -20 106.5 45.5 c 128,-1,23
 57 111 57 111 57 242 c 128,-1,24
 57 373 57 373 126 523.5 c 128,-1,0
 195 674 195 674 314.5 777.5 c 128,-1,1
240 252 m 0,25,26
 240 92 240 92 324 92 c 0,27,28
 364 92 364 92 430.5 159.5 c 128,-1,29
 497 227 497 227 555 321.5 c 128,-1,30
 613 416 613 416 654.5 525 c 128,-1,31
 696 634 696 634 696 694.5 c 128,-1,32
 696 755 696 755 659.5 787 c 128,-1,33
 623 819 623 819 567 819 c 0,34,35
 456 819 456 819 380 721.5 c 128,-1,36
 304 624 304 624 272 496.5 c 128,-1,37
 240 369 240 369 240 252 c 0,25,26
EndSplineSet
Substitution2: "Single Substitution lookup 21 subtable" ordfeminine
Substitution2: "'aalt' Access All Alternates lookup 0 subtable" ordfeminine
EndChar

StartChar: aacute
Encoding: 225 225 111
Width: 954
Flags: MW
HStem: -20 113<297 310> 819 61<488 596 428 605>
VStem: 57 182<199 287 199 373> 602 170<42 209>
LayerCount: 2
UndoRedoHistory
Layer: 1
Undoes
EndUndoes
Redoes
EndRedoes
EndUndoRedoHistory
Fore
SplineSet
705 1294 m 2,0,1
 731 1321 731 1321 742.5 1329 c 128,-1,2
 754 1337 754 1337 782 1337 c 128,-1,3
 810 1337 810 1337 848.5 1317 c 128,-1,4
 887 1297 887 1297 887 1286.5 c 128,-1,5
 887 1276 887 1276 866 1260 c 1,6,-1
 516 1028 l 1,7,8
 492 1010 492 1010 468 1010 c 128,-1,9
 444 1010 444 1010 444 1024 c 0,10,11
 444 1032 444 1032 485 1073 c 2,12,-1
 705 1294 l 2,0,1
314.5 777.5 m 128,-1,14
 434 881 434 881 549.185714286 881 c 128,-1,15
 664.371428571 881 664.371428571 881 723 805 c 1,16,-1
 735 850 l 1,17,-1
 907 879 l 1,18,-1
 858 676 l 1,19,20
 772 284 772 284 772 172 c 0,21,22
 772 137 772 137 799 137 c 0,23,24
 836 137 836 137 877 164 c 1,25,-1
 901 123 l 1,26,27
 840 49 840 49 771.5 14.5 c 128,-1,28
 703 -20 703 -20 663 -20 c 128,-1,29
 623 -20 623 -20 612.5 2 c 128,-1,30
 602 24 602 24 602 81 c 128,-1,31
 602 138 602 138 645 383 c 1,32,33
 528 162 528 162 436.5 71 c 128,-1,34
 345 -20 345 -20 250.5 -20 c 128,-1,35
 156 -20 156 -20 106.5 45.5 c 128,-1,36
 57 111 57 111 57 242 c 128,-1,37
 57 373 57 373 126 523.5 c 128,-1,13
 195 674 195 674 314.5 777.5 c 128,-1,14
240 252 m 0,38,39
 240 92 240 92 324 92 c 0,40,41
 364 92 364 92 430.5 159.5 c 128,-1,42
 497 227 497 227 555 321.5 c 128,-1,43
 613 416 613 416 654.5 525 c 128,-1,44
 696 634 696 634 696 694.5 c 128,-1,45
 696 755 696 755 659.5 787 c 128,-1,46
 623 819 623 819 567 819 c 0,47,48
 456 819 456 819 380 721.5 c 128,-1,49
 304 624 304 624 272 496.5 c 128,-1,50
 240 369 240 369 240 252 c 0,38,39
EndSplineSet
EndChar

StartChar: abreve
Encoding: 259 259 112
Width: 954
Flags: MW
HStem: -20 113<297 310> 819 61<488 596 428 605> 1061 102<547 651 547 664>
VStem: 57 182<199 287 199 373> 365 90<1315 1315> 602 170<42 209>
LayerCount: 2
UndoRedoHistory
Layer: 1
Undoes
EndUndoes
Redoes
EndRedoes
EndUndoRedoHistory
Fore
SplineSet
455 1315 m 1,0,1
 466.692307692 1163 466.692307692 1163 600 1163 c 0,2,3
 671 1163 671 1163 719.5 1207 c 128,-1,4
 768 1251 768 1251 791 1315 c 1,5,-1
 879 1315 l 1,6,7
 850 1198 850 1198 774.5 1129.5 c 128,-1,8
 699 1061 699 1061 586.5 1061 c 128,-1,9
 474 1061 474 1061 418 1129.5 c 128,-1,10
 362 1198 362 1198 365 1315 c 1,11,-1
 455 1315 l 1,0,1
314.5 777.5 m 128,-1,13
 434 881 434 881 549.185714286 881 c 128,-1,14
 664.371428571 881 664.371428571 881 723 805 c 1,15,-1
 735 850 l 1,16,-1
 907 879 l 1,17,-1
 858 676 l 1,18,19
 772 284 772 284 772 172 c 0,20,21
 772 137 772 137 799 137 c 0,22,23
 836 137 836 137 877 164 c 1,24,-1
 901 123 l 1,25,26
 840 49 840 49 771.5 14.5 c 128,-1,27
 703 -20 703 -20 663 -20 c 128,-1,28
 623 -20 623 -20 612.5 2 c 128,-1,29
 602 24 602 24 602 81 c 128,-1,30
 602 138 602 138 645 383 c 1,31,32
 528 162 528 162 436.5 71 c 128,-1,33
 345 -20 345 -20 250.5 -20 c 128,-1,34
 156 -20 156 -20 106.5 45.5 c 128,-1,35
 57 111 57 111 57 242 c 128,-1,36
 57 373 57 373 126 523.5 c 128,-1,12
 195 674 195 674 314.5 777.5 c 128,-1,13
240 252 m 0,37,38
 240 92 240 92 324 92 c 0,39,40
 364 92 364 92 430.5 159.5 c 128,-1,41
 497 227 497 227 555 321.5 c 128,-1,42
 613 416 613 416 654.5 525 c 128,-1,43
 696 634 696 634 696 694.5 c 128,-1,44
 696 755 696 755 659.5 787 c 128,-1,45
 623 819 623 819 567 819 c 0,46,47
 456 819 456 819 380 721.5 c 128,-1,48
 304 624 304 624 272 496.5 c 128,-1,49
 240 369 240 369 240 252 c 0,37,38
EndSplineSet
EndChar

StartChar: acircumflex
Encoding: 226 226 113
Width: 954
Flags: MW
HStem: -20 113<297 310> 819 61<488 596 428 605>
VStem: 57 182<199 287 199 373> 602 170<42 209>
LayerCount: 2
UndoRedoHistory
Layer: 1
Undoes
EndUndoes
Redoes
EndRedoes
EndUndoRedoHistory
Fore
SplineSet
356 1034 m 1,0,1
 313 1010 313 1010 293.5 1010 c 128,-1,2
 274 1010 274 1010 274 1020.5 c 128,-1,3
 274 1031 274 1031 296.5 1049.5 c 128,-1,4
 319 1068 319 1068 365.5 1105.5 c 128,-1,5
 412 1143 412 1143 451 1180 c 2,6,-1
 553 1278 l 2,7,8
 607 1329 607 1329 622 1329 c 128,-1,9
 637 1329 637 1329 676 1278 c 2,10,-1
 750 1180 l 1,11,12
 786.909090909 1129.09090909 786.909090909 1129.09090909 834.954545455 1081.04545455 c 128,-1,13
 883 1033 883 1033 883 1026 c 0,14,15
 883 1010 883 1010 859 1010 c 128,-1,16
 835 1010 835 1010 801 1034 c 1,17,-1
 602 1184 l 1,18,-1
 356 1034 l 1,0,1
314.5 777.5 m 128,-1,20
 434 881 434 881 549.185714286 881 c 128,-1,21
 664.371428571 881 664.371428571 881 723 805 c 1,22,-1
 735 850 l 1,23,-1
 907 879 l 1,24,-1
 858 676 l 1,25,26
 772 284 772 284 772 172 c 0,27,28
 772 137 772 137 799 137 c 0,29,30
 836 137 836 137 877 164 c 1,31,-1
 901 123 l 1,32,33
 840 49 840 49 771.5 14.5 c 128,-1,34
 703 -20 703 -20 663 -20 c 128,-1,35
 623 -20 623 -20 612.5 2 c 128,-1,36
 602 24 602 24 602 81 c 128,-1,37
 602 138 602 138 645 383 c 1,38,39
 528 162 528 162 436.5 71 c 128,-1,40
 345 -20 345 -20 250.5 -20 c 128,-1,41
 156 -20 156 -20 106.5 45.5 c 128,-1,42
 57 111 57 111 57 242 c 128,-1,43
 57 373 57 373 126 523.5 c 128,-1,19
 195 674 195 674 314.5 777.5 c 128,-1,20
240 252 m 0,44,45
 240 92 240 92 324 92 c 0,46,47
 364 92 364 92 430.5 159.5 c 128,-1,48
 497 227 497 227 555 321.5 c 128,-1,49
 613 416 613 416 654.5 525 c 128,-1,50
 696 634 696 634 696 694.5 c 128,-1,51
 696 755 696 755 659.5 787 c 128,-1,52
 623 819 623 819 567 819 c 0,53,54
 456 819 456 819 380 721.5 c 128,-1,55
 304 624 304 624 272 496.5 c 128,-1,56
 240 369 240 369 240 252 c 0,44,45
EndSplineSet
EndChar

StartChar: adieresis
Encoding: 228 228 114
Width: 954
Flags: MW
HStem: -20 113<297 310> 819 61<488 596 428 605> 1122 195<408 451 764 807>
VStem: 57 182<199 287 199 373> 315 223<1198 1240> 602 170<42 209> 672 223<1198 1240>
LayerCount: 2
UndoRedoHistory
Layer: 1
Undoes
EndUndoes
Redoes
EndRedoes
EndUndoRedoHistory
Fore
SplineSet
351.5 1286.5 m 128,-1,1
 388 1317 388 1317 437 1317 c 128,-1,2
 486 1317 486 1317 512.5 1294 c 128,-1,3
 539 1271 539 1271 539 1226 c 128,-1,4
 539 1181 539 1181 504.5 1151.5 c 128,-1,5
 470 1122 470 1122 420 1122 c 128,-1,6
 370 1122 370 1122 342.5 1144.5 c 128,-1,7
 315 1167 315 1167 315 1211.5 c 128,-1,0
 315 1256 315 1256 351.5 1286.5 c 128,-1,1
708.5 1286.5 m 128,-1,9
 745 1317 745 1317 794 1317 c 128,-1,10
 843 1317 843 1317 869 1294 c 128,-1,11
 895 1271 895 1271 895 1226 c 128,-1,12
 895 1181 895 1181 860.5 1151.5 c 128,-1,13
 826 1122 826 1122 776 1122 c 128,-1,14
 726 1122 726 1122 699 1144.5 c 128,-1,15
 672 1167 672 1167 672 1211.5 c 128,-1,8
 672 1256 672 1256 708.5 1286.5 c 128,-1,9
314.5 777.5 m 128,-1,17
 434 881 434 881 549.185714286 881 c 128,-1,18
 664.371428571 881 664.371428571 881 723 805 c 1,19,-1
 735 850 l 1,20,-1
 907 879 l 1,21,-1
 858 676 l 1,22,23
 772 284 772 284 772 172 c 0,24,25
 772 137 772 137 799 137 c 0,26,27
 836 137 836 137 877 164 c 1,28,-1
 901 123 l 1,29,30
 840 49 840 49 771.5 14.5 c 128,-1,31
 703 -20 703 -20 663 -20 c 128,-1,32
 623 -20 623 -20 612.5 2 c 128,-1,33
 602 24 602 24 602 81 c 128,-1,34
 602 138 602 138 645 383 c 1,35,36
 528 162 528 162 436.5 71 c 128,-1,37
 345 -20 345 -20 250.5 -20 c 128,-1,38
 156 -20 156 -20 106.5 45.5 c 128,-1,39
 57 111 57 111 57 242 c 128,-1,40
 57 373 57 373 126 523.5 c 128,-1,16
 195 674 195 674 314.5 777.5 c 128,-1,17
240 252 m 0,41,42
 240 92 240 92 324 92 c 0,43,44
 364 92 364 92 430.5 159.5 c 128,-1,45
 497 227 497 227 555 321.5 c 128,-1,46
 613 416 613 416 654.5 525 c 128,-1,47
 696 634 696 634 696 694.5 c 128,-1,48
 696 755 696 755 659.5 787 c 128,-1,49
 623 819 623 819 567 819 c 0,50,51
 456 819 456 819 380 721.5 c 128,-1,52
 304 624 304 624 272 496.5 c 128,-1,53
 240 369 240 369 240 252 c 0,41,42
EndSplineSet
EndChar

StartChar: agrave
Encoding: 224 224 115
Width: 954
Flags: MW
HStem: -20 113<297 310> 819 61<488 596 428 605>
VStem: 57 182<199 287 199 373> 602 170<42 209>
LayerCount: 2
UndoRedoHistory
Layer: 1
Undoes
EndUndoes
Redoes
EndRedoes
EndUndoRedoHistory
Fore
SplineSet
356 1260 m 1,0,1
 344 1272 344 1272 344 1284 c 128,-1,2
 344 1296 344 1296 387 1316.5 c 128,-1,3
 430 1337 430 1337 452 1337 c 128,-1,4
 474 1337 474 1337 478.5 1336.5 c 128,-1,5
 483 1336 483 1336 488 1334 c 0,6,7
 499.071428571 1329.57142857 499.071428571 1329.57142857 504.535714286 1322.28571429 c 128,-1,8
 510 1315 510 1315 516.5 1306.5 c 128,-1,9
 523 1298 523 1298 526 1294 c 2,10,-1
 694 1061 l 1,11,12
 713 1031 713 1031 713 1026 c 0,13,14
 713 1010 713 1010 686 1010 c 128,-1,15
 659 1010 659 1010 641 1028 c 1,16,-1
 356 1260 l 1,0,1
314.5 777.5 m 128,-1,18
 434 881 434 881 549.185714286 881 c 128,-1,19
 664.371428571 881 664.371428571 881 723 805 c 1,20,-1
 735 850 l 1,21,-1
 907 879 l 1,22,-1
 858 676 l 1,23,24
 772 284 772 284 772 172 c 0,25,26
 772 137 772 137 799 137 c 0,27,28
 836 137 836 137 877 164 c 1,29,-1
 901 123 l 1,30,31
 840 49 840 49 771.5 14.5 c 128,-1,32
 703 -20 703 -20 663 -20 c 128,-1,33
 623 -20 623 -20 612.5 2 c 128,-1,34
 602 24 602 24 602 81 c 128,-1,35
 602 138 602 138 645 383 c 1,36,37
 528 162 528 162 436.5 71 c 128,-1,38
 345 -20 345 -20 250.5 -20 c 128,-1,39
 156 -20 156 -20 106.5 45.5 c 128,-1,40
 57 111 57 111 57 242 c 128,-1,41
 57 373 57 373 126 523.5 c 128,-1,17
 195 674 195 674 314.5 777.5 c 128,-1,18
240 252 m 0,42,43
 240 92 240 92 324 92 c 0,44,45
 364 92 364 92 430.5 159.5 c 128,-1,46
 497 227 497 227 555 321.5 c 128,-1,47
 613 416 613 416 654.5 525 c 128,-1,48
 696 634 696 634 696 694.5 c 128,-1,49
 696 755 696 755 659.5 787 c 128,-1,50
 623 819 623 819 567 819 c 0,51,52
 456 819 456 819 380 721.5 c 128,-1,53
 304 624 304 624 272 496.5 c 128,-1,54
 240 369 240 369 240 252 c 0,42,43
EndSplineSet
EndChar

StartChar: amacron
Encoding: 257 257 116
Width: 954
Flags: MW
HStem: -20 113<297 310> 819 61<488 596 428 605> 1161 82<362 846 350 858>
VStem: 57 182<199 287 199 373> 602 170<42 209>
LayerCount: 2
UndoRedoHistory
Layer: 1
Undoes
EndUndoes
Redoes
EndRedoes
EndUndoRedoHistory
Fore
SplineSet
846 1161 m 1,0,-1
 350 1161 l 1,1,-1
 362 1243 l 1,2,-1
 858 1243 l 1,3,-1
 846 1161 l 1,0,-1
314.5 777.5 m 128,-1,5
 434 881 434 881 549.185714286 881 c 128,-1,6
 664.371428571 881 664.371428571 881 723 805 c 1,7,-1
 735 850 l 1,8,-1
 907 879 l 1,9,-1
 858 676 l 1,10,11
 772 284 772 284 772 172 c 0,12,13
 772 137 772 137 799 137 c 0,14,15
 836 137 836 137 877 164 c 1,16,-1
 901 123 l 1,17,18
 840 49 840 49 771.5 14.5 c 128,-1,19
 703 -20 703 -20 663 -20 c 128,-1,20
 623 -20 623 -20 612.5 2 c 128,-1,21
 602 24 602 24 602 81 c 128,-1,22
 602 138 602 138 645 383 c 1,23,24
 528 162 528 162 436.5 71 c 128,-1,25
 345 -20 345 -20 250.5 -20 c 128,-1,26
 156 -20 156 -20 106.5 45.5 c 128,-1,27
 57 111 57 111 57 242 c 128,-1,28
 57 373 57 373 126 523.5 c 128,-1,4
 195 674 195 674 314.5 777.5 c 128,-1,5
240 252 m 0,29,30
 240 92 240 92 324 92 c 0,31,32
 364 92 364 92 430.5 159.5 c 128,-1,33
 497 227 497 227 555 321.5 c 128,-1,34
 613 416 613 416 654.5 525 c 128,-1,35
 696 634 696 634 696 694.5 c 128,-1,36
 696 755 696 755 659.5 787 c 128,-1,37
 623 819 623 819 567 819 c 0,38,39
 456 819 456 819 380 721.5 c 128,-1,40
 304 624 304 624 272 496.5 c 128,-1,41
 240 369 240 369 240 252 c 0,29,30
EndSplineSet
EndChar

StartChar: aogonek
Encoding: 261 261 117
Width: 954
Flags: MW
HStem: -326 88<652 790> -20 113<297 310> 819 61<488 596 428 605>
VStem: 57 182<199 287 199 373> 557 119<-171 -167> 602 170<42 209>
LayerCount: 2
UndoRedoHistory
Layer: 1
Undoes
EndUndoes
Redoes
EndRedoes
EndUndoRedoHistory
Fore
SplineSet
314.5 777.5 m 128,-1,1
 434 881 434 881 549.185714286 881 c 128,-1,2
 664.371428571 881 664.371428571 881 723 805 c 1,3,-1
 735 850 l 1,4,-1
 907 879 l 1,5,-1
 858 676 l 1,6,7
 772 284 772 284 772 172 c 0,8,9
 772 137 772 137 799 137 c 0,10,11
 836 137 836 137 877 164 c 1,12,-1
 901 123 l 1,13,14
 835 43 835 43 762 10 c 1,15,16
 676 -50 676 -50 676 -145 c 0,17,18
 676 -186 676 -186 698.5 -212 c 128,-1,19
 721 -238 721 -238 775 -238 c 128,-1,20
 829 -238 829 -238 909 -174 c 1,21,-1
 934 -203 l 1,22,23
 817 -326 817 -326 686 -326 c 0,24,25
 632 -326 632 -326 594.5 -292.5 c 128,-1,26
 557 -259 557 -259 557 -199 c 0,27,28
 557 -96 557 -96 655 -20 c 1,29,-1
 651 -20 l 2,30,31
 623 -20 623 -20 612.5 2 c 128,-1,32
 602 24 602 24 602 81 c 128,-1,33
 602 138 602 138 645 383 c 1,34,35
 528 162 528 162 436.5 71 c 128,-1,36
 345 -20 345 -20 250.5 -20 c 128,-1,37
 156 -20 156 -20 106.5 45.5 c 128,-1,38
 57 111 57 111 57 242 c 128,-1,39
 57 373 57 373 126 523.5 c 128,-1,0
 195 674 195 674 314.5 777.5 c 128,-1,1
240 252 m 0,40,41
 240 92 240 92 324 92 c 0,42,43
 364 92 364 92 430.5 159.5 c 128,-1,44
 497 227 497 227 555 321.5 c 128,-1,45
 613 416 613 416 654.5 525 c 128,-1,46
 696 634 696 634 696 694.5 c 128,-1,47
 696 755 696 755 659.5 787 c 128,-1,48
 623 819 623 819 567 819 c 0,49,50
 456 819 456 819 380 721.5 c 128,-1,51
 304 624 304 624 272 496.5 c 128,-1,52
 240 369 240 369 240 252 c 0,40,41
EndSplineSet
EndChar

StartChar: aring
Encoding: 229 229 118
Width: 954
Flags: MW
HStem: -20 113<297 310> 819 61<488 596 428 605> 1010 74<569 615 569 635> 1270 74<591 638>
VStem: 57 182<199 287 199 373> 438 92<1142 1193 1142 1210> 602 170<42 209> 678 94<1162 1212>
LayerCount: 2
UndoRedoHistory
Layer: 1
Undoes
EndUndoes
Redoes
EndRedoes
EndUndoRedoHistory
Fore
SplineSet
475.5 1049.5 m 128,-1,1
 438 1089 438 1089 438 1162 c 128,-1,2
 438 1235 438 1235 494.5 1289 c 128,-1,3
 551 1343 551 1343 623.5 1343 c 128,-1,4
 696 1343 696 1343 734 1304.5 c 128,-1,5
 772 1266 772 1266 772 1190.5 c 128,-1,6
 772 1115 772 1115 718 1062.5 c 128,-1,7
 664 1010 664 1010 588.5 1010 c 128,-1,0
 513 1010 513 1010 475.5 1049.5 c 128,-1,1
678 1190 m 0,8,9
 678 1270 678 1270 616 1270 c 0,10,11
 579 1270 579 1270 554.5 1239 c 128,-1,12
 530 1208 530 1208 530 1165 c 0,13,14
 530 1083 530 1083 590 1083 c 0,15,16
 627 1083 627 1083 652.5 1115.5 c 128,-1,17
 678 1148 678 1148 678 1190 c 0,8,9
314.5 777.5 m 128,-1,19
 434 881 434 881 549.185714286 881 c 128,-1,20
 664.371428571 881 664.371428571 881 723 805 c 1,21,-1
 735 850 l 1,22,-1
 907 879 l 1,23,-1
 858 676 l 1,24,25
 772 284 772 284 772 172 c 0,26,27
 772 137 772 137 799 137 c 0,28,29
 836 137 836 137 877 164 c 1,30,-1
 901 123 l 1,31,32
 840 49 840 49 771.5 14.5 c 128,-1,33
 703 -20 703 -20 663 -20 c 128,-1,34
 623 -20 623 -20 612.5 2 c 128,-1,35
 602 24 602 24 602 81 c 128,-1,36
 602 138 602 138 645 383 c 1,37,38
 528 162 528 162 436.5 71 c 128,-1,39
 345 -20 345 -20 250.5 -20 c 128,-1,40
 156 -20 156 -20 106.5 45.5 c 128,-1,41
 57 111 57 111 57 242 c 128,-1,42
 57 373 57 373 126 523.5 c 128,-1,18
 195 674 195 674 314.5 777.5 c 128,-1,19
240 252 m 0,43,44
 240 92 240 92 324 92 c 0,45,46
 364 92 364 92 430.5 159.5 c 128,-1,47
 497 227 497 227 555 321.5 c 128,-1,48
 613 416 613 416 654.5 525 c 128,-1,49
 696 634 696 634 696 694.5 c 128,-1,50
 696 755 696 755 659.5 787 c 128,-1,51
 623 819 623 819 567 819 c 0,52,53
 456 819 456 819 380 721.5 c 128,-1,54
 304 624 304 624 272 496.5 c 128,-1,55
 240 369 240 369 240 252 c 0,43,44
EndSplineSet
EndChar

StartChar: atilde
Encoding: 227 227 119
Width: 954
Flags: MW
HStem: -20 113<297 310> 819 61<488 596 428 605> 1083 100<740 781> 1171 100<419 461>
VStem: 57 182<199 287 199 373> 299 41<1085 1085> 602 170<42 209> 860 41<1270 1270>
LayerCount: 2
UndoRedoHistory
Layer: 1
Undoes
EndUndoes
Redoes
EndRedoes
EndUndoRedoHistory
Fore
SplineSet
299 1085 m 1,0,1
 310 1161 310 1161 355.5 1216.5 c 128,-1,2
 401 1272 401 1272 451.5 1272 c 128,-1,3
 502 1272 502 1272 621.5 1228 c 128,-1,4
 741 1184 741 1184 775 1184 c 128,-1,5
 809 1184 809 1184 832.5 1208.5 c 128,-1,6
 856 1233 856 1233 860 1270 c 1,7,-1
 901 1270 l 1,8,9
 890 1194 890 1194 844.5 1138.5 c 128,-1,10
 799 1083 799 1083 748 1083 c 128,-1,11
 697 1083 697 1083 578.5 1127 c 128,-1,12
 460 1171 460 1171 425.5 1171 c 128,-1,13
 391 1171 391 1171 368.5 1146.5 c 128,-1,14
 346 1122 346 1122 340 1085 c 1,15,-1
 299 1085 l 1,0,1
314.5 777.5 m 128,-1,17
 434 881 434 881 549.185714286 881 c 128,-1,18
 664.371428571 881 664.371428571 881 723 805 c 1,19,-1
 735 850 l 1,20,-1
 907 879 l 1,21,-1
 858 676 l 1,22,23
 772 284 772 284 772 172 c 0,24,25
 772 137 772 137 799 137 c 0,26,27
 836 137 836 137 877 164 c 1,28,-1
 901 123 l 1,29,30
 840 49 840 49 771.5 14.5 c 128,-1,31
 703 -20 703 -20 663 -20 c 128,-1,32
 623 -20 623 -20 612.5 2 c 128,-1,33
 602 24 602 24 602 81 c 128,-1,34
 602 138 602 138 645 383 c 1,35,36
 528 162 528 162 436.5 71 c 128,-1,37
 345 -20 345 -20 250.5 -20 c 128,-1,38
 156 -20 156 -20 106.5 45.5 c 128,-1,39
 57 111 57 111 57 242 c 128,-1,40
 57 373 57 373 126 523.5 c 128,-1,16
 195 674 195 674 314.5 777.5 c 128,-1,17
240 252 m 0,41,42
 240 92 240 92 324 92 c 0,43,44
 364 92 364 92 430.5 159.5 c 128,-1,45
 497 227 497 227 555 321.5 c 128,-1,46
 613 416 613 416 654.5 525 c 128,-1,47
 696 634 696 634 696 694.5 c 128,-1,48
 696 755 696 755 659.5 787 c 128,-1,49
 623 819 623 819 567 819 c 0,50,51
 456 819 456 819 380 721.5 c 128,-1,52
 304 624 304 624 272 496.5 c 128,-1,53
 240 369 240 369 240 252 c 0,41,42
EndSplineSet
EndChar

StartChar: ae
Encoding: 230 230 120
Width: 1316
Flags: MW
HStem: -18 111<848 908> 371 66 778 61<670 778 778 782> 819 61<1009 1077>
VStem: 27 182<205 276 205 359> 555 180 1153 145<628 724>
LayerCount: 2
UndoRedoHistory
Layer: 1
Undoes
EndUndoes
Redoes
EndRedoes
EndUndoRedoHistory
Fore
SplineSet
1208 172 m 1,0,1
 1127 87 1127 87 1031.5 34.5 c 128,-1,2
 936 -18 936 -18 830 -18 c 128,-1,3
 724 -18 724 -18 644.5 59.5 c 128,-1,4
 565 137 565 137 555 266 c 1,5,6
 472 114 472 114 392.5 47 c 128,-1,7
 313 -20 313 -20 220.5 -20 c 128,-1,8
 128 -20 128 -20 77.5 45 c 128,-1,9
 27 110 27 110 27 215 c 128,-1,10
 27 320 27 320 89.5 434 c 128,-1,11
 152 548 152 548 253 637 c 128,-1,12
 354 726 354 726 492 783 c 128,-1,13
 630 840 630 840 770 840 c 0,14,15
 822.5 840 822.5 840 860 831 c 1,16,17
 949 881 949 881 1050.5 881 c 128,-1,18
 1152 881 1152 881 1225 822 c 128,-1,19
 1298 763 1298 763 1298 680 c 0,20,21
 1298 541.571428571 1298 541.571428571 1112 453 c 0,22,23
 973.136986301 386.874755382 973.136986301 386.874755382 737 371 c 1,24,25
 735 353 735 353 735 315 c 0,26,27
 735 213 735 213 779.5 152.5 c 128,-1,28
 824 92 824 92 905.5 92 c 128,-1,29
 987 92 987 92 1163 205 c 1,30,-1
 1208 172 l 1,0,1
1153 692 m 0,31,32
 1153 744 1153 744 1123.5 781.5 c 128,-1,33
 1094 819 1094 819 1036 819 c 0,34,35
 901 819 901 819 813 653 c 1,36,37
 759 546 759 546 745 436 c 1,38,39
 940 451 940 451 1046.5 521.5 c 128,-1,40
 1153 592 1153 592 1153 692 c 0,31,32
561 391 m 1,41,42
 580 503 580 503 638.5 605 c 128,-1,43
 697 707 697 707 782 778 c 1,44,-1
 778 778 l 2,45,46
 626 778 626 778 509.5 710.5 c 128,-1,47
 393 643 393 643 317 535 c 1,48,49
 264 462 264 462 236.5 381.5 c 128,-1,50
 209 301 209 301 209 242 c 128,-1,51
 209 183 209 183 230 137.5 c 128,-1,52
 251 92 251 92 289 92 c 0,53,54
 354 92 354 92 430 179 c 128,-1,55
 506 266 506 266 561 391 c 1,41,42
EndSplineSet
EndChar

StartChar: b
Encoding: 98 98 121
Width: 935
Flags: MW
HStem: -14 61<370 473 370 508> 768 113<626 638>
VStem: 109 143<131 274> 246 190<1244 1467> 709 182<543 633>
LayerCount: 2
UndoRedoHistory
Layer: 1
Undoes
EndUndoes
Redoes
EndRedoes
EndUndoRedoHistory
Fore
SplineSet
246 1333 m 0,0,1
 246 1384 246 1384 182 1384 c 0,2,3
 159 1384 159 1384 129 1378 c 1,4,-1
 117 1430 l 1,5,6
 242.9375 1495 242.9375 1495 358 1495 c 0,7,8
 400 1495 400 1495 418 1485.5 c 128,-1,9
 436 1476 436 1476 436 1454.5 c 128,-1,10
 436 1433 436 1433 411.5 1285 c 0,11,12
 331.389317181 801.066079295 331.389317181 801.066079295 291 492 c 1,13,14
 381 691 381 691 484.5 786 c 128,-1,15
 588 881 588 881 683.5 881 c 128,-1,16
 779 881 779 881 835 808 c 128,-1,17
 891 735 891 735 891 633 c 128,-1,18
 891 531 891 531 866 442 c 128,-1,19
 841 353 841 353 792.5 272 c 128,-1,20
 744 191 744 191 679 126.5 c 128,-1,21
 614 62 614 62 526.5 24 c 128,-1,22
 439 -14 439 -14 334 -14 c 128,-1,23
 229 -14 229 -14 169 34 c 128,-1,24
 109 82 109 82 109 180 c 128,-1,25
 109 278 109 278 177.5 762.5 c 128,-1,26
 246 1247 246 1247 246 1333 c 0,0,1
680.5 714 m 128,-1,28
 652 768 652 768 611 768 c 128,-1,29
 570 768 570 768 507 707 c 128,-1,30
 444 646 444 646 388 559.5 c 128,-1,31
 332 473 332 473 292 371 c 128,-1,32
 252 269 252 269 252 209.5 c 128,-1,33
 252 150 252 150 266.5 118.5 c 128,-1,34
 281 87 281 87 304.5 72.5 c 0,35,36
 345.827586207 47 345.827586207 47 398.913793103 47 c 128,-1,37
 452 47 452 47 499 73 c 128,-1,38
 546 99 546 99 580 144.5 c 0,39,40
 645.524517088 232.187221397 645.524517088 232.187221397 677.262258544 356.093610698 c 128,-1,41
 709 480 709 480 709 570 c 128,-1,27
 709 660 709 660 680.5 714 c 128,-1,28
EndSplineSet
EndChar

StartChar: c
Encoding: 99 99 122
Width: 831
Flags: MW
HStem: -18 111<343 412> 819 61<484 569>
VStem: 53 182<254 378 254 446> 647 145<709 743 663 762>
LayerCount: 2
UndoRedoHistory
Layer: 1
Undoes
EndUndoes
Redoes
EndRedoes
EndUndoRedoHistory
Fore
SplineSet
709 172 m 1,0,1
 629 89 629 89 533.5 35.5 c 128,-1,2
 438 -18 438 -18 350 -18 c 0,3,4
 212 -18 212 -18 132.5 68.5 c 128,-1,5
 53 155 53 155 53 299.5 c 128,-1,6
 53 444 53 444 122 579.5 c 128,-1,7
 191 715 191 715 305 798 c 128,-1,8
 419 881 419 881 533.5 881 c 128,-1,9
 648 881 648 881 720.5 825.5 c 128,-1,10
 793 770 793 770 793 690 c 0,11,12
 793 642 793 642 765 605.5 c 128,-1,13
 737 569 737 569 675.5 569 c 128,-1,14
 614 569 614 569 614 623 c 0,15,16
 614 644 614 644 630.5 676 c 128,-1,17
 647 708 647 708 647 741 c 128,-1,18
 647 774 647 774 617 796.5 c 128,-1,19
 587 819 587 819 539 819 c 0,20,21
 398 819 398 819 305 629 c 0,22,23
 236 488 236 488 236 353 c 0,24,25
 236 92 236 92 393 92 c 0,26,27
 481 92 481 92 664 205 c 1,28,-1
 709 172 l 1,0,1
EndSplineSet
EndChar

StartChar: cacute
Encoding: 263 263 123
Width: 831
Flags: MW
HStem: -18 111<343 412> 819 61<484 569>
VStem: 53 182<254 378 254 446> 647 145<709 743 663 762>
LayerCount: 2
UndoRedoHistory
Layer: 1
Undoes
EndUndoes
Redoes
EndRedoes
EndUndoRedoHistory
Fore
SplineSet
608 1294 m 1,0,1
 633 1321 633 1321 645.5 1329 c 128,-1,2
 658 1337 658 1337 686 1337 c 128,-1,3
 714 1337 714 1337 752.5 1317 c 128,-1,4
 791 1297 791 1297 791 1286.5 c 128,-1,5
 791 1276 791 1276 770 1260 c 1,6,-1
 420 1028 l 1,7,8
 396 1010 396 1010 372 1010 c 128,-1,9
 348 1010 348 1010 348 1024 c 0,10,11
 348 1032 348 1032 389 1073 c 2,12,-1
 608 1294 l 1,0,1
709 172 m 1,13,14
 629 89 629 89 533.5 35.5 c 128,-1,15
 438 -18 438 -18 350 -18 c 0,16,17
 212 -18 212 -18 132.5 68.5 c 128,-1,18
 53 155 53 155 53 299.5 c 128,-1,19
 53 444 53 444 122 579.5 c 128,-1,20
 191 715 191 715 305 798 c 128,-1,21
 419 881 419 881 533.5 881 c 128,-1,22
 648 881 648 881 720.5 825.5 c 128,-1,23
 793 770 793 770 793 690 c 0,24,25
 793 642 793 642 765 605.5 c 128,-1,26
 737 569 737 569 675.5 569 c 128,-1,27
 614 569 614 569 614 623 c 0,28,29
 614 644 614 644 630.5 676 c 128,-1,30
 647 708 647 708 647 741 c 128,-1,31
 647 774 647 774 617 796.5 c 128,-1,32
 587 819 587 819 539 819 c 0,33,34
 398 819 398 819 305 629 c 0,35,36
 236 488 236 488 236 353 c 0,37,38
 236 92 236 92 393 92 c 0,39,40
 481 92 481 92 664 205 c 1,41,-1
 709 172 l 1,13,14
EndSplineSet
EndChar

